<svg width="2423" height="2843" viewBox="0 0 2423 2843" fill="none" xmlns="http://www.w3.org/2000/svg">
<path d="M1089.22 584.484L1780.06 2364.19C1806.6 2432.42 1835.97 2479.8 1868.19 2506.34C1902.31 2530.98 1932.63 2544.25 1959.17 2546.14V2603C1902.31 2599.21 1835.03 2597.31 1757.32 2597.31C1681.5 2595.42 1604.74 2594.47 1527.04 2594.47C1439.85 2594.47 1357.4 2595.42 1279.7 2597.31C1201.99 2597.31 1140.39 2599.21 1094.9 2603V2546.14C1191.56 2542.35 1252.21 2526.24 1276.85 2497.81C1303.39 2467.48 1297.7 2403.99 1259.8 2307.33L776.489 985.344L827.663 911.427L395.53 2037.25C353.832 2141.49 328.246 2226.78 318.769 2293.12C311.188 2359.45 315.926 2410.63 332.984 2446.64C351.937 2482.65 381.315 2508.23 421.116 2523.4C462.813 2536.66 512.092 2544.25 568.951 2546.14V2603C506.406 2599.21 446.703 2597.31 389.844 2597.31C332.984 2595.42 275.177 2594.47 216.422 2594.47C174.725 2594.47 134.923 2595.42 97.0166 2597.31C61.0055 2597.31 28.7851 2599.21 0.355299 2603V2546.14C40.157 2538.56 80.9064 2512.97 122.603 2469.38C164.3 2425.79 205.05 2351.87 244.852 2247.63L893.051 584.484C923.376 586.379 955.597 587.327 989.712 587.327C1025.72 587.327 1058.89 586.379 1089.22 584.484ZM1288.23 1784.22V1841.08H441.017L469.447 1784.22H1288.23Z" fill="black"/>
<path fill-rule="evenodd" clip-rule="evenodd" d="M2203.04 1919.5C2285.67 1893.75 2374.44 1875.77 2412.69 2002.08C2435.94 2078.86 2412.38 2188.66 2378.45 2250.43C2344.53 2320.85 2209.77 2300.7 2122.58 2250.43C2009.85 2185.44 2029.62 2112.52 2053.33 2057.77C2053.33 2057.77 2107.11 1949.39 2203.04 1919.5Z" fill="url(#paint0_linear_8791_32058)"/>
<defs>
<linearGradient id="paint0_linear_8791_32058" x1="2035" y1="2098.5" x2="2422.01" y2="2098.5" gradientUnits="userSpaceOnUse">
<stop stop-color="#30138B"/>
<stop offset="1" stop-color="#7066DD"/>
</linearGradient>
</defs>
</svg>
