<svg class="gridItem__media" xmlns="http://www.w3.org/2000/svg" style="font:400 16px/18.4px Lato,sans-serif;marker:none" fill="none" viewBox="220.36 179.31 1158.45 817.07" baseline-shift="0" color="#3d3d3d" color-interpolation="srgb" color-interpolation-filters="linearrgb" cursor="auto" display="block" overflow="hidden" pointer-events="auto" text-decoration="none solid #3d3d3d" word-spacing="0" writing-mode="horizontal-tb"><path d="M221.75 590.899l92.25 403.1h967.4l82.6-333.3c.9-7.229.39-14.564-1.5-21.6l-88.6-320.4a55.188 55.188 0 00-16.6-26.566 55.149 55.149 0 00-28.4-13.234l-674.6-99a54.858 54.858 0 00-51.2 20.4l-270.95 344.3a55.004 55.004 0 00-10.4 46.3z" fill="#f4f4f4" baseline-shift="0" text-decoration="none solid #3d3d3d"/><path opacity=".1" d="M541.57 856.829v17.16H261.98v-187.21h18.66" fill="#000" baseline-shift="0" text-decoration="none solid #3d3d3d"/><path d="M561.1 668.689H281.5v187.21h279.6v-187.21z" fill="#fff" baseline-shift="0" text-decoration="none solid #3d3d3d"/><path d="M292.53 677a2.24 2.24 0 11-4.478-.002 2.24 2.24 0 014.478.002zm7.68 0a2.253 2.253 0 01-1.382 2.086 2.244 2.244 0 01-2.455-.482 2.25 2.25 0 011.587-3.844 2.225 2.225 0 011.59.652 2.24 2.24 0 01.66 1.588zm7.56 0a2.238 2.238 0 01-2.677 2.197 2.247 2.247 0 01-1.147-.613 2.239 2.239 0 011.584-3.824 2.24 2.24 0 012.24 2.24z" class="change-color-in-svg" fill="#363062" baseline-shift="0" text-decoration="none solid #3d3d3d"/><path d="M292.53 677a2.24 2.24 0 11-4.478-.002 2.24 2.24 0 014.478.002zm7.68 0a2.253 2.253 0 01-1.382 2.086 2.244 2.244 0 01-2.455-.482 2.25 2.25 0 011.587-3.844 2.225 2.225 0 011.59.652 2.24 2.24 0 01.66 1.588zm7.56 0a2.238 2.238 0 01-2.677 2.197 2.247 2.247 0 01-1.147-.613 2.239 2.239 0 011.584-3.824 2.24 2.24 0 012.24 2.24z" baseline-shift="0" text-decoration="none solid #3d3d3d" opacity=".6" fill="#fff"/><path d="M280.86 668.061v188.47h280.87v-188.47H280.86zm279.6 1.27v15.43H282.13v-15.43h278.33zm-278.33 185.93v-169.26h278.33v169.26H282.13z" class="change-color-in-svg" fill="#363062" baseline-shift="0" text-decoration="none solid #3d3d3d"/><path opacity=".6" d="M280.86 668.061v188.47h280.87v-188.47H280.86zm279.6 1.27v15.43H282.13v-15.43h278.33zm-278.33 185.93v-169.26h278.33v169.26H282.13z" fill="#fff" baseline-shift="0" text-decoration="none solid #3d3d3d"/><path d="M380.67 704.92h-74.58v74.58h74.58v-74.58z" class="change-color-in-svg" fill="#363062" baseline-shift="0" text-decoration="none solid #3d3d3d"/><path d="M380.67 704.92h-74.58v74.58h74.58v-74.58z" fill="#fff" baseline-shift="0" text-decoration="none solid #3d3d3d" opacity=".6"/><path d="M345.81 804.65h-35.05v35.05h35.05v-35.05z" class="change-color-in-svg" fill="#363062" baseline-shift="0" text-decoration="none solid #3d3d3d"/><path opacity=".6" d="M345.81 804.65h-35.05v35.05h35.05v-35.05z" fill="#fff" baseline-shift="0" text-decoration="none solid #3d3d3d"/><path d="M409.37 804.65h-35.05v35.05h35.05v-35.05z" class="change-color-in-svg" fill="#363062" baseline-shift="0" text-decoration="none solid #3d3d3d"/><path opacity=".6" d="M409.37 804.65h-35.05v35.05h35.05v-35.05z" fill="#fff" baseline-shift="0" text-decoration="none solid #3d3d3d"/><path d="M472.94 804.65h-35.05v35.05h35.05v-35.05z" class="change-color-in-svg" fill="#363062" baseline-shift="0" text-decoration="none solid #3d3d3d"/><path opacity=".6" d="M472.94 804.65h-35.05v35.05h35.05v-35.05z" fill="#fff" baseline-shift="0" text-decoration="none solid #3d3d3d"/><path d="M536.5 804.65h-35.05v35.05h35.05v-35.05z" class="change-color-in-svg" fill="#363062" baseline-shift="0" text-decoration="none solid #3d3d3d"/><path opacity=".6" d="M536.5 804.65h-35.05v35.05h35.05v-35.05z" fill="#fff" baseline-shift="0" text-decoration="none solid #3d3d3d"/><path d="M523.21 718.219H393.29a.64.64 0 01-.452-1.089.64.64 0 01.452-.181h129.92a.638.638 0 01.64.63.64.64 0 01-.64.64zm0 13.949H393.29a.64.64 0 01-.452-1.089.648.648 0 01.452-.18h129.92a.637.637 0 01.64.63.64.64 0 01-.64.639zm0 13.952H393.29a.606.606 0 01-.244-.054.61.61 0 01-.332-.359.627.627 0 01-.034-.247.633.633 0 01.61-.61h129.92a.638.638 0 01.66.61.627.627 0 01-.163.461.61.61 0 01-.203.145.606.606 0 01-.244.054h-.05zm-54.59 13.949h-75.33a.623.623 0 01-.61-.66.631.631 0 01.61-.61h75.33a.64.64 0 010 1.27z" class="change-color-in-svg" fill="#363062" baseline-shift="0" text-decoration="none solid #3d3d3d" opacity=".6"/><path opacity=".1" d="M1308.57 549.92V562h-279.59V430.24h18.66" fill="#000" baseline-shift="0" text-decoration="none solid #3d3d3d"/><path d="M1328.09 417.5H1048.5v131.76h279.59V417.5z" fill="#fff" baseline-shift="0" text-decoration="none solid #3d3d3d"/><path d="M1059.53 425c0 .446-.13.882-.37 1.254-.25.371-.6.661-1.01.833a2.29 2.29 0 01-1.31.13 2.243 2.243 0 01-1.15-.616 2.249 2.249 0 01-.62-1.155c-.08-.437-.04-.89.13-1.302.18-.411.46-.763.84-1.009.37-.247.8-.377 1.25-.375a2.244 2.244 0 012.24 2.24zm7.68 0c0 .446-.13.882-.38 1.254-.24.371-.59.661-1 .833a2.29 2.29 0 01-1.31.13 2.243 2.243 0 01-1.15-.616 2.249 2.249 0 01-.62-1.155c-.08-.437-.04-.89.13-1.302.17-.411.46-.763.84-1.009.37-.247.8-.377 1.25-.375a2.244 2.244 0 012.24 2.24zm7.56 0c0 .443-.13.876-.38 1.244-.24.369-.59.656-1 .825a2.23 2.23 0 01-2.44-.485 2.233 2.233 0 01-.62-1.147 2.24 2.24 0 01.96-2.3c.36-.246.8-.377 1.24-.377a2.244 2.244 0 012.24 2.24z" class="change-color-in-svg" fill="#363062" baseline-shift="0" text-decoration="none solid #3d3d3d"/><path d="M1059.53 425c0 .446-.13.882-.37 1.254-.25.371-.6.661-1.01.833a2.29 2.29 0 01-1.31.13 2.243 2.243 0 01-1.15-.616 2.249 2.249 0 01-.62-1.155c-.08-.437-.04-.89.13-1.302.18-.411.46-.763.84-1.009.37-.247.8-.377 1.25-.375a2.244 2.244 0 012.24 2.24zm7.68 0c0 .446-.13.882-.38 1.254-.24.371-.59.661-1 .833a2.29 2.29 0 01-1.31.13 2.243 2.243 0 01-1.15-.616 2.249 2.249 0 01-.62-1.155c-.08-.437-.04-.89.13-1.302.17-.411.46-.763.84-1.009.37-.247.8-.377 1.25-.375a2.244 2.244 0 012.24 2.24zm7.56 0c0 .443-.13.876-.38 1.244-.24.369-.59.656-1 .825a2.23 2.23 0 01-2.44-.485 2.233 2.233 0 01-.62-1.147 2.24 2.24 0 01.96-2.3c.36-.246.8-.377 1.24-.377a2.244 2.244 0 012.24 2.24z" baseline-shift="0" text-decoration="none solid #3d3d3d" opacity=".6" fill="#fff"/><path d="M1047.86 417.061v132.65h280.87v-132.65h-280.87zm279.6.89v13.87h-278.33v-13.82l278.33-.05zm-278.33 130.87v-116.11h278.33v116.11h-278.33z" class="change-color-in-svg" fill="#363062" baseline-shift="0" text-decoration="none solid #3d3d3d"/><path opacity=".6" d="M1047.86 417.061v132.65h280.87v-132.65h-280.87zm279.6.89v13.87h-278.33v-13.82l278.33-.05zm-278.33 130.87v-116.11h278.33v116.11h-278.33z" fill="#fff" baseline-shift="0" text-decoration="none solid #3d3d3d"/><path d="M1147.67 453.92h-74.58v74.58h74.58v-74.58z" class="change-color-in-svg" fill="#363062" baseline-shift="0" text-decoration="none solid #3d3d3d"/><path d="M1147.67 453.92h-74.58v74.58h74.58v-74.58z" fill="#fff" baseline-shift="0" text-decoration="none solid #3d3d3d" opacity=".6"/><path d="M1290.21 467.219h-129.92a.643.643 0 01-.64-.64c0-.083.02-.166.05-.243a.628.628 0 01.59-.387h129.92a.639.639 0 01.64.63.643.643 0 01-.64.64zm0 13.95h-129.92a.643.643 0 01-.64-.64c0-.084.02-.167.05-.244a.626.626 0 01.35-.341.586.586 0 01.24-.045h129.92a.638.638 0 01.64.63.643.643 0 01-.64.64zm0 13.951h-129.92a.593.593 0 01-.24-.054.637.637 0 01-.21-.145.811.811 0 01-.13-.214.685.685 0 01-.03-.247c.01-.16.07-.313.18-.426a.655.655 0 01.43-.184h129.92c.17-.005.33.055.45.17a.627.627 0 01.04.898.63.63 0 01-.44.202h-.05zm-54.59 13.949h-75.33a.653.653 0 01-.45-.199.811.811 0 01-.13-.214.685.685 0 01-.03-.247c.01-.16.07-.313.18-.426a.655.655 0 01.43-.184h75.33c.15.019.3.095.4.211.1.117.16.268.16.424 0 .156-.06.306-.16.423a.647.647 0 01-.4.212z" class="change-color-in-svg" fill="#363062" baseline-shift="0" text-decoration="none solid #3d3d3d" opacity=".6"/><path d="M1377.31 993.381H258.89a1.5 1.5 0 100 3h1118.42c.4 0 .78-.158 1.06-.439.28-.282.44-.663.44-1.061 0-.398-.16-.78-.44-1.061a1.493 1.493 0 00-1.06-.439z" fill="#b2b6bb" baseline-shift="0" text-decoration="none solid #3d3d3d"/><path opacity=".07" d="M1171.87 332.221H425.54a4.43 4.43 0 00-4.43 4.43v483.45a4.43 4.43 0 004.43 4.43h746.33c2.45 0 4.43-1.984 4.43-4.43v-483.45c0-2.447-1.98-4.43-4.43-4.43z" fill="#000" baseline-shift="0" text-decoration="none solid #3d3d3d"/><path d="M1187.72 315.85H441.39a4.43 4.43 0 00-4.43 4.43v483.45a4.43 4.43 0 004.43 4.43h746.33c2.45 0 4.43-1.984 4.43-4.43V320.28c0-2.447-1.98-4.43-4.43-4.43z" fill="#fff" baseline-shift="0" text-decoration="none solid #3d3d3d"/><path d="M1182.22 809H446.89c-6 0-10.9-4.26-10.9-9.51v-475c0-5.25 4.89-9.51 10.9-9.51h735.33c6 0 10.9 4.26 10.9 9.51v475c0 5.25-4.88 9.51-10.9 9.51zM446.89 316.69c-4.95 0-9 3.5-9 7.82v475c0 4.32 4 7.82 9 7.82h735.33c5 0 9-3.5 9-7.82v-475c0-4.32-4-7.82-9-7.82H446.89z" class="change-color-in-svg" fill="#363062" baseline-shift="0" text-decoration="none solid #3d3d3d"/><path d="M1182.22 809H446.89c-6 0-10.9-4.26-10.9-9.51v-475c0-5.25 4.89-9.51 10.9-9.51h735.33c6 0 10.9 4.26 10.9 9.51v475c0 5.25-4.88 9.51-10.9 9.51zM446.89 316.69c-4.95 0-9 3.5-9 7.82v475c0 4.32 4 7.82 9 7.82h735.33c5 0 9-3.5 9-7.82v-475c0-4.32-4-7.82-9-7.82H446.89z" fill="#fff" baseline-shift="0" text-decoration="none solid #3d3d3d" opacity=".6"/><path d="M440.28 315.109h748.44c1.15 0 2.26.459 3.08 1.274a4.372 4.372 0 011.27 3.076v24.4H435.93v-24.4a4.35 4.35 0 014.35-4.35z" class="change-color-in-svg" fill="#363062" baseline-shift="0" text-decoration="none solid #3d3d3d"/><path d="M1135.51 334.7c2.88 0 5.22-2.337 5.22-5.22 0-2.883-2.34-5.22-5.22-5.22a5.222 5.222 0 00-5.22 5.22c0 2.883 2.34 5.22 5.22 5.22zm16.59 0c2.88 0 5.22-2.337 5.22-5.22 0-2.883-2.34-5.22-5.22-5.22a5.222 5.222 0 00-5.22 5.22c0 2.883 2.34 5.22 5.22 5.22zm16.6 0c2.88 0 5.22-2.337 5.22-5.22 0-2.883-2.34-5.22-5.22-5.22a5.222 5.222 0 00-5.22 5.22c0 2.883 2.34 5.22 5.22 5.22z" fill="#fff" baseline-shift="0" text-decoration="none solid #3d3d3d"/><path d="M584.13 321.41H468.26a3.2 3.2 0 00-2.87 1.78L454 346h144.3L587 323.19a3.196 3.196 0 00-2.87-1.78z" fill="#dadddf" baseline-shift="0" text-decoration="none solid #3d3d3d"/><path d="M1193.09 343.859H435.98v28.86h757.11v-28.86z" fill="#dadddf" baseline-shift="0" text-decoration="none solid #3d3d3d"/><path d="M524.59 350.62V366c0 .49.56.88 1.25.88h630.3c.69 0 1.25-.39 1.25-.88v-15.38c0-.48-.56-.88-1.25-.88h-630.3c-.69 0-1.25.4-1.25.88z" fill="#fff" baseline-shift="0" text-decoration="none solid #3d3d3d"/><path d="M1153 581h-82v64h82v-64zM973 431h-87v59h87v-59z" stroke="#b2b6bb" stroke-width="2" stroke-miterlimit="10" baseline-shift="0" text-decoration="none solid #3d3d3d"/><path d="M1182.29 353.34h-14.97v1.97h14.97v-1.97zm0 3.961h-14.97v1.97h14.97v-1.97zm0 3.969h-14.97v1.97h14.97v-1.97z" class="change-color-in-svg" fill="#363062" baseline-shift="0" text-decoration="none solid #3d3d3d"/><path opacity=".2" d="M1145.68 353.24l1.61 3.25 3.59.52c0 .009.01.02.01.03 0 .011-.01.021-.01.03l-2.6 2.53v.05l.61 3.58c0 .009.01.02.01.03 0 .011-.01.021-.01.03v0l-3.22-1.69h-.05l-3.21 1.69a.079.079 0 01-.04.013.079.079 0 01-.04-.013s0 0 0 0l.61-3.58v-.05l-2.6-2.53c-.01-.011-.02-.025-.02-.04s.01-.029.02-.04v0l3.59-.52 1.6-3.25a.077.077 0 01.04-.012c.01 0 .03.004.04.012l.07-.04z" stroke="#000" stroke-width=".8" stroke-miterlimit="10" baseline-shift="0" text-decoration="none solid #3d3d3d"/><path d="M480.78 358.829h-9.65a.611.611 0 01-.58-.63.597.597 0 01.176-.404.597.597 0 01.404-.176h9.65a.61.61 0 01.05 1.21h-.05z" class="change-color-in-svg" fill="#363062" baseline-shift="0" text-decoration="none solid #3d3d3d"/><path d="M476.91 363.209a.598.598 0 01-.61-.6.592.592 0 01.18-.43l3.86-3.87-3.91-3.91a.592.592 0 01-.134-.655.602.602 0 01.964-.195l4.77 4.76-4.69 4.69a.627.627 0 01-.43.21zm-18.26-4.379H449a.61.61 0 01-.595-.814.59.59 0 01.314-.341.579.579 0 01.231-.054h9.7a.59.59 0 01.63.58.603.603 0 01-.35.575.57.57 0 01-.23.054h-.05z" class="change-color-in-svg" fill="#363062" baseline-shift="0" text-decoration="none solid #3d3d3d"/><path d="M452.87 363.21a.587.587 0 01-.42-.17l-4.73-4.73 4.77-4.76a.612.612 0 01.86 0 .6.6 0 010 .83l-3.91 3.91 3.86 3.87a.604.604 0 010 .86.61.61 0 01-.43.17v.02zm50.21.79a4.841 4.841 0 01-3.777-7.869 4.837 4.837 0 015.897-1.321.612.612 0 01.28.81.588.588 0 01-.346.31.585.585 0 01-.464-.03 3.633 3.633 0 00-4.427.987 3.63 3.63 0 106.185 3.662c.181-.441.274-.912.272-1.389a.612.612 0 011.042-.431.61.61 0 01.178.431 4.848 4.848 0 01-4.84 4.84z" class="change-color-in-svg" fill="#363062" baseline-shift="0" text-decoration="none solid #3d3d3d"/><path d="M503.84 357.739a.611.611 0 01-.61-.6.623.623 0 01.39-.57l2.28-.88-.87-2.28a.614.614 0 01.028-.465.62.62 0 01.352-.305.61.61 0 01.75.34l1.31 3.41-3.41 1.31a.515.515 0 01-.22.04z" class="change-color-in-svg" fill="#363062" baseline-shift="0" text-decoration="none solid #3d3d3d"/><g opacity=".3" text-decoration="none solid #3d3d3d" fill="#000"><path d="M572.9 339.63a.696.696 0 01-.662-.422.69.69 0 01.162-.768l8.31-8.32a.708.708 0 011 0 .697.697 0 01.158.772.697.697 0 01-.158.228l-8.31 8.32a.702.702 0 01-.5.19z" baseline-shift="0" text-decoration="none solid #3d3d3d"/><path d="M581.219 339.631a.714.714 0 01-.5-.2l-8.32-8.31a.71.71 0 010-1 .695.695 0 01.5-.215.686.686 0 01.5.215l8.32 8.31a.708.708 0 01-.5 1.21v-.01z" baseline-shift="0" text-decoration="none solid #3d3d3d"/></g><path d="M998.5 667c63.24 0 114.5-51.263 114.5-114.5S1061.74 438 998.5 438C935.263 438 884 489.263 884 552.5S935.263 667 998.5 667z" class="change-color-in-svg" fill="#363062" baseline-shift="0" text-decoration="none solid #3d3d3d"/><path opacity=".8" d="M998.5 667c63.24 0 114.5-51.263 114.5-114.5S1061.74 438 998.5 438C935.263 438 884 489.263 884 552.5S935.263 667 998.5 667z" fill="#fff" baseline-shift="0" text-decoration="none solid #3d3d3d"/><path d="M998.5 668a115.5 115.5 0 1144.2-222.208 115.507 115.507 0 0151.83 42.54A115.434 115.434 0 011114 552.5 115.503 115.503 0 01998.5 668zm0-229a113.504 113.504 0 00-104.86 70.065 113.5 113.5 0 0082.717 154.754 113.47 113.47 0 0065.573-6.459 113.492 113.492 0 0050.94-41.803A113.514 113.514 0 001112 552.5c-.03-30.091-12-58.941-33.28-80.219A113.641 113.641 0 00998.5 439z" class="change-color-in-svg" fill="#363062" baseline-shift="0" text-decoration="none solid #3d3d3d"/><path d="M1301.4 779.789h-61a6.023 6.023 0 00-6.02 6.02v49.99c0 3.325 2.7 6.02 6.02 6.02h61c3.32 0 6.02-2.695 6.02-6.02v-49.99c0-3.325-2.7-6.02-6.02-6.02z" fill="#b2b6bb" baseline-shift="0" text-decoration="none solid #3d3d3d"/><path d="M1287.76 822.11h-33.71V799.5h33.71v22.61z" stroke="#fff" stroke-width="1.65" stroke-linecap="round" stroke-linejoin="round" baseline-shift="0" text-decoration="none solid #3d3d3d"/><path d="M1254.05 799.5l16.85 13.28 16.86-13.28" stroke="#fff" stroke-width="1.65" stroke-linecap="round" stroke-linejoin="round" baseline-shift="0" text-decoration="none solid #3d3d3d"/><path d="M374.7 396.721h-58.05a6.64 6.64 0 00-6.64 6.64v56.06a6.64 6.64 0 006.64 6.64h58.05a6.64 6.64 0 006.64-6.64v-56.06a6.64 6.64 0 00-6.64-6.64z" fill="#b2b6bb" baseline-shift="0" text-decoration="none solid #3d3d3d"/><path d="M331.85 417.13a20.157 20.157 0 00-4.364 21.969 20.154 20.154 0 0018.624 12.442 20.157 20.157 0 0018.624-12.442 20.152 20.152 0 00-4.364-21.969 20.239 20.239 0 00-28.52 0zm28.47 2.9h-6.43a39.98 39.98 0 00-2.5-6 18.201 18.201 0 018.93 6.06v-.06zm-21.62 10.18c.001-2.635.32-5.261.95-7.82h12.9a32.236 32.236 0 011 7.82H338.7zm14.73 2.36a38.357 38.357 0 01-1.38 7.82h-11.89a38.426 38.426 0 01-1.38-7.82h14.65zm-7.32-19.37c.951-.001 1.901.072 2.84.22a37.21 37.21 0 012.93 6.62h-11.55a37.354 37.354 0 012.93-6.62 18.137 18.137 0 012.85-.22zm-5.29.78a39.994 39.994 0 00-2.5 6.06h-6.43a18.206 18.206 0 018.93-6.06zm-10.53 8.42h7.36a34.865 34.865 0 00-1 7.81H328a18.01 18.01 0 012.34-7.82l-.05.01zm0 18a18.006 18.006 0 01-2.34-7.82h8.7a38.383 38.383 0 001.23 7.82h-7.59zm1.6 2.35h6.69a49.452 49.452 0 002.48 6.13 18.162 18.162 0 01-9.17-6.13zm14.21 6.84c-.795 0-1.59-.05-2.38-.15a54.3 54.3 0 01-2.82-6.69h10.41a55.834 55.834 0 01-2.82 6.69c-.789.102-1.584.149-2.38.14l-.01.01zm5-.71a47.913 47.913 0 002.49-6.13h6.69a18.254 18.254 0 01-9.18 6.13zm10.78-8.48h-7.59a37.669 37.669 0 001.22-7.82h8.7a17.987 17.987 0 01-2.33 7.81v.01zm2.34-10.18h-8.67a35.49 35.49 0 00-1-7.82h7.36a18.193 18.193 0 012.34 7.81l-.03.01z" fill="#fff" baseline-shift="0" text-decoration="none solid #3d3d3d"/><path d="M718 868.689h54.07a6.92 6.92 0 016.92 6.92v50.39a6.918 6.918 0 01-6.91 6.91h-51.86a9.116 9.116 0 01-9.12-9.12v-48.18a6.9 6.9 0 012.016-4.889 6.93 6.93 0 012.24-1.501 6.933 6.933 0 012.644-.53z" fill="#b2b6bb" baseline-shift="0" text-decoration="none solid #3d3d3d"/><path d="M759.71 907.621l-3.87-3.86a3.411 3.411 0 00-2.49-1.18 3.58 3.58 0 00-2.48 1.1l-2.21 2.21-.42-.2c-.23-.11-.46-.22-.69-.35a23.881 23.881 0 01-5.73-5.25 12.694 12.694 0 01-1.79-2.83c.55-.48 1-1 1.52-1.52l.62-.62a3.36 3.36 0 00.36-4.74 3.069 3.069 0 00-.36-.37l-1.94-1.93a8.288 8.288 0 01-.62-.69l-1.31-1.31a3.587 3.587 0 00-2.48-1.11 3.409 3.409 0 00-2.49 1.11l-2.42 2.41a5.562 5.562 0 00-1.58 3.39 12.54 12.54 0 00.9 5.24 28.278 28.278 0 005.38 9 33.705 33.705 0 0011 8.63 18.086 18.086 0 006.21 1.86h.49a5.483 5.483 0 004.14-1.79l.07-.07c.378-.448.793-.863 1.24-1.24l.9-.9a3.467 3.467 0 001.083-2.423 3.455 3.455 0 00-.953-2.477l-.08-.09zm-1.59 3.59l-.83.83c-.49.42-.9.9-1.38 1.38a3.283 3.283 0 01-2.49 1h-.34a14.616 14.616 0 01-5.39-1.66 31.407 31.407 0 01-10.29-8.08 30.294 30.294 0 01-5-8.35 8.555 8.555 0 01-.82-4.28 2.894 2.894 0 011-2l2.35-2.35a1.447 1.447 0 011-.48 1.296 1.296 0 011 .48l1.07 1.3c.216.247.45.478.7.69l1.93 1.94c.278.262.449.619.48 1a1.45 1.45 0 01-.139.548 1.45 1.45 0 01-.341.452l-.62.62-1.73 1.73-.07.07a1.515 1.515 0 00-.41 1.72v.07a15.71 15.71 0 002.28 3.73 25.595 25.595 0 006.28 5.73c.284.189.585.35.9.48.238.1.469.217.69.35l.07.07a1.594 1.594 0 001.93-.35l2.42-2.41a1.15 1.15 0 011.183-.46c.146.032.285.093.407.18.108.074.2.17.27.28l3.87 3.86a1.306 1.306 0 01.16 1.84c-.03-.03-.09.02-.14.07z" fill="#fff" baseline-shift="0" text-decoration="none solid #3d3d3d"/><path d="M787.37 204.85h55.31a7.077 7.077 0 016.541 4.37c.356.859.539 1.78.539 2.71v51.58a7.077 7.077 0 01-2.078 4.999 7.076 7.076 0 01-5.002 2.071h-53a9.329 9.329 0 01-8.62-5.76 9.326 9.326 0 01-.71-3.57v-49.32a7.08 7.08 0 017.02-7.08z" fill="#b2b6bb" baseline-shift="0" text-decoration="none solid #3d3d3d"/><path d="M823.46 231.921a8.445 8.445 0 00-5.205-7.806 8.445 8.445 0 00-9.203 1.828 8.434 8.434 0 00-2.31 4.324 8.432 8.432 0 003.595 8.665 8.44 8.44 0 004.693 1.419 8.43 8.43 0 008.43-8.43zm-14.76 0a6.332 6.332 0 017.559-6.22 6.334 6.334 0 014.979 4.971 6.33 6.33 0 01-6.208 7.569 6.31 6.31 0 01-4.475-1.848 6.318 6.318 0 01-1.855-4.472z" fill="#fff" baseline-shift="0" text-decoration="none solid #3d3d3d"/><path d="M814.18 256.791a1.04 1.04 0 00.687.42 1.054 1.054 0 00.783-.19c.086-.067.164-.144.23-.23l1.1-1.54 6.22-9.62c2.89-4.93 5.53-10.36 5.53-13.71a13.699 13.699 0 10-27.4 0c0 3.26 2.5 8.47 5.28 13.28l6.48 10.06c.6.86 1 1.41 1.09 1.53zm.85-36.47a11.599 11.599 0 0111.6 11.6c0 5.05-7.71 17-11.6 22.44-3.89-5.48-11.6-17.4-11.6-22.44a11.598 11.598 0 0111.57-11.6h.03z" fill="#fff" baseline-shift="0" text-decoration="none solid #3d3d3d"/><path d="M506 929.43a12.566 12.566 0 018.11 5.63 22.243 22.243 0 013.23 9.52c.84 6.5-1.19 13.76-3.82 19.75-6.46-3.33-9.67-11.13-11-15.19-2.18-6.42-2.23-19.34 3.53-19.71M523.19 974a10.748 10.748 0 01-.2-10.8 14.228 14.228 0 018.78-6.67c1.69-.47 3.63-.63 5.06.38a4.587 4.587 0 011.65 4.36 9.368 9.368 0 01-2.09 4.37c-3.45 4.41-7.6 8.05-13.2 8.36m-12.83 3a25.193 25.193 0 00-17.74-14.62c-2-.41-4.45-.4-5.58 1.28-1.13 1.68-.23 4 .94 5.65a21.5 21.5 0 0022.38 8.24" class="change-color-in-svg" fill="#363062" baseline-shift="0" text-decoration="none solid #3d3d3d"/><path d="M507.57 939.381a594.314 594.314 0 013.83 13.81c1.23 4.62 2.37 9.26 3.53 13.89 1.16 4.63 2.22 9.3 3.24 14 1.02 4.7 2 9.35 2.84 14.05l-6.83-27.83-3.35-13.92a1123.01 1123.01 0 01-3.26-14zm14.03 54.789a43.76 43.76 0 01-.66-8.71 40.596 40.596 0 011.08-8.72 23.496 23.496 0 013.58-8 16.406 16.406 0 013-3.2 15.672 15.672 0 013.83-2.14 16.405 16.405 0 00-6.38 5.68 24.54 24.54 0 00-3.31 7.88 44.012 44.012 0 00-1.24 8.55 68.003 68.003 0 00.1 8.66zm-1.51.32a67.839 67.839 0 00-3.48-8 43.604 43.604 0 00-4.61-7.3 24.317 24.317 0 00-6.24-5.86 16.43 16.43 0 00-8.13-2.59 15.558 15.558 0 014.36.4c1.428.377 2.8.942 4.08 1.68a23.869 23.869 0 016.54 5.89 39.887 39.887 0 014.53 7.52 44.338 44.338 0 012.95 8.26z" fill="#21252b" baseline-shift="0" text-decoration="none solid #3d3d3d"/><path d="M1182 929.43c-1.66.34-3.24 1.015-4.63 1.982-1.4.968-2.58 2.209-3.48 3.648a22.288 22.288 0 00-3.24 9.52c-.83 6.5 1.19 13.76 3.82 19.75 6.46-3.33 9.67-11.13 11-15.19 2.18-6.42 2.23-19.34-3.53-19.71M1164.85 974a10.834 10.834 0 001.56-5.372c.03-1.896-.43-3.769-1.35-5.428a14.292 14.292 0 00-3.73-4.218 14.217 14.217 0 00-5.06-2.452c-1.68-.47-3.63-.63-5 .38a4.591 4.591 0 00-1.43 1.953 4.592 4.592 0 00-.23 2.407 9.33 9.33 0 002.09 4.37c3.46 4.41 7.6 8.05 13.2 8.36m12.79 3a25.178 25.178 0 0117.73-14.62c2-.41 4.45-.4 5.59 1.28 1.14 1.68.22 4-.94 5.65a21.51 21.51 0 01-9.94 7.506 21.529 21.529 0 01-12.44.734" class="change-color-in-svg" fill="#363062" baseline-shift="0" text-decoration="none solid #3d3d3d"/><path d="M1180.47 939.381a614.887 614.887 0 00-3.83 13.81c-1.22 4.62-2.37 9.26-3.53 13.89-1.16 4.63-2.21 9.3-3.23 14-1.02 4.7-2 9.35-2.84 14.05l6.82-27.83 3.36-13.92c1.11-4.673 2.19-9.34 3.25-14zm-14.03 54.789c.51-2.874.73-5.792.66-8.71a40.659 40.659 0 00-1.08-8.72 23.794 23.794 0 00-3.58-8 16.486 16.486 0 00-3-3.2 15.69 15.69 0 00-3.83-2.14 16.296 16.296 0 016.37 5.68 24.606 24.606 0 013.32 7.88c.69 2.804 1.1 5.667 1.24 8.55.15 2.886.12 5.779-.1 8.66zm1.56.32a68.34 68.34 0 013.48-8 44.625 44.625 0 014.61-7.3 24.435 24.435 0 016.24-5.86 16.48 16.48 0 018.13-2.59c-1.46-.072-2.93.062-4.36.4-1.43.377-2.8.942-4.08 1.68a23.829 23.829 0 00-6.53 5.89 39.538 39.538 0 00-4.54 7.52 44.72 44.72 0 00-2.95 8.26zm-124.73-40.489c-.7 2.171-.97 4.455-.81 6.73l-.07 19a19.239 19.239 0 002.71 9.37l.36.66a5.399 5.399 0 004.69 2.71h5.41a5.427 5.427 0 005.27-4.1c.72-2.802.82-5.727.29-8.57l-4.61-20.34c-.3-1.9-.87-3.747-1.68-5.49h-11.56v.03z" fill="#21252b" baseline-shift="0" text-decoration="none solid #3d3d3d"/><path d="M965.47 909.459l-3.36 36.22c-.22 4.25-1.32 6.88-2.57 8.64l-13.17 26.78 3.66 5 14.35-7.1 12.73-23.06a73.588 73.588 0 011.1-11.56l3.79-39.09-16.53 4.17z" fill="#fc9d9d" baseline-shift="0" text-decoration="none solid #3d3d3d"/><path opacity=".15" d="M961.74 957.831a34.079 34.079 0 003.73-9.59l4.39-13.46a2.211 2.211 0 011.83-1.83l8.71-1.17.15-1.9h-17l-1.47 15.8c-.29 2.71-1 6.3-2.56 8.64l-13.15 26.78 2.27 3.73 13.1-27z" fill="#000" baseline-shift="0" text-decoration="none solid #3d3d3d"/><path d="M938.83 985.72l7.54-4.54a15.6 15.6 0 007.964-.789 15.6 15.6 0 006.526-4.631L977.18 956a36.184 36.184 0 013 20.2l-2.34 16.39h-1.9l-.51-16.83a1.323 1.323 0 00-.9-1.21 1.475 1.475 0 00-.78 0 1.359 1.359 0 00-.66.44l-10 12.14a15.055 15.055 0 01-11.56 5.49h-15.48a1.604 1.604 0 01-.8-.19 1.706 1.706 0 01-.61-.55 1.657 1.657 0 01-.12-1.6 8.143 8.143 0 014.31-4.56z" fill="#21252b" baseline-shift="0" text-decoration="none solid #3d3d3d"/><path d="M1042.46 945.459c.81 6.826 1.14 13.699 1 20.57l-.15 8.2a6.64 6.64 0 002.04 4.56 6.667 6.667 0 004.62 1.88h1.17c.87.006 1.73-.161 2.54-.488a6.642 6.642 0 003.6-3.561c.34-.802.52-1.661.52-2.531 0-.334-.02-.668-.07-1l-1.9-9.73a60.37 60.37 0 01-1-15l1.83-33.08-17.05.29 2.85 29.89z" fill="#fc9d9d" baseline-shift="0" text-decoration="none solid #3d3d3d"/><path opacity=".15" d="M1041.07 929.881s2 21.22 2.2 24.07v.05c.22 4 .37 8 .29 12l-.14 8.2a6.69 6.69 0 006.37 6.44c-3.15-2.42-2.86-6.37-2.93-9.3l-.51-35.93c-.01-.574.19-1.131.56-1.572.36-.442.88-.739 1.44-.838l7.61-1.39.04-1.61-14.93-.12z" fill="#000" baseline-shift="0" text-decoration="none solid #3d3d3d"/><path d="M1040.8 673.799l1.2 4.64a289.151 289.151 0 018.18 47.19l.22 2.46c1.25 14.06 2 28.12 2.42 42.26l6.1 169.56h-19.06l-34.14-225.91a3.062 3.062 0 00-1-1.88 2.997 2.997 0 00-2-.73 3.002 3.002 0 00-2.08.81 2.993 2.993 0 00-1 2l-18 225.57-20.64-.09-3.81-162.79c-1-48 5.08-98.92 5.15-98.53l1-4.82 77.46.26z" class="change-color-in-svg" fill="#363062" baseline-shift="0" text-decoration="none solid #3d3d3d"/><path d="M982.98 935.85h-22.53v4.17h22.53v-4.17z" class="change-color-in-svg" fill="#363062" baseline-shift="0" text-decoration="none solid #3d3d3d"/><path opacity=".2" d="M982.98 935.85h-22.53v4.17h22.53v-4.17z" fill="#000" baseline-shift="0" text-decoration="none solid #3d3d3d"/><path d="M1059.75 935.85h-20.86v4.17h20.86v-4.17z" class="change-color-in-svg" fill="#363062" baseline-shift="0" text-decoration="none solid #3d3d3d"/><path opacity=".2" d="M1059.75 935.85h-20.86v4.17h20.86v-4.17zm-57.23-224.51c-.77.009-1.52.289-2.11.79a2.797 2.797 0 00-.94 2l-17.81 225.7h-6.8l13.28-212.7c1.41-14.03 5.63-15.79 14.38-15.79z" fill="#000" baseline-shift="0" text-decoration="none solid #3d3d3d"/><path d="M1029.54 480.92s20.12-10.82 17 58.83v7.92H1021l.13-56.17c0-2.453.84-4.833 2.36-6.754a10.9 10.9 0 016.05-3.826z" fill="#000" baseline-shift="0" text-decoration="none solid #3d3d3d"/><path opacity=".2" d="M1058.84 939.999c-3.37-59.15-1.64-205.19-17-263.64-.06.45-9.78-.13-9.68.23.27 1.08.53 2.17.79 3.25l-5.43.06-2.76 5.56-1.16-2.48c-.1-.25-.29-.453-.53-.562a1.011 1.011 0 00-1.36 1.282c.52 2.66 2.21 9.27 15.56 16.79v-.32c11.4 63.7 8.58 142.93 13.62 239.83h7.95z" fill="#000" baseline-shift="0" text-decoration="none solid #3d3d3d"/><path d="M1028.05 682.15l-2.76 5.05s7 7.45 13.4 11.17a24.862 24.862 0 002-11l-12.64-5.22zM954.3 599.9c-12 13.55-23.3 30.35-38 8.69l-26.44-55.87 11-6.71 29.49 44.54 7.55-11" fill="#fc9d9d" baseline-shift="0" text-decoration="none solid #3d3d3d"/><path d="M954.3 599.901c3.44-4.81 6.53-9.54 9.19-12.85l-3.76-39.25-21.73 31.75 16.3 20.35z" fill="#21252b" baseline-shift="0" text-decoration="none solid #3d3d3d"/><path d="M937.95 579.55l2.32-3.39 16.71 19.92-2.68 3.82-16.35-20.35z" fill="#fff" baseline-shift="0" text-decoration="none solid #3d3d3d"/><path d="M1041.53 676.73c.21-.002.42-.045.62-.128.2-.082.37-.203.52-.354a1.613 1.613 0 00.47-1.148c.01-.06.01-.12 0-.18-.7-5.93-2.92-21.82-3.75-29.3-3.22-29.08 5.88-63.63 5.88-63.63l14.6-17.21c.54-9.35-5.6-18.12-14.51-20.28l-24.82-5.9h-35.89l-18.09 4.4c-9.42 3-11 11.24-10.92 21.13l.37 7.19-3.94 13.57c-2.27 8.74.68 13.84 6.73 20.91 1.9 2.2 2.9 3.12 3.67 7.4 0 0 .62 13.93 1.28 19.66 1.5 12.5-1.81 30.21-2.56 42.68a1.623 1.623 0 001.52 1.71h.12l78.7-.52z" fill="#21252b" baseline-shift="0" text-decoration="none solid #3d3d3d"/><path opacity=".3" d="M1020 554.84s-2-6.54-5.46-7.26a80.944 80.944 0 00-12.54 7.74l-2.26 1.68s-3.6-7.27-10.43-9.45a16.827 16.827 0 00-6 6.52l.52-10.15 33.51-.77s4.06 8.78 2.66 11.69z" fill="#000" baseline-shift="0" text-decoration="none solid #3d3d3d"/><path d="M1017.58 534.841l1.37 1.3s5.27 8.53 2.21 18.18l-1 .52-.09-.83a10.08 10.08 0 00-1.69-4.762 10.148 10.148 0 00-3.76-3.368 42.772 42.772 0 00-14.88 10.12s-3.62-7.87-9.91-10c0 0-4.6.78-6.12 8.06l-.93-.18s-2.16-10.77 2.69-16.91l3-2.78a4.996 4.996 0 012.69-.8h23a5.08 5.08 0 013.42 1.45z" fill="#fff" baseline-shift="0" text-decoration="none solid #3d3d3d"/><path d="M1016.33 508.05l.71 26.21c0 1-13.2 15.59-16.88 16.44-4.52-.85-10.51-15.15-10.41-16.1l3.43-31.1 23.15 4.55z" fill="#fc9d9d" baseline-shift="0" text-decoration="none solid #3d3d3d"/><path opacity=".2" d="M991 525.519c4.72 3.07 12.36 1.79 17.89-.91.85 1.91-5.65 3.73-7.25 4a13.213 13.213 0 01-11.26 2.48l.62-5.57z" fill="#000" baseline-shift="0" text-decoration="none solid #3d3d3d"/><path d="M1027.09 494.731c3.4 0 6.16-3.676 6.16-8.21 0-4.535-2.76-8.21-6.16-8.21-3.4 0-6.16 3.675-6.16 8.21 0 4.534 2.76 8.21 6.16 8.21z" class="change-color-in-svg" fill="#363062" baseline-shift="0" text-decoration="none solid #3d3d3d"/><path d="M998.12 527.38h1.23c4.27.179 8.43-1.342 11.58-4.228a16.13 16.13 0 005.22-11.172l1-22.65a5.373 5.373 0 00-1.41-3.873 5.37 5.37 0 00-3.73-1.747l-21.09-.91a7 7 0 00-5 1.84 6.852 6.852 0 00-1.6 2.2 6.972 6.972 0 00-.65 2.65l-.91 21a16.162 16.162 0 0015.4 16.8l-.04.09z" fill="#fc9d9d" baseline-shift="0" text-decoration="none solid #3d3d3d"/><path d="M1030.54 491.27c.31 9.78-7.55 20.9-12.8 25.06-.48.38-1.11.33-1.13-.28l-.5-13c-5.41 8.81-3.43-7-3.23-10.64a11.335 11.335 0 01-4.82-2.273 11.383 11.383 0 01-3.27-4.217c-4.71 5.06-12.15 6.14-18.72 5.2a1.916 1.916 0 00-.726-.13 1.908 1.908 0 00-1.326.579c-.172.179-.307.39-.398.621v.08c-.17.07-.46 9.87-.52 10.35-4.81-4.84-8.6-15-2.23-20.07 3.48-1.71 3.44-5.07 5.86-7.83 11.93-18.31 47-5.27 43.86 16.58" fill="#000" baseline-shift="0" text-decoration="none solid #3d3d3d"/><path d="M1015 512.9s7.61 1.26 9.88-6.21c2.27-7.47-7-9.66-9-2.13l-1.74 8.26.86.08z" fill="#fc9d9d" baseline-shift="0" text-decoration="none solid #3d3d3d"/><path opacity=".2" d="M1022.82 502.48a2.98 2.98 0 00-2.27-.8 2.934 2.934 0 00-1.98 1.32 5.963 5.963 0 00-1.12 2.89l-.11.79c-.09.61.94.88 1 .17l.13-.88c.11-.853.41-1.67.88-2.39.14-.236.33-.44.55-.6.23-.158.48-.27.75-.33.28-.013.56.034.82.138.27.103.5.261.7.462.05.042.11.072.17.09a.45.45 0 00.2 0 .447.447 0 00.33-.18.573.573 0 00.1-.17.67.67 0 000-.2.605.605 0 000-.19.788.788 0 00-.13-.15l-.02.03z" fill="#000" baseline-shift="0" text-decoration="none solid #3d3d3d"/><path d="M1017.25 511.9c.3.002.6-.086.86-.254.25-.168.45-.408.57-.689.12-.282.15-.592.09-.891-.06-.299-.2-.575-.42-.791a1.522 1.522 0 00-.79-.424 1.54 1.54 0 00-1.84 1.509c0 .202.04.402.11.589.08.187.19.356.33.5.15.143.32.256.5.334.19.077.39.117.59.117z" class="change-color-in-svg" fill="#363062" baseline-shift="0" text-decoration="none solid #3d3d3d"/><path opacity=".15" d="M1016.63 511.61c.22.017.44-.008.65-.075.2-.068.4-.176.56-.318.17-.142.31-.316.41-.511.09-.195.15-.408.17-.626.02-.312-.05-.622-.19-.9.25.21.42.488.51.8.08.316.06.648-.07.95-.12.302-.33.558-.61.73-.27.171-.59.252-.91.231a1.527 1.527 0 01-.87-.351c.11.038.23.062.35.07z" fill="#000" baseline-shift="0" text-decoration="none solid #3d3d3d"/><path opacity=".3" d="M1016.46 513h-2.47l2.61 5.27-.14-5.27z" fill="#000" baseline-shift="0" text-decoration="none solid #3d3d3d"/><path opacity=".15" d="M954.54 600.28c-3.26 3.56-9.85 10.85-14.3 14.2 0 0-9.23 10.26-19.83-.76 6.93 7.2 16.24-.3 22.56-10.26 3.81-7 .65-7.5 2.5-14.54l9.07 11.36zm-23.83-9.5l2.89 2.69a.587.587 0 00.963.232.592.592 0 00.177-.342l-2-5.29-2.03 2.71z" fill="#000" baseline-shift="0" text-decoration="none solid #3d3d3d"/><path opacity=".4" d="M1028.35 665.66c0 4.62 0 11.43.1 16.29l13.5-.13c.33-.003.64-.136.88-.37.23-.234.36-.55.36-.88v-.14c-.64-5.41-2.64-27.19-3.8-34.81-2.72-17.81 2.41-47.56 2.41-47.56l-2.22-14.29a1.64 1.64 0 00-.65-1.065 1.625 1.625 0 00-1.21-.295h-.16a1.6 1.6 0 00-.72.402c-.2.195-.35.439-.43.708-1.12 3.84-5.53 19.32-6.15 28.34-.52 7.56-1.09 16.13-1.46 27.17l-.45 26.63z" fill="#000" baseline-shift="0" text-decoration="none solid #3d3d3d"/><path d="M1064.43 599.061l3.29 26.13c.25 2.324-.09 4.675-1 6.83l-27 58.37-13.34-3.08 19.16-61.08-3.11-23" fill="#fc9d9d" baseline-shift="0" text-decoration="none solid #3d3d3d"/><path d="M1042.46 603.19l-1.06-7.84 1.79-11.84c-.32-11.17 4.4-18 10.17-27.61l6.4 6.07 4.67 37.09-21.97 4.13z" fill="#21252b" baseline-shift="0" text-decoration="none solid #3d3d3d"/><path d="M1042.46 603.19l-.63-4.67 22.04-3.94.56 4.48-21.97 4.13z" fill="#fff" baseline-shift="0" text-decoration="none solid #3d3d3d"/><path d="M1000.54 501.001c.35.01.7.125.99.33.29.206.51.492.63.823.13.332.15.693.07 1.038-.08.345-.26.659-.51.902-.26.243-.59.403-.94.462a1.794 1.794 0 01-2.08-1.825 1.79 1.79 0 011.84-1.73z" fill="#000" baseline-shift="0" text-decoration="none solid #3d3d3d"/><path d="M999.69 502.65a.33.33 0 100-.66.33.33 0 000 .66z" fill="#fff" baseline-shift="0" text-decoration="none solid #3d3d3d"/><path d="M986.58 504.641a1.79 1.79 0 100-3.58 1.79 1.79 0 000 3.58z" fill="#000" baseline-shift="0" text-decoration="none solid #3d3d3d"/><path d="M985.89 503.12a.32.32 0 100-.64.32.32 0 000 .64z" fill="#fff" baseline-shift="0" text-decoration="none solid #3d3d3d"/><path opacity=".2" d="M992.58 512.889l2.27.15a.53.53 0 00.12-1l-2.27-.16c-.57-.1-1-.6-.94-1.09a1.008 1.008 0 01.349-.695 1.011 1.011 0 01.741-.235.68.68 0 00.359-.15.682.682 0 00.221-.32c.09-.24-.22-.5-.46-.59a2.143 2.143 0 00-2.26 1.88 2.013 2.013 0 00.418 1.505 2.005 2.005 0 001.372.745l.08-.04z" fill="#000" baseline-shift="0" text-decoration="none solid #3d3d3d"/><path d="M998.5 515.561c.25 0 .34.18.3.39a4.205 4.205 0 01-3.629 3.137 4.219 4.219 0 01-2.465-.49 4.218 4.218 0 01-1.746-1.807.306.306 0 01.036-.344.287.287 0 01.094-.076h.08l7.33-.81z" fill="#fff" baseline-shift="0" text-decoration="none solid #3d3d3d"/><path d="M979.87 501.201l.08 1.9a6.477 6.477 0 006.67 6.119 6.481 6.481 0 006.28-6.519l-.08-1.89a2.117 2.117 0 00-.53-1.5l2.53-.08a1.995 1.995 0 00-.46 1.5l.07 1.89a6.499 6.499 0 006.5 6.5c1.72 0 3.38-.685 4.6-1.904a6.534 6.534 0 001.9-4.596v-.39l-.08-1.89a2.407 2.407 0 00-.74-1.69 2.411 2.411 0 00-1.71-.68l-8.12.24h-.08l-6.28.16h-1l-7.2.23a2.56 2.56 0 00-2.35 2.6zm16.7-2l8.2-.23a1.46 1.46 0 011.46 1.42l.07 1.89c.09.75.03 1.511-.19 2.235a5.673 5.673 0 01-1.06 1.975 5.556 5.556 0 01-3.94 1.962 5.519 5.519 0 01-5.81-5.582 2.18 2.18 0 010-.28l-.08-1.89a1.675 1.675 0 011.38-1.5h-.03zm-15.78 2a1.469 1.469 0 011.38-1.5l7.2-.23h1a1.447 1.447 0 011.45 1.42l.08 1.89a5.523 5.523 0 01-7.403 5.834 5.522 5.522 0 01-3.597-5.244 2.18 2.18 0 010-.28l-.11-1.89z" fill="#000" baseline-shift="0" text-decoration="none solid #3d3d3d"/><path d="M1015.44 498.854l-8.25.892.12 1.084 8.25-.892-.12-1.084z" fill="#000" baseline-shift="0" text-decoration="none solid #3d3d3d"/><path d="M900.35 554.64s3.86-13.89 3.38-16.55L899 522.62s-1.24-.58-1.92 2.32a9 9 0 00.71 5.6l-.63 3.75-2.34-2.43-3.83-10s-2.25-6.63-3.62-6.28c-2.42.63-1 3.2.12 6.33S890 529 890 529s.36 1.25-1.19-.69c-1.55-1.94-4.36-10.74-5-11.88-.64-1.14-1.38-4.32-3.19-3.85-1.81.47-.05 4.41-.05 4.41l4 13s-2.61-5.07-3.09-5.93c-.48-.86-1.48-3.7-2.35-5.19-.87-1.49-2-2.17-2.76-1.93a1.533 1.533 0 00-1.18 1.76l4.61 10.94s2.37 4.94 2.32 5.29c-.05.35-2.37-1.83-2.37-1.83l-2.08-3.45s-2.08-5-3.51-5c-1.43 0-1.31 1.16-1.31 1.16l3.89 9.18 6 10.14 7.25 7.72s2.81 5.9 3.07 6.15c.26.25 7.29-4.36 7.29-4.36z" fill="#fc9d9d" baseline-shift="0" text-decoration="none solid #3d3d3d"/><path d="M894.13 544.76a.32.32 0 01-.3-.22c-1.43-4.8 1.39-10.12 1.51-10.35a.311.311 0 01.576.188.283.283 0 01-.036.112s-2.82 5.32-1.46 9.87a.303.303 0 01-.019.236.304.304 0 01-.181.154h-.09v.01z" fill="#000" baseline-shift="0" text-decoration="none solid #3d3d3d" opacity=".2"/><path opacity=".4" d="M954.54 600.28c.68-.74.07-.16.07-.16-7.19-9.24-1-18.47 4-36 1.08-3.75-8.149 13.7-8.409 13.39l-1.071 2.38a48.621 48.621 0 00-3.65 9l9.06 11.39z" fill="#000" baseline-shift="0" text-decoration="none solid #3d3d3d"/><path d="M527.63 468.779h-9.85v49.45h9.85v-49.45zm10.201 0h-9.851v49.45h9.851v-49.45z" class="change-color-in-svg" fill="#363062" baseline-shift="0" text-decoration="none solid #3d3d3d"/><path opacity=".2" d="M537.831 468.779h-9.851v49.45h9.851v-49.45z" fill="#000" baseline-shift="0" text-decoration="none solid #3d3d3d"/><path d="M756.95 519.939H568.93v5.76h188.02v-5.76zM599 665.381h-79.85a1.71 1.71 0 00-1.71 1.71v19.48c0 .944.766 1.71 1.71 1.71H599a1.71 1.71 0 001.71-1.71v-19.48a1.71 1.71 0 00-1.71-1.71z" class="change-color-in-svg" fill="#363062" baseline-shift="0" text-decoration="none solid #3d3d3d"/><path d="M757.9 549.131H517.78v5.79H757.9v-5.79zm0 17.279H517.78v5.79H757.9v-5.79zm0 17.27H517.78v5.79H757.9v-5.79zm0 17.281H517.78v5.79H757.9v-5.79zm0 17.269H517.78v5.791H757.9v-5.791zm-111.49 17.28H517.78v5.79h128.63v-5.79z" fill="#b2b6bb" baseline-shift="0" text-decoration="none solid #3d3d3d"/><path d="M554.24 481.76h4l8.9 23.39h-4.68l-2.18-5.83h-8.17l-2.11 5.83h-4.68l8.92-23.39zm5.24 14.37l-3.23-9.2-3.36 9.2h6.59zm29.101 2.99a5.271 5.271 0 01-2.231 4.48 7.492 7.492 0 01-2.399 1.16c-.95.27-1.933.401-2.92.39H569.73v-23.39h12.52a4.6 4.6 0 012.211.53 5.667 5.667 0 011.68 1.36 6.442 6.442 0 011.07 1.91c.246.694.374 1.424.38 2.16a6.326 6.326 0 01-.861 3.21 5.165 5.165 0 01-2.5 2.23 5.998 5.998 0 013.18 2.12 6.173 6.173 0 011.171 3.84zm-14.3-13.47v5.9h6.06a2.726 2.726 0 002-.8c.276-.286.491-.627.631-1 .139-.374.2-.772.179-1.17a3.003 3.003 0 00-.741-2.14 2.381 2.381 0 00-1.829-.79h-6.3zM584 498.27a3.36 3.36 0 00-.219-1.21 3.57 3.57 0 00-.57-1 2.86 2.86 0 00-.861-.68 2.374 2.374 0 00-1.079-.24h-7v6.16H581a3.123 3.123 0 001.17-.23c.354-.151.674-.372.94-.65a3.119 3.119 0 00.851-2.15H584zm18.12 7.051a10.635 10.635 0 01-4.67-1 11.348 11.348 0 01-3.59-2.67 12.342 12.342 0 01-3.14-8.18 11.625 11.625 0 01.87-4.48 12.315 12.315 0 012.4-3.79 11.344 11.344 0 013.64-2.62 10.671 10.671 0 014.58-1 10.153 10.153 0 014.63 1 11.451 11.451 0 013.58 2.71 12.46 12.46 0 012.3 3.83c.539 1.384.82 2.855.83 4.34a12.153 12.153 0 01-3.23 8.23 11.53 11.53 0 01-3.62 2.6 11.003 11.003 0 01-4.58 1.03zm-6.79-11.86a9.435 9.435 0 00.46 2.93 7.815 7.815 0 001.33 2.5 6.745 6.745 0 002.15 1.75 6.385 6.385 0 004.296.523 6.386 6.386 0 003.644-2.333 8.1 8.1 0 001.31-2.52c.62-1.881.62-3.91 0-5.79a8.299 8.299 0 00-1.35-2.5 6.538 6.538 0 00-2.14-1.73 6.398 6.398 0 00-7.93 1.81 7.889 7.889 0 00-1.3 2.51 9.47 9.47 0 00-.44 2.85h-.03zm31.6 7.839a5.276 5.276 0 002.72-.66 5.399 5.399 0 001.78-1.71 7.38 7.38 0 001-2.43c.188-.925.282-1.866.28-2.81v-11.93h4.52v11.93a17.29 17.29 0 01-.58 4.52 10.524 10.524 0 01-1.81 3.69 8.733 8.733 0 01-3.18 2.5 10.782 10.782 0 01-4.65.92 10.57 10.57 0 01-4.76-1 8.924 8.924 0 01-3.18-2.57 10.165 10.165 0 01-1.76-3.71 17.446 17.446 0 01-.55-4.38v-11.9h4.55v11.93a14.36 14.36 0 00.28 2.85 7.034 7.034 0 001 2.42c.44.7 1.044 1.284 1.76 1.7a5.177 5.177 0 002.58.64zm32.32-15.55h-7.48v19.4h-4.51v-19.4h-7.48v-4h19.47v4z" fill="#21252b" baseline-shift="0" text-decoration="none solid #3d3d3d"/></svg>