<svg class="gridItem__media" version="1.1" id="Layer_1" xmlns="http://www.w3.org/2000/svg" x="0px" y="0px"
  style="baseline-shift: 0px; clip-rule: nonzero; color: rgb(61, 61, 61); color-interpolation: srgb; color-interpolation-filters: linearrgb; color-rendering: auto; cursor: auto; direction: ltr; display: block; fill: none; fill-opacity: 1; fill-rule: nonzero; font: 400 16px / 18.4px Lato, sans-serif; image-rendering: auto; letter-spacing: normal; marker: none; overflow: hidden; paint-order: normal; pointer-events: auto; shape-rendering: auto; stroke: none; stroke-dasharray: none; stroke-dashoffset: 0px; stroke-linecap: butt; stroke-linejoin: miter; stroke-miterlimit: 4; stroke-opacity: 1; stroke-width: 1px; text-anchor: start; text-decoration: none solid rgb(61, 61, 61); text-rendering: auto; visibility: visible; word-spacing: 0px; writing-mode: horizontal-tb;"
  fill="none" xmlns:xlink="http://www.w3.org/1999/xlink" viewBox="220.36 179.31 1158.45 817.07">
  <path
    d="M221.75 590.899L314 993.999H1281.4L1364 660.699C1364.9 653.47 1364.39 646.135 1362.5 639.099L1273.9 318.699C1271.05 308.425 1265.28 299.197 1257.3 292.133C1249.31 285.069 1239.45 280.472 1228.9 278.899L554.3 179.899C544.724 178.48 534.944 179.62 525.952 183.203C516.96 186.786 509.075 192.684 503.1 200.299L232.15 544.599C227.07 551.051 223.499 558.558 221.699 566.57C219.9 574.582 219.917 582.895 221.75 590.899V590.899Z"
    fill="#F4F4F4"
    style="baseline-shift: 0px; fill: rgb(244, 244, 244); paint-order: normal; text-decoration: none solid rgb(61, 61, 61);">
  </path>
  <path opacity="0.1" d="M541.57 856.829V873.989H261.98V686.779H280.64" fill="black"
    style="baseline-shift: 0px; fill: rgb(0, 0, 0); opacity: 0.1; paint-order: normal; text-decoration: none solid rgb(61, 61, 61);">
  </path>
  <path d="M561.1 668.689H281.5V855.899H561.1V668.689Z" fill="white"
    style="baseline-shift: 0px; fill: rgb(255, 255, 255); paint-order: normal; text-decoration: none solid rgb(61, 61, 61);">
  </path>
  <path
    d="M292.53 677C292.53 677.443 292.398 677.876 292.152 678.244C291.906 678.613 291.556 678.9 291.147 679.069C290.738 679.239 290.287 679.283 289.853 679.197C289.418 679.11 289.019 678.897 288.706 678.584C288.393 678.27 288.179 677.871 288.093 677.437C288.006 677.002 288.051 676.552 288.22 676.143C288.39 675.733 288.677 675.383 289.045 675.137C289.414 674.891 289.847 674.76 290.29 674.76C290.884 674.76 291.454 674.996 291.874 675.416C292.294 675.836 292.53 676.406 292.53 677Z"
    class="change-color-in-svg" fill="#4D61FC"
    style="fill: rgb(54, 48, 98); baseline-shift: 0px; paint-order: normal; text-decoration: none solid rgb(61, 61, 61);">
  </path>
  <path
    d="M300.21 677C300.212 677.445 300.082 677.881 299.836 678.253C299.59 678.624 299.239 678.914 298.828 679.086C298.417 679.257 297.964 679.303 297.527 679.218C297.09 679.132 296.688 678.919 296.373 678.604C296.057 678.29 295.842 677.889 295.754 677.452C295.666 677.016 295.71 676.563 295.88 676.151C296.05 675.739 296.339 675.387 296.709 675.14C297.079 674.892 297.514 674.76 297.96 674.76C298.255 674.758 298.547 674.815 298.82 674.927C299.093 675.039 299.341 675.204 299.55 675.412C299.759 675.62 299.925 675.868 300.038 676.14C300.152 676.413 300.21 676.705 300.21 677Z"
    class="change-color-in-svg" fill="#4D61FC"
    style="fill: rgb(54, 48, 98); baseline-shift: 0px; paint-order: normal; text-decoration: none solid rgb(61, 61, 61);">
  </path>
  <path
    d="M307.77 677C307.77 677.443 307.639 677.876 307.393 678.244C307.146 678.613 306.797 678.9 306.387 679.069C305.978 679.239 305.528 679.283 305.093 679.197C304.659 679.11 304.259 678.897 303.946 678.584C303.633 678.27 303.42 677.871 303.333 677.437C303.247 677.002 303.291 676.552 303.461 676.143C303.63 675.733 303.917 675.383 304.286 675.137C304.654 674.891 305.087 674.76 305.53 674.76V674.76C306.124 674.76 306.694 674.996 307.114 675.416C307.534 675.836 307.77 676.406 307.77 677V677Z"
    class="change-color-in-svg" fill="#4D61FC"
    style="fill: rgb(54, 48, 98); baseline-shift: 0px; paint-order: normal; text-decoration: none solid rgb(61, 61, 61);">
  </path>
  <g opacity="0.6"
    style="baseline-shift: 0px; opacity: 0.6; paint-order: normal; text-decoration: none solid rgb(61, 61, 61);">
    <path
      d="M292.53 677C292.53 677.443 292.398 677.876 292.152 678.244C291.906 678.613 291.556 678.9 291.147 679.069C290.738 679.239 290.287 679.283 289.853 679.197C289.418 679.11 289.019 678.897 288.706 678.584C288.393 678.27 288.179 677.871 288.093 677.437C288.006 677.002 288.051 676.552 288.22 676.143C288.39 675.733 288.677 675.383 289.045 675.137C289.414 674.891 289.847 674.76 290.29 674.76C290.884 674.76 291.454 674.996 291.874 675.416C292.294 675.836 292.53 676.406 292.53 677Z"
      fill="white"
      style="baseline-shift: 0px; fill: rgb(255, 255, 255); paint-order: normal; text-decoration: none solid rgb(61, 61, 61);">
    </path>
    <path
      d="M300.21 677C300.212 677.445 300.082 677.881 299.836 678.253C299.59 678.624 299.239 678.914 298.828 679.086C298.417 679.257 297.964 679.303 297.527 679.218C297.09 679.132 296.688 678.919 296.373 678.604C296.057 678.29 295.842 677.889 295.754 677.452C295.666 677.016 295.71 676.563 295.88 676.151C296.05 675.739 296.339 675.387 296.709 675.14C297.079 674.892 297.514 674.76 297.96 674.76C298.255 674.758 298.547 674.815 298.82 674.927C299.093 675.039 299.341 675.204 299.55 675.412C299.759 675.62 299.925 675.868 300.038 676.14C300.152 676.413 300.21 676.705 300.21 677Z"
      fill="white"
      style="baseline-shift: 0px; fill: rgb(255, 255, 255); paint-order: normal; text-decoration: none solid rgb(61, 61, 61);">
    </path>
    <path
      d="M307.77 677C307.77 677.443 307.639 677.876 307.393 678.244C307.146 678.613 306.797 678.9 306.387 679.069C305.978 679.239 305.528 679.283 305.093 679.197C304.659 679.11 304.259 678.897 303.946 678.584C303.633 678.27 303.42 677.871 303.333 677.437C303.247 677.002 303.291 676.552 303.461 676.143C303.63 675.733 303.917 675.383 304.286 675.137C304.654 674.891 305.087 674.76 305.53 674.76V674.76C306.124 674.76 306.694 674.996 307.114 675.416C307.534 675.836 307.77 676.406 307.77 677V677Z"
      fill="white"
      style="baseline-shift: 0px; fill: rgb(255, 255, 255); paint-order: normal; text-decoration: none solid rgb(61, 61, 61);">
    </path>
  </g>
  <path
    d="M280.86 668.061V856.531H561.73V668.061H280.86ZM560.46 669.331V684.761H282.13V669.331H560.46ZM282.13 855.261V686.001H560.46V855.261H282.13Z"
    class="change-color-in-svg" fill="#4D61FC"
    style="fill: rgb(54, 48, 98); baseline-shift: 0px; paint-order: normal; text-decoration: none solid rgb(61, 61, 61);">
  </path>
  <path opacity="0.6"
    d="M280.86 668.061V856.531H561.73V668.061H280.86ZM560.46 669.331V684.761H282.13V669.331H560.46ZM282.13 855.261V686.001H560.46V855.261H282.13Z"
    fill="white"
    style="baseline-shift: 0px; fill: rgb(255, 255, 255); opacity: 0.6; paint-order: normal; text-decoration: none solid rgb(61, 61, 61);">
  </path>
  <path d="M380.67 704.92H306.09V779.5H380.67V704.92Z" class="change-color-in-svg" fill="#4D61FC"
    style="fill: rgb(54, 48, 98); baseline-shift: 0px; paint-order: normal; text-decoration: none solid rgb(61, 61, 61);">
  </path>
  <g opacity="0.6"
    style="baseline-shift: 0px; opacity: 0.6; paint-order: normal; text-decoration: none solid rgb(61, 61, 61);">
    <path d="M380.67 704.92H306.09V779.5H380.67V704.92Z" fill="white"
      style="baseline-shift: 0px; fill: rgb(255, 255, 255); paint-order: normal; text-decoration: none solid rgb(61, 61, 61);">
    </path>
  </g>
  <path d="M345.81 804.65H310.76V839.7H345.81V804.65Z" class="change-color-in-svg" fill="#4D61FC"
    style="fill: rgb(54, 48, 98); baseline-shift: 0px; paint-order: normal; text-decoration: none solid rgb(61, 61, 61);">
  </path>
  <path opacity="0.6" d="M345.81 804.65H310.76V839.7H345.81V804.65Z" fill="white"
    style="baseline-shift: 0px; fill: rgb(255, 255, 255); opacity: 0.6; paint-order: normal; text-decoration: none solid rgb(61, 61, 61);">
  </path>
  <path d="M409.37 804.65H374.32V839.7H409.37V804.65Z" class="change-color-in-svg" fill="#4D61FC"
    style="fill: rgb(54, 48, 98); baseline-shift: 0px; paint-order: normal; text-decoration: none solid rgb(61, 61, 61);">
  </path>
  <path opacity="0.6" d="M409.37 804.65H374.32V839.7H409.37V804.65Z" fill="white"
    style="baseline-shift: 0px; fill: rgb(255, 255, 255); opacity: 0.6; paint-order: normal; text-decoration: none solid rgb(61, 61, 61);">
  </path>
  <path d="M472.94 804.65H437.89V839.7H472.94V804.65Z" class="change-color-in-svg" fill="#4D61FC"
    style="fill: rgb(54, 48, 98); baseline-shift: 0px; paint-order: normal; text-decoration: none solid rgb(61, 61, 61);">
  </path>
  <path opacity="0.6" d="M472.94 804.65H437.89V839.7H472.94V804.65Z" fill="white"
    style="baseline-shift: 0px; fill: rgb(255, 255, 255); opacity: 0.6; paint-order: normal; text-decoration: none solid rgb(61, 61, 61);">
  </path>
  <path d="M536.5 804.65H501.45V839.7H536.5V804.65Z" class="change-color-in-svg" fill="#4D61FC"
    style="fill: rgb(54, 48, 98); baseline-shift: 0px; paint-order: normal; text-decoration: none solid rgb(61, 61, 61);">
  </path>
  <path opacity="0.6" d="M536.5 804.65H501.45V839.7H536.5V804.65Z" fill="white"
    style="baseline-shift: 0px; fill: rgb(255, 255, 255); opacity: 0.6; paint-order: normal; text-decoration: none solid rgb(61, 61, 61);">
  </path>
  <g opacity="0.6"
    style="baseline-shift: 0px; opacity: 0.6; paint-order: normal; text-decoration: none solid rgb(61, 61, 61);">
    <path
      d="M523.21 718.219H393.29C393.121 718.219 392.958 718.152 392.838 718.032C392.718 717.912 392.65 717.749 392.65 717.579C392.65 717.496 392.667 717.413 392.699 717.336C392.732 717.259 392.779 717.189 392.838 717.13C392.898 717.072 392.969 717.025 393.046 716.994C393.124 716.963 393.207 716.948 393.29 716.949H523.21C523.378 716.949 523.54 717.015 523.659 717.133C523.779 717.251 523.848 717.411 523.85 717.579C523.85 717.749 523.783 717.912 523.663 718.032C523.543 718.152 523.38 718.219 523.21 718.219Z"
      class="change-color-in-svg" fill="#4D61FC"
      style="fill: rgb(54, 48, 98); baseline-shift: 0px; paint-order: normal; text-decoration: none solid rgb(61, 61, 61);">
    </path>
    <path
      d="M523.21 732.168H393.29C393.121 732.168 392.958 732.101 392.838 731.981C392.718 731.861 392.65 731.698 392.65 731.529C392.65 731.445 392.667 731.362 392.699 731.285C392.732 731.208 392.779 731.138 392.838 731.079C392.898 731.021 392.969 730.975 393.046 730.944C393.124 730.912 393.207 730.897 393.29 730.899H523.21C523.378 730.898 523.54 730.965 523.659 731.082C523.779 731.2 523.848 731.361 523.85 731.529C523.85 731.698 523.783 731.861 523.663 731.981C523.543 732.101 523.38 732.168 523.21 732.168Z"
      class="change-color-in-svg" fill="#4D61FC"
      style="fill: rgb(54, 48, 98); baseline-shift: 0px; paint-order: normal; text-decoration: none solid rgb(61, 61, 61);">
    </path>
    <path
      d="M523.21 746.12H393.29C393.206 746.119 393.123 746.101 393.046 746.066C392.969 746.032 392.9 745.983 392.843 745.921C392.786 745.859 392.742 745.786 392.714 745.707C392.686 745.628 392.675 745.544 392.68 745.46C392.685 745.3 392.751 745.148 392.864 745.034C392.978 744.921 393.13 744.855 393.29 744.85H523.21C523.378 744.845 523.542 744.905 523.665 745.02C523.789 745.134 523.862 745.292 523.87 745.46C523.875 745.544 523.864 745.628 523.836 745.707C523.808 745.786 523.764 745.859 523.707 745.921C523.65 745.983 523.581 746.032 523.504 746.066C523.427 746.101 523.344 746.119 523.26 746.12H523.21Z"
      class="change-color-in-svg" fill="#4D61FC"
      style="fill: rgb(54, 48, 98); baseline-shift: 0px; paint-order: normal; text-decoration: none solid rgb(61, 61, 61);">
    </path>
    <path
      d="M468.62 760.069H393.29C393.206 760.068 393.123 760.049 393.046 760.015C392.969 759.981 392.9 759.931 392.843 759.87C392.786 759.808 392.742 759.735 392.714 759.656C392.686 759.577 392.675 759.493 392.68 759.409C392.685 759.249 392.751 759.096 392.864 758.983C392.978 758.87 393.13 758.804 393.29 758.799H468.62C468.775 758.818 468.917 758.894 469.02 759.01C469.123 759.127 469.18 759.278 469.18 759.434C469.18 759.59 469.123 759.74 469.02 759.857C468.917 759.974 468.775 760.049 468.62 760.069Z"
      class="change-color-in-svg" fill="#4D61FC"
      style="fill: rgb(54, 48, 98); baseline-shift: 0px; paint-order: normal; text-decoration: none solid rgb(61, 61, 61);">
    </path>
  </g>
  <path opacity="0.1" d="M1308.57 549.92V562H1028.98V430.24H1047.64" fill="black"
    style="baseline-shift: 0px; fill: rgb(0, 0, 0); opacity: 0.1; paint-order: normal; text-decoration: none solid rgb(61, 61, 61);">
  </path>
  <path d="M1328.09 417.5H1048.5V549.26H1328.09V417.5Z" fill="white"
    style="baseline-shift: 0px; fill: rgb(255, 255, 255); paint-order: normal; text-decoration: none solid rgb(61, 61, 61);">
  </path>
  <path
    d="M1059.53 425C1059.53 425.446 1059.4 425.882 1059.16 426.254C1058.91 426.625 1058.56 426.915 1058.15 427.087C1057.73 427.258 1057.28 427.303 1056.84 427.217C1056.41 427.131 1056 426.916 1055.69 426.601C1055.37 426.285 1055.16 425.884 1055.07 425.446C1054.99 425.009 1055.03 424.556 1055.2 424.144C1055.38 423.733 1055.66 423.381 1056.04 423.135C1056.41 422.888 1056.84 422.758 1057.29 422.76C1057.88 422.76 1058.45 422.996 1058.87 423.416C1059.29 423.836 1059.53 424.406 1059.53 425Z"
    class="change-color-in-svg" fill="#4D61FC"
    style="fill: rgb(54, 48, 98); baseline-shift: 0px; paint-order: normal; text-decoration: none solid rgb(61, 61, 61);">
  </path>
  <path
    d="M1067.21 425C1067.21 425.446 1067.08 425.882 1066.83 426.254C1066.59 426.625 1066.24 426.915 1065.83 427.087C1065.41 427.258 1064.96 427.303 1064.52 427.217C1064.09 427.131 1063.68 426.916 1063.37 426.601C1063.05 426.285 1062.84 425.884 1062.75 425.446C1062.67 425.009 1062.71 424.556 1062.88 424.144C1063.05 423.733 1063.34 423.381 1063.72 423.135C1064.09 422.888 1064.52 422.758 1064.97 422.76C1065.56 422.76 1066.13 422.996 1066.55 423.416C1066.97 423.836 1067.21 424.406 1067.21 425Z"
    class="change-color-in-svg" fill="#4D61FC"
    style="fill: rgb(54, 48, 98); baseline-shift: 0px; paint-order: normal; text-decoration: none solid rgb(61, 61, 61);">
  </path>
  <path
    d="M1074.77 425C1074.77 425.443 1074.64 425.876 1074.39 426.244C1074.15 426.613 1073.8 426.9 1073.39 427.069C1072.98 427.239 1072.53 427.283 1072.09 427.197C1071.66 427.11 1071.26 426.897 1070.95 426.584C1070.63 426.27 1070.42 425.871 1070.33 425.437C1070.25 425.002 1070.29 424.552 1070.46 424.143C1070.63 423.733 1070.92 423.383 1071.29 423.137C1071.65 422.891 1072.09 422.76 1072.53 422.76C1073.12 422.76 1073.69 422.996 1074.11 423.416C1074.53 423.836 1074.77 424.406 1074.77 425Z"
    class="change-color-in-svg" fill="#4D61FC"
    style="fill: rgb(54, 48, 98); baseline-shift: 0px; paint-order: normal; text-decoration: none solid rgb(61, 61, 61);">
  </path>
  <g opacity="0.6"
    style="baseline-shift: 0px; opacity: 0.6; paint-order: normal; text-decoration: none solid rgb(61, 61, 61);">
    <path
      d="M1059.53 425C1059.53 425.446 1059.4 425.882 1059.16 426.254C1058.91 426.625 1058.56 426.915 1058.15 427.087C1057.73 427.258 1057.28 427.303 1056.84 427.217C1056.41 427.131 1056 426.916 1055.69 426.601C1055.37 426.285 1055.16 425.884 1055.07 425.446C1054.99 425.009 1055.03 424.556 1055.2 424.144C1055.38 423.733 1055.66 423.381 1056.04 423.135C1056.41 422.888 1056.84 422.758 1057.29 422.76C1057.88 422.76 1058.45 422.996 1058.87 423.416C1059.29 423.836 1059.53 424.406 1059.53 425Z"
      fill="white"
      style="baseline-shift: 0px; fill: rgb(255, 255, 255); paint-order: normal; text-decoration: none solid rgb(61, 61, 61);">
    </path>
    <path
      d="M1067.21 425C1067.21 425.446 1067.08 425.882 1066.83 426.254C1066.59 426.625 1066.24 426.915 1065.83 427.087C1065.41 427.258 1064.96 427.303 1064.52 427.217C1064.09 427.131 1063.68 426.916 1063.37 426.601C1063.05 426.285 1062.84 425.884 1062.75 425.446C1062.67 425.009 1062.71 424.556 1062.88 424.144C1063.05 423.733 1063.34 423.381 1063.72 423.135C1064.09 422.888 1064.52 422.758 1064.97 422.76C1065.56 422.76 1066.13 422.996 1066.55 423.416C1066.97 423.836 1067.21 424.406 1067.21 425Z"
      fill="white"
      style="baseline-shift: 0px; fill: rgb(255, 255, 255); paint-order: normal; text-decoration: none solid rgb(61, 61, 61);">
    </path>
    <path
      d="M1074.77 425C1074.77 425.443 1074.64 425.876 1074.39 426.244C1074.15 426.613 1073.8 426.9 1073.39 427.069C1072.98 427.239 1072.53 427.283 1072.09 427.197C1071.66 427.11 1071.26 426.897 1070.95 426.584C1070.63 426.27 1070.42 425.871 1070.33 425.437C1070.25 425.002 1070.29 424.552 1070.46 424.143C1070.63 423.733 1070.92 423.383 1071.29 423.137C1071.65 422.891 1072.09 422.76 1072.53 422.76C1073.12 422.76 1073.69 422.996 1074.11 423.416C1074.53 423.836 1074.77 424.406 1074.77 425Z"
      fill="white"
      style="baseline-shift: 0px; fill: rgb(255, 255, 255); paint-order: normal; text-decoration: none solid rgb(61, 61, 61);">
    </path>
  </g>
  <path
    d="M1047.86 417.061V549.711H1328.73V417.061H1047.86ZM1327.46 417.951V431.821H1049.13V418.001L1327.46 417.951ZM1049.13 548.821V432.711H1327.46V548.821H1049.13Z"
    class="change-color-in-svg" fill="#4D61FC"
    style="fill: rgb(54, 48, 98); baseline-shift: 0px; paint-order: normal; text-decoration: none solid rgb(61, 61, 61);">
  </path>
  <path opacity="0.6"
    d="M1047.86 417.061V549.711H1328.73V417.061H1047.86ZM1327.46 417.951V431.821H1049.13V418.001L1327.46 417.951ZM1049.13 548.821V432.711H1327.46V548.821H1049.13Z"
    fill="white"
    style="baseline-shift: 0px; fill: rgb(255, 255, 255); opacity: 0.6; paint-order: normal; text-decoration: none solid rgb(61, 61, 61);">
  </path>
  <path d="M1147.67 453.92H1073.09V528.5H1147.67V453.92Z" class="change-color-in-svg" fill="#4D61FC"
    style="fill: rgb(54, 48, 98); baseline-shift: 0px; paint-order: normal; text-decoration: none solid rgb(61, 61, 61);">
  </path>
  <g opacity="0.6"
    style="baseline-shift: 0px; opacity: 0.6; paint-order: normal; text-decoration: none solid rgb(61, 61, 61);">
    <path d="M1147.67 453.92H1073.09V528.5H1147.67V453.92Z" fill="white"
      style="baseline-shift: 0px; fill: rgb(255, 255, 255); paint-order: normal; text-decoration: none solid rgb(61, 61, 61);">
    </path>
  </g>
  <g opacity="0.6"
    style="baseline-shift: 0px; opacity: 0.6; paint-order: normal; text-decoration: none solid rgb(61, 61, 61);">
    <path
      d="M1290.21 467.219H1160.29C1160.12 467.219 1159.96 467.152 1159.84 467.032C1159.72 466.912 1159.65 466.749 1159.65 466.579C1159.65 466.496 1159.67 466.413 1159.7 466.336C1159.73 466.259 1159.78 466.189 1159.84 466.13C1159.9 466.072 1159.97 466.025 1160.05 465.994C1160.12 465.963 1160.21 465.948 1160.29 465.949H1290.21C1290.38 465.949 1290.54 466.015 1290.66 466.133C1290.78 466.251 1290.85 466.411 1290.85 466.579C1290.85 466.749 1290.78 466.912 1290.66 467.032C1290.54 467.152 1290.38 467.219 1290.21 467.219V467.219Z"
      class="change-color-in-svg" fill="#4D61FC"
      style="fill: rgb(54, 48, 98); baseline-shift: 0px; paint-order: normal; text-decoration: none solid rgb(61, 61, 61);">
    </path>
    <path
      d="M1290.21 481.169H1160.29C1160.12 481.169 1159.96 481.101 1159.84 480.981C1159.72 480.861 1159.65 480.698 1159.65 480.529C1159.65 480.445 1159.67 480.362 1159.7 480.285C1159.73 480.208 1159.78 480.138 1159.84 480.079C1159.9 480.021 1159.97 479.975 1160.05 479.944C1160.12 479.913 1160.21 479.897 1160.29 479.899H1290.21C1290.38 479.898 1290.54 479.965 1290.66 480.082C1290.78 480.2 1290.85 480.361 1290.85 480.529C1290.85 480.698 1290.78 480.861 1290.66 480.981C1290.54 481.101 1290.38 481.169 1290.21 481.169V481.169Z"
      class="change-color-in-svg" fill="#4D61FC"
      style="fill: rgb(54, 48, 98); baseline-shift: 0px; paint-order: normal; text-decoration: none solid rgb(61, 61, 61);">
    </path>
    <path
      d="M1290.21 495.12H1160.29C1160.21 495.119 1160.12 495.1 1160.05 495.066C1159.97 495.032 1159.9 494.983 1159.84 494.921C1159.79 494.859 1159.74 494.786 1159.71 494.707C1159.69 494.628 1159.67 494.544 1159.68 494.46C1159.69 494.3 1159.75 494.147 1159.86 494.034C1159.98 493.921 1160.13 493.855 1160.29 493.85H1290.21C1290.38 493.845 1290.54 493.905 1290.66 494.02C1290.79 494.134 1290.86 494.292 1290.87 494.46C1290.87 494.543 1290.86 494.627 1290.83 494.706C1290.8 494.784 1290.76 494.856 1290.7 494.918C1290.65 494.979 1290.58 495.029 1290.5 495.064C1290.43 495.098 1290.34 495.117 1290.26 495.12H1290.21Z"
      class="change-color-in-svg" fill="#4D61FC"
      style="fill: rgb(54, 48, 98); baseline-shift: 0px; paint-order: normal; text-decoration: none solid rgb(61, 61, 61);">
    </path>
    <path
      d="M1235.62 509.069H1160.29C1160.21 509.068 1160.12 509.049 1160.05 509.015C1159.97 508.981 1159.9 508.931 1159.84 508.87C1159.79 508.808 1159.74 508.735 1159.71 508.656C1159.69 508.577 1159.67 508.493 1159.68 508.409C1159.69 508.249 1159.75 508.096 1159.86 507.983C1159.98 507.87 1160.13 507.804 1160.29 507.799H1235.62C1235.77 507.818 1235.92 507.894 1236.02 508.01C1236.12 508.127 1236.18 508.278 1236.18 508.434C1236.18 508.59 1236.12 508.74 1236.02 508.857C1235.92 508.974 1235.77 509.049 1235.62 509.069V509.069Z"
      class="change-color-in-svg" fill="#4D61FC"
      style="fill: rgb(54, 48, 98); baseline-shift: 0px; paint-order: normal; text-decoration: none solid rgb(61, 61, 61);">
    </path>
  </g>
  <path
    d="M1377.31 993.381H258.89C258.492 993.381 258.11 993.539 257.829 993.82C257.548 994.101 257.39 994.483 257.39 994.881C257.39 995.279 257.548 995.66 257.829 995.942C258.11 996.223 258.492 996.381 258.89 996.381H1377.31C1377.71 996.381 1378.09 996.223 1378.37 995.942C1378.65 995.66 1378.81 995.279 1378.81 994.881C1378.81 994.483 1378.65 994.101 1378.37 993.82C1378.09 993.539 1377.71 993.381 1377.31 993.381Z"
    fill="#B2B6BB"
    style="baseline-shift: 0px; fill: rgb(178, 182, 187); paint-order: normal; text-decoration: none solid rgb(61, 61, 61);">
  </path>
  <path opacity="0.07"
    d="M1171.87 332.221H425.54C423.094 332.221 421.11 334.204 421.11 336.651V820.101C421.11 822.547 423.094 824.531 425.54 824.531H1171.87C1174.32 824.531 1176.3 822.547 1176.3 820.101V336.651C1176.3 334.204 1174.32 332.221 1171.87 332.221Z"
    fill="black"
    style="baseline-shift: 0px; fill: rgb(0, 0, 0); opacity: 0.07; paint-order: normal; text-decoration: none solid rgb(61, 61, 61);">
  </path>
  <path
    d="M1187.72 315.85H441.39C438.943 315.85 436.96 317.833 436.96 320.28V803.73C436.96 806.176 438.943 808.16 441.39 808.16H1187.72C1190.17 808.16 1192.15 806.176 1192.15 803.73V320.28C1192.15 317.833 1190.17 315.85 1187.72 315.85Z"
    fill="white"
    style="baseline-shift: 0px; fill: rgb(255, 255, 255); paint-order: normal; text-decoration: none solid rgb(61, 61, 61);">
  </path>
  <path
    d="M1182.22 809H446.89C440.89 809 435.99 804.74 435.99 799.49V324.49C435.99 319.24 440.88 314.98 446.89 314.98H1182.22C1188.22 314.98 1193.12 319.24 1193.12 324.49V799.49C1193.12 804.74 1188.24 809 1182.22 809ZM446.89 316.69C441.94 316.69 437.89 320.19 437.89 324.51V799.51C437.89 803.83 441.89 807.33 446.89 807.33H1182.22C1187.22 807.33 1191.22 803.83 1191.22 799.51V324.51C1191.22 320.19 1187.22 316.69 1182.22 316.69H446.89Z"
    class="change-color-in-svg" fill="#4D61FC"
    style="fill: rgb(54, 48, 98); baseline-shift: 0px; paint-order: normal; text-decoration: none solid rgb(61, 61, 61);">
  </path>
  <g opacity="0.6"
    style="baseline-shift: 0px; opacity: 0.6; paint-order: normal; text-decoration: none solid rgb(61, 61, 61);">
    <path
      d="M1182.22 809H446.89C440.89 809 435.99 804.74 435.99 799.49V324.49C435.99 319.24 440.88 314.98 446.89 314.98H1182.22C1188.22 314.98 1193.12 319.24 1193.12 324.49V799.49C1193.12 804.74 1188.24 809 1182.22 809ZM446.89 316.69C441.94 316.69 437.89 320.19 437.89 324.51V799.51C437.89 803.83 441.89 807.33 446.89 807.33H1182.22C1187.22 807.33 1191.22 803.83 1191.22 799.51V324.51C1191.22 320.19 1187.22 316.69 1182.22 316.69H446.89Z"
      fill="white"
      style="baseline-shift: 0px; fill: rgb(255, 255, 255); paint-order: normal; text-decoration: none solid rgb(61, 61, 61);">
    </path>
  </g>
  <path
    d="M440.28 315.109H1188.72C1189.87 315.109 1190.98 315.568 1191.8 316.383C1192.61 317.199 1193.07 318.306 1193.07 319.459V319.459V343.859H435.93V319.459C435.93 318.306 436.388 317.199 437.204 316.383C438.02 315.568 439.126 315.109 440.28 315.109V315.109Z"
    class="change-color-in-svg" fill="#4D61FC"
    style="fill: rgb(54, 48, 98); baseline-shift: 0px; paint-order: normal; text-decoration: none solid rgb(61, 61, 61);">
  </path>
  <path
    d="M1135.51 334.7C1138.39 334.7 1140.73 332.363 1140.73 329.48C1140.73 326.597 1138.39 324.26 1135.51 324.26C1132.63 324.26 1130.29 326.597 1130.29 329.48C1130.29 332.363 1132.63 334.7 1135.51 334.7Z"
    fill="white"
    style="baseline-shift: 0px; fill: rgb(255, 255, 255); paint-order: normal; text-decoration: none solid rgb(61, 61, 61);">
  </path>
  <path
    d="M1152.1 334.7C1154.98 334.7 1157.32 332.363 1157.32 329.48C1157.32 326.597 1154.98 324.26 1152.1 324.26C1149.22 324.26 1146.88 326.597 1146.88 329.48C1146.88 332.363 1149.22 334.7 1152.1 334.7Z"
    fill="white"
    style="baseline-shift: 0px; fill: rgb(255, 255, 255); paint-order: normal; text-decoration: none solid rgb(61, 61, 61);">
  </path>
  <path
    d="M1168.7 334.7C1171.58 334.7 1173.92 332.363 1173.92 329.48C1173.92 326.597 1171.58 324.26 1168.7 324.26C1165.82 324.26 1163.48 326.597 1163.48 329.48C1163.48 332.363 1165.82 334.7 1168.7 334.7Z"
    fill="white"
    style="baseline-shift: 0px; fill: rgb(255, 255, 255); paint-order: normal; text-decoration: none solid rgb(61, 61, 61);">
  </path>
  <path
    d="M584.13 321.41H468.26C467.663 321.41 467.078 321.576 466.571 321.891C466.064 322.205 465.655 322.655 465.39 323.19L454 346H598.3L587 323.19C586.735 322.655 586.326 322.205 585.819 321.891C585.312 321.576 584.727 321.41 584.13 321.41V321.41Z"
    fill="#DADDDF"
    style="baseline-shift: 0px; fill: rgb(218, 221, 223); paint-order: normal; text-decoration: none solid rgb(61, 61, 61);">
  </path>
  <path d="M1193.09 343.859H435.98V372.719H1193.09V343.859Z" fill="#DADDDF"
    style="baseline-shift: 0px; fill: rgb(218, 221, 223); paint-order: normal; text-decoration: none solid rgb(61, 61, 61);">
  </path>
  <path
    d="M524.59 350.62V366C524.59 366.49 525.15 366.88 525.84 366.88H1156.14C1156.83 366.88 1157.39 366.49 1157.39 366V350.62C1157.39 350.14 1156.83 349.74 1156.14 349.74H525.84C525.15 349.74 524.59 350.14 524.59 350.62Z"
    fill="white"
    style="baseline-shift: 0px; fill: rgb(255, 255, 255); paint-order: normal; text-decoration: none solid rgb(61, 61, 61);">
  </path>
  <path d="M1153 581H1071V645H1153V581Z" stroke="#B2B6BB" stroke-width="2" stroke-miterlimit="10"
    style="baseline-shift: 0px; paint-order: normal; stroke: rgb(178, 182, 187); stroke-miterlimit: 10; stroke-width: 2px; text-decoration: none solid rgb(61, 61, 61);">
  </path>
  <path d="M973 431H886V490H973V431Z" stroke="#B2B6BB" stroke-width="2" stroke-miterlimit="10"
    style="baseline-shift: 0px; paint-order: normal; stroke: rgb(178, 182, 187); stroke-miterlimit: 10; stroke-width: 2px; text-decoration: none solid rgb(61, 61, 61);">
  </path>
  <path d="M1182.29 353.34H1167.32V355.31H1182.29V353.34Z" class="change-color-in-svg" fill="#4D61FC"
    style="fill: rgb(54, 48, 98); baseline-shift: 0px; paint-order: normal; text-decoration: none solid rgb(61, 61, 61);">
  </path>
  <path d="M1182.29 357.301H1167.32V359.271H1182.29V357.301Z" class="change-color-in-svg" fill="#4D61FC"
    style="fill: rgb(54, 48, 98); baseline-shift: 0px; paint-order: normal; text-decoration: none solid rgb(61, 61, 61);">
  </path>
  <path d="M1182.29 361.27H1167.32V363.24H1182.29V361.27Z" class="change-color-in-svg" fill="#4D61FC"
    style="fill: rgb(54, 48, 98); baseline-shift: 0px; paint-order: normal; text-decoration: none solid rgb(61, 61, 61);">
  </path>
  <path opacity="0.2"
    d="M1145.68 353.24L1147.29 356.49L1150.88 357.01C1150.88 357.019 1150.89 357.03 1150.89 357.04C1150.89 357.051 1150.88 357.061 1150.88 357.07L1148.28 359.6V359.65L1148.89 363.23C1148.89 363.239 1148.9 363.25 1148.9 363.26C1148.9 363.271 1148.89 363.281 1148.89 363.29V363.29L1145.67 361.6H1145.62L1142.41 363.29C1142.4 363.298 1142.38 363.303 1142.37 363.303C1142.36 363.303 1142.34 363.298 1142.33 363.29C1142.33 363.29 1142.33 363.29 1142.33 363.29L1142.94 359.71C1142.94 359.71 1142.94 359.71 1142.94 359.66L1140.34 357.13C1140.33 357.119 1140.32 357.105 1140.32 357.09C1140.32 357.075 1140.33 357.061 1140.34 357.05V357.05L1143.93 356.53L1145.53 353.28C1145.54 353.272 1145.56 353.268 1145.57 353.268C1145.58 353.268 1145.6 353.272 1145.61 353.28L1145.68 353.24Z"
    stroke="black" stroke-width="0.8" stroke-miterlimit="10"
    style="baseline-shift: 0px; opacity: 0.2; paint-order: normal; stroke: rgb(0, 0, 0); stroke-miterlimit: 10; stroke-width: 0.8px; text-decoration: none solid rgb(61, 61, 61);">
  </path>
  <path
    d="M480.78 358.829H471.13C470.97 358.821 470.82 358.751 470.711 358.633C470.603 358.515 470.545 358.359 470.55 358.199C470.555 358.047 470.618 357.902 470.726 357.795C470.833 357.687 470.978 357.624 471.13 357.619H480.78C480.929 357.631 481.068 357.697 481.171 357.804C481.274 357.912 481.335 358.053 481.341 358.202C481.347 358.351 481.298 358.497 481.204 358.612C481.11 358.728 480.977 358.805 480.83 358.829H480.78Z"
    class="change-color-in-svg" fill="#4D61FC"
    style="fill: rgb(54, 48, 98); baseline-shift: 0px; paint-order: normal; text-decoration: none solid rgb(61, 61, 61);">
  </path>
  <path
    d="M476.91 363.209C476.83 363.211 476.751 363.196 476.677 363.167C476.603 363.137 476.536 363.093 476.479 363.037C476.422 362.981 476.377 362.915 476.346 362.841C476.316 362.768 476.3 362.689 476.3 362.609C476.298 362.529 476.314 362.45 476.345 362.376C476.376 362.302 476.422 362.235 476.48 362.179L480.34 358.309L476.43 354.399C476.373 354.344 476.327 354.278 476.296 354.205C476.265 354.132 476.249 354.054 476.249 353.974C476.249 353.895 476.265 353.817 476.296 353.744C476.327 353.671 476.373 353.605 476.43 353.549C476.541 353.443 476.69 353.383 476.845 353.383C476.999 353.383 477.148 353.443 477.26 353.549L482.03 358.309L477.34 362.999C477.23 363.123 477.075 363.199 476.91 363.209V363.209Z"
    class="change-color-in-svg" fill="#4D61FC"
    style="fill: rgb(54, 48, 98); baseline-shift: 0px; paint-order: normal; text-decoration: none solid rgb(61, 61, 61);">
  </path>
  <path
    d="M458.65 358.83H449C448.84 358.836 448.684 358.778 448.566 358.67C448.448 358.561 448.378 358.411 448.37 358.251C448.366 358.171 448.378 358.091 448.405 358.016C448.432 357.941 448.474 357.872 448.528 357.814C448.582 357.755 448.647 357.708 448.719 357.675C448.792 357.641 448.87 357.623 448.95 357.621H458.65C458.73 357.615 458.81 357.626 458.886 357.653C458.961 357.679 459.031 357.721 459.09 357.775C459.149 357.829 459.196 357.895 459.229 357.968C459.261 358.041 459.279 358.12 459.28 358.201C459.284 358.28 459.272 358.36 459.245 358.435C459.218 358.51 459.176 358.579 459.122 358.637C459.068 358.696 459.003 358.743 458.93 358.776C458.858 358.81 458.78 358.828 458.7 358.83H458.65Z"
    class="change-color-in-svg" fill="#4D61FC"
    style="fill: rgb(54, 48, 98); baseline-shift: 0px; paint-order: normal; text-decoration: none solid rgb(61, 61, 61);">
  </path>
  <path
    d="M452.87 363.21C452.792 363.211 452.715 363.196 452.643 363.167C452.571 363.138 452.505 363.095 452.45 363.04L447.72 358.31L452.49 353.55C452.604 353.437 452.759 353.373 452.92 353.373C453.081 353.373 453.235 353.437 453.35 353.55C453.457 353.662 453.516 353.811 453.516 353.965C453.516 354.12 453.457 354.269 453.35 354.38L449.44 358.29L453.3 362.16C453.357 362.216 453.403 362.283 453.434 362.357C453.465 362.431 453.481 362.51 453.481 362.59C453.481 362.671 453.465 362.75 453.434 362.824C453.403 362.898 453.357 362.964 453.3 363.02C453.184 363.131 453.03 363.192 452.87 363.19V363.21Z"
    class="change-color-in-svg" fill="#4D61FC"
    style="fill: rgb(54, 48, 98); baseline-shift: 0px; paint-order: normal; text-decoration: none solid rgb(61, 61, 61);">
  </path>
  <path
    d="M503.08 364C502.352 364.001 501.633 363.837 500.977 363.52C500.321 363.204 499.745 362.744 499.291 362.174C498.838 361.605 498.519 360.94 498.358 360.23C498.197 359.519 498.198 358.782 498.362 358.072C498.526 357.363 498.848 356.699 499.303 356.131C499.759 355.563 500.337 355.105 500.994 354.792C501.652 354.478 502.371 354.317 503.099 354.32C503.828 354.324 504.546 354.491 505.2 354.81C505.344 354.881 505.454 355.006 505.507 355.158C505.559 355.309 505.55 355.476 505.48 355.62C505.446 355.692 505.398 355.757 505.338 355.81C505.279 355.864 505.21 355.904 505.134 355.93C505.059 355.957 504.979 355.967 504.899 355.962C504.82 355.957 504.742 355.936 504.67 355.9C504.179 355.66 503.641 355.533 503.094 355.53C502.547 355.527 502.007 355.648 501.513 355.883C501.02 356.118 500.586 356.461 500.243 356.887C499.901 357.313 499.66 357.811 499.537 358.344C499.414 358.877 499.413 359.43 499.534 359.963C499.655 360.496 499.894 360.995 500.235 361.423C500.576 361.85 501.009 362.195 501.501 362.432C501.994 362.669 502.534 362.791 503.08 362.79C503.557 362.79 504.028 362.696 504.468 362.514C504.908 362.331 505.307 362.064 505.644 361.727C505.98 361.389 506.246 360.989 506.428 360.549C506.609 360.108 506.702 359.637 506.7 359.16C506.7 358.999 506.765 358.843 506.879 358.729C506.993 358.615 507.149 358.55 507.31 358.55C507.472 358.55 507.627 358.615 507.742 358.729C507.856 358.843 507.92 358.999 507.92 359.16C507.918 360.443 507.407 361.673 506.5 362.58C505.593 363.487 504.363 363.998 503.08 364Z"
    class="change-color-in-svg" fill="#4D61FC"
    style="fill: rgb(54, 48, 98); baseline-shift: 0px; paint-order: normal; text-decoration: none solid rgb(61, 61, 61);">
  </path>
  <path
    d="M503.84 357.739C503.68 357.739 503.527 357.677 503.413 357.564C503.299 357.452 503.233 357.3 503.23 357.139C503.232 357.016 503.269 356.897 503.339 356.795C503.408 356.694 503.506 356.615 503.62 356.569L505.9 355.689L505.03 353.409C505.004 353.334 504.993 353.254 504.997 353.174C505.002 353.094 505.023 353.016 505.058 352.944C505.094 352.873 505.143 352.809 505.204 352.756C505.264 352.704 505.334 352.664 505.41 352.639C505.555 352.592 505.713 352.601 505.851 352.664C505.99 352.727 506.101 352.839 506.16 352.979L507.47 356.389L504.06 357.699C503.991 357.728 503.916 357.742 503.84 357.739V357.739Z"
    class="change-color-in-svg" fill="#4D61FC"
    style="fill: rgb(54, 48, 98); baseline-shift: 0px; paint-order: normal; text-decoration: none solid rgb(61, 61, 61);">
  </path>
  <g opacity="0.3"
    style="baseline-shift: 0px; opacity: 0.3; paint-order: normal; text-decoration: none solid rgb(61, 61, 61);">
    <path
      d="M572.9 339.63C572.76 339.635 572.621 339.597 572.503 339.522C572.385 339.446 572.293 339.337 572.238 339.208C572.184 339.079 572.17 338.936 572.199 338.799C572.228 338.662 572.298 338.536 572.4 338.44L580.71 330.12C580.843 329.988 581.022 329.914 581.21 329.914C581.397 329.914 581.577 329.988 581.71 330.12C581.777 330.184 581.831 330.262 581.868 330.348C581.905 330.434 581.924 330.526 581.924 330.62C581.924 330.713 581.905 330.806 581.868 330.892C581.831 330.978 581.777 331.056 581.71 331.12L573.4 339.44C573.265 339.567 573.085 339.635 572.9 339.63Z"
      fill="black"
      style="baseline-shift: 0px; fill: rgb(0, 0, 0); paint-order: normal; text-decoration: none solid rgb(61, 61, 61);">
    </path>
    <path
      d="M581.219 339.631C581.127 339.632 581.035 339.615 580.949 339.581C580.863 339.546 580.785 339.495 580.719 339.431L572.399 331.121C572.267 330.988 572.193 330.808 572.193 330.621C572.193 330.433 572.267 330.254 572.399 330.121C572.464 330.053 572.541 329.999 572.627 329.962C572.713 329.925 572.806 329.906 572.899 329.906C572.993 329.906 573.085 329.925 573.171 329.962C573.257 329.999 573.335 330.053 573.399 330.121L581.719 338.431C581.851 338.564 581.925 338.743 581.925 338.931C581.925 339.118 581.851 339.298 581.719 339.431C581.585 339.561 581.406 339.636 581.219 339.641V339.631Z"
      fill="black"
      style="baseline-shift: 0px; fill: rgb(0, 0, 0); paint-order: normal; text-decoration: none solid rgb(61, 61, 61);">
    </path>
  </g>
  <path
    d="M998.5 667C1061.74 667 1113 615.737 1113 552.5C1113 489.263 1061.74 438 998.5 438C935.263 438 884 489.263 884 552.5C884 615.737 935.263 667 998.5 667Z"
    class="change-color-in-svg" fill="#4D61FC"
    style="fill: rgb(54, 48, 98); baseline-shift: 0px; paint-order: normal; text-decoration: none solid rgb(61, 61, 61);">
  </path>
  <path opacity="0.8"
    d="M998.5 667C1061.74 667 1113 615.737 1113 552.5C1113 489.263 1061.74 438 998.5 438C935.263 438 884 489.263 884 552.5C884 615.737 935.263 667 998.5 667Z"
    fill="white"
    style="baseline-shift: 0px; fill: rgb(255, 255, 255); opacity: 0.8; paint-order: normal; text-decoration: none solid rgb(61, 61, 61);">
  </path>
  <path
    d="M998.5 668C975.656 668 953.326 661.226 934.332 648.535C915.338 635.843 900.534 617.805 891.792 596.7C883.05 575.595 880.763 552.372 885.219 529.967C889.676 507.562 900.676 486.982 916.829 470.829C932.982 454.676 953.562 443.676 975.967 439.219C998.372 434.763 1021.6 437.05 1042.7 445.792C1063.8 454.534 1081.84 469.338 1094.53 488.332C1107.23 507.326 1114 529.656 1114 552.5C1114 583.133 1101.83 612.51 1080.17 634.171C1058.51 655.831 1029.13 668 998.5 668V668ZM998.5 439C976.052 439 954.108 445.657 935.443 458.128C916.778 470.6 902.23 488.326 893.64 509.065C885.049 529.805 882.801 552.626 887.181 574.643C891.56 596.66 902.37 616.883 918.243 632.757C934.117 648.63 954.34 659.44 976.357 663.819C998.374 668.199 1021.2 665.951 1041.93 657.36C1062.67 648.77 1080.4 634.222 1092.87 615.557C1105.34 596.892 1112 574.948 1112 552.5V552.5C1111.97 522.409 1100 493.559 1078.72 472.281C1057.44 451.004 1028.59 439.034 998.5 439V439Z"
    class="change-color-in-svg" fill="#4D61FC"
    style="fill: rgb(54, 48, 98); baseline-shift: 0px; paint-order: normal; text-decoration: none solid rgb(61, 61, 61);">
  </path>
  <path
    d="M1301.4 779.789H1240.4C1237.08 779.789 1234.38 782.484 1234.38 785.809V835.799C1234.38 839.124 1237.08 841.819 1240.4 841.819H1301.4C1304.72 841.819 1307.42 839.124 1307.42 835.799V785.809C1307.42 782.484 1304.72 779.789 1301.4 779.789Z"
    fill="#B2B6BB"
    style="baseline-shift: 0px; fill: rgb(178, 182, 187); paint-order: normal; text-decoration: none solid rgb(61, 61, 61);">
  </path>
  <path d="M1287.76 822.11H1259.2H1254.05V799.5H1287.76V805.15V822.11Z" stroke="white" stroke-width="1.65"
    stroke-linecap="round" stroke-linejoin="round"
    style="baseline-shift: 0px; paint-order: normal; stroke: rgb(255, 255, 255); stroke-linecap: round; stroke-linejoin: round; stroke-width: 1.65px; text-decoration: none solid rgb(61, 61, 61);">
  </path>
  <path d="M1254.05 799.5L1270.9 812.78L1287.76 799.5" stroke="white" stroke-width="1.65" stroke-linecap="round"
    stroke-linejoin="round"
    style="baseline-shift: 0px; paint-order: normal; stroke: rgb(255, 255, 255); stroke-linecap: round; stroke-linejoin: round; stroke-width: 1.65px; text-decoration: none solid rgb(61, 61, 61);">
  </path>
  <path
    d="M374.7 396.721H316.65C312.983 396.721 310.01 399.694 310.01 403.361V459.421C310.01 463.088 312.983 466.061 316.65 466.061H374.7C378.367 466.061 381.34 463.088 381.34 459.421V403.361C381.34 399.694 378.367 396.721 374.7 396.721Z"
    fill="#B2B6BB"
    style="baseline-shift: 0px; fill: rgb(178, 182, 187); paint-order: normal; text-decoration: none solid rgb(61, 61, 61);">
  </path>
  <path
    d="M331.85 417.13C329.032 419.95 327.113 423.543 326.337 427.453C325.56 431.363 325.96 435.416 327.486 439.099C329.012 442.782 331.596 445.93 334.911 448.144C338.226 450.359 342.123 451.541 346.11 451.541C350.097 451.541 353.994 450.359 357.309 448.144C360.624 445.93 363.208 442.782 364.734 439.099C366.261 435.416 366.661 431.363 365.884 427.453C365.107 423.543 363.188 419.95 360.37 417.13V417.13C356.579 413.366 351.453 411.254 346.11 411.254C340.768 411.254 335.642 413.366 331.85 417.13ZM360.32 420.03H353.89C353.221 417.966 352.385 415.959 351.39 414.03C354.911 415.101 358.025 417.214 360.32 420.09V420.03ZM338.7 430.21C338.701 427.575 339.02 424.949 339.65 422.39H352.55C353.202 424.946 353.538 427.573 353.55 430.21H338.7ZM353.43 432.57C353.242 435.218 352.779 437.838 352.05 440.39H340.16C339.431 437.838 338.969 435.218 338.78 432.57H353.43ZM346.11 413.2C347.061 413.199 348.011 413.272 348.95 413.42C350.14 415.527 351.121 417.744 351.88 420.04H340.33C341.09 417.744 342.071 415.527 343.26 413.42C344.203 413.272 345.156 413.198 346.11 413.2V413.2ZM340.82 413.98C339.822 415.929 338.986 417.955 338.32 420.04H331.89C334.186 417.164 337.299 415.051 340.82 413.98ZM330.29 422.4H337.65C337.023 424.958 336.687 427.578 336.65 430.21H328C328.171 427.459 328.972 424.783 330.34 422.39L330.29 422.4ZM330.29 440.4C328.922 438.007 328.121 435.332 327.95 432.58H336.65C336.789 435.222 337.202 437.843 337.88 440.4H330.29ZM331.89 442.75H338.58C339.269 444.847 340.098 446.895 341.06 448.88C337.442 447.837 334.238 445.695 331.89 442.75V442.75ZM346.1 449.59C345.305 449.59 344.51 449.54 343.72 449.44C342.632 447.276 341.69 445.041 340.9 442.75H351.31C350.516 445.039 349.574 447.274 348.49 449.44C347.701 449.542 346.906 449.589 346.11 449.58L346.1 449.59ZM351.1 448.88C352.07 446.897 352.902 444.849 353.59 442.75H360.28C357.926 445.692 354.719 447.833 351.1 448.88V448.88ZM361.88 440.4H354.29C354.97 437.844 355.379 435.223 355.51 432.58H364.21C364.041 435.328 363.244 437.999 361.88 440.39V440.4ZM364.22 430.22H355.55C355.508 427.585 355.173 424.962 354.55 422.4H361.91C363.271 424.793 364.071 427.464 364.25 430.21L364.22 430.22Z"
    fill="white"
    style="baseline-shift: 0px; fill: rgb(255, 255, 255); paint-order: normal; text-decoration: none solid rgb(61, 61, 61);">
  </path>
  <path
    d="M718 868.689H772.07C773.905 868.689 775.665 869.418 776.963 870.716C778.261 872.014 778.99 873.774 778.99 875.609V925.999C778.987 927.831 778.258 929.587 776.963 930.883C775.668 932.178 773.911 932.907 772.08 932.909H720.22C717.801 932.909 715.481 931.949 713.771 930.238C712.06 928.528 711.1 926.208 711.1 923.789V923.789V875.609C711.098 874.702 711.276 873.803 711.622 872.964C711.968 872.125 712.476 871.363 713.116 870.72C713.757 870.078 714.518 869.568 715.356 869.219C716.194 868.871 717.092 868.691 718 868.689Z"
    fill="#B2B6BB"
    style="baseline-shift: 0px; fill: rgb(178, 182, 187); paint-order: normal; text-decoration: none solid rgb(61, 61, 61);">
  </path>
  <path
    d="M759.71 907.621L755.84 903.761C755.53 903.402 755.148 903.112 754.72 902.909C754.291 902.706 753.825 902.594 753.35 902.581C752.411 902.608 751.521 903.003 750.87 903.681L748.66 905.891L748.24 905.691C748.01 905.581 747.78 905.471 747.55 905.341C745.366 903.916 743.431 902.142 741.82 900.091C741.101 899.231 740.499 898.279 740.03 897.261C740.58 896.781 741.03 896.261 741.55 895.741L742.17 895.121C742.505 894.833 742.781 894.483 742.98 894.089C743.179 893.695 743.299 893.266 743.333 892.825C743.366 892.385 743.312 891.943 743.175 891.523C743.037 891.104 742.818 890.716 742.53 890.381C742.421 890.248 742.3 890.124 742.17 890.011L740.23 888.081C740.011 887.863 739.804 887.633 739.61 887.391L738.3 886.081C737.651 885.4 736.761 885.002 735.82 884.971C735.351 884.975 734.888 885.076 734.46 885.267C734.032 885.458 733.647 885.735 733.33 886.081L730.91 888.491C730.008 889.404 729.45 890.602 729.33 891.881C729.252 893.672 729.559 895.459 730.23 897.121C731.447 900.43 733.271 903.483 735.61 906.121C738.633 909.735 742.381 912.675 746.61 914.751C748.551 915.74 750.655 916.37 752.82 916.611H753.31C754.088 916.623 754.859 916.47 755.573 916.161C756.287 915.853 756.927 915.396 757.45 914.821L757.52 914.751C757.898 914.303 758.313 913.888 758.76 913.511L759.66 912.611C759.991 912.298 760.257 911.923 760.443 911.507C760.629 911.091 760.731 910.643 760.743 910.188C760.755 909.733 760.677 909.279 760.513 908.854C760.35 908.429 760.104 908.041 759.79 907.711L759.71 907.621ZM758.12 911.211L757.29 912.041C756.8 912.461 756.39 912.941 755.91 913.421C755.589 913.753 755.201 914.014 754.772 914.186C754.343 914.358 753.882 914.438 753.42 914.421H753.08C751.193 914.223 749.362 913.659 747.69 912.761C743.731 910.82 740.225 908.067 737.4 904.681C735.294 902.185 733.606 899.366 732.4 896.331C731.762 894.999 731.479 893.524 731.58 892.051C731.606 891.668 731.707 891.293 731.879 890.95C732.051 890.607 732.289 890.301 732.58 890.051L734.93 887.701C735.057 887.559 735.211 887.443 735.382 887.361C735.554 887.278 735.74 887.231 735.93 887.221C736.122 887.222 736.311 887.266 736.484 887.349C736.657 887.432 736.809 887.552 736.93 887.701L738 889.001C738.216 889.248 738.45 889.479 738.7 889.691L740.63 891.631C740.908 891.893 741.079 892.25 741.11 892.631C741.1 892.821 741.053 893.007 740.971 893.179C740.888 893.35 740.773 893.504 740.63 893.631L740.01 894.251L738.28 895.981L738.21 896.051C737.97 896.258 737.801 896.536 737.727 896.844C737.654 897.153 737.679 897.477 737.8 897.771V897.841C738.382 899.184 739.15 900.44 740.08 901.571C741.839 903.818 743.962 905.754 746.36 907.301C746.644 907.49 746.945 907.651 747.26 907.781C747.498 907.881 747.729 907.998 747.95 908.131L748.02 908.201C748.335 908.367 748.696 908.422 749.046 908.359C749.396 908.295 749.714 908.116 749.95 907.851L752.37 905.441C752.456 905.318 752.566 905.213 752.692 905.132C752.818 905.052 752.96 904.997 753.107 904.971C753.255 904.945 753.406 904.948 753.553 904.981C753.699 905.013 753.838 905.074 753.96 905.161C754.068 905.235 754.16 905.331 754.23 905.441L758.1 909.301C758.365 909.524 758.53 909.843 758.56 910.188C758.59 910.532 758.482 910.875 758.26 911.141C758.23 911.111 758.17 911.161 758.12 911.211Z"
    fill="white"
    style="baseline-shift: 0px; fill: rgb(255, 255, 255); paint-order: normal; text-decoration: none solid rgb(61, 61, 61);">
  </path>
  <path
    d="M787.37 204.85H842.68C843.609 204.85 844.53 205.033 845.389 205.389C846.248 205.744 847.029 206.266 847.686 206.923C848.343 207.581 848.865 208.361 849.221 209.22C849.577 210.079 849.76 211 849.76 211.93V263.51C849.757 265.386 849.01 267.184 847.682 268.509C846.355 269.835 844.556 270.58 842.68 270.58H789.68C788.454 270.58 787.241 270.338 786.109 269.869C784.977 269.401 783.949 268.713 783.082 267.847C782.216 266.981 781.529 265.952 781.06 264.82C780.591 263.688 780.35 262.475 780.35 261.25V211.93C780.35 210.062 781.087 208.27 782.402 206.944C783.717 205.618 785.502 204.865 787.37 204.85Z"
    fill="#B2B6BB"
    style="baseline-shift: 0px; fill: rgb(178, 182, 187); paint-order: normal; text-decoration: none solid rgb(61, 61, 61);">
  </path>
  <path
    d="M823.46 231.921C823.462 230.251 822.968 228.617 822.042 227.228C821.115 225.838 819.797 224.755 818.255 224.115C816.712 223.475 815.014 223.307 813.376 223.632C811.738 223.958 810.233 224.762 809.052 225.943C807.871 227.124 807.067 228.628 806.742 230.267C806.416 231.905 806.584 233.603 807.224 235.145C807.864 236.688 808.948 238.006 810.337 238.932C811.727 239.859 813.36 240.353 815.03 240.351C817.266 240.351 819.41 239.463 820.991 237.882C822.572 236.301 823.46 234.156 823.46 231.921ZM808.7 231.921C808.698 230.668 809.068 229.443 809.762 228.401C810.456 227.359 811.444 226.546 812.601 226.065C813.757 225.585 815.03 225.458 816.259 225.701C817.487 225.944 818.616 226.546 819.503 227.431C820.389 228.316 820.993 229.444 821.238 230.672C821.483 231.9 821.358 233.174 820.879 234.331C820.4 235.488 819.589 236.477 818.548 237.173C817.507 237.869 816.282 238.241 815.03 238.241V238.241C814.199 238.242 813.376 238.08 812.608 237.762C811.841 237.445 811.143 236.98 810.555 236.393C809.967 235.806 809.5 235.109 809.182 234.342C808.864 233.574 808.7 232.751 808.7 231.921V231.921Z"
    fill="white"
    style="baseline-shift: 0px; fill: rgb(255, 255, 255); paint-order: normal; text-decoration: none solid rgb(61, 61, 61);">
  </path>
  <path
    d="M814.18 256.791C814.261 256.903 814.364 256.997 814.482 257.069C814.6 257.142 814.731 257.19 814.867 257.211C815.004 257.232 815.143 257.227 815.278 257.194C815.412 257.161 815.539 257.102 815.65 257.021C815.736 256.954 815.814 256.877 815.88 256.791L816.98 255.251L823.2 245.631C826.09 240.701 828.73 235.271 828.73 231.921C828.73 228.287 827.287 224.803 824.717 222.233C822.148 219.664 818.664 218.221 815.03 218.221C811.397 218.221 807.912 219.664 805.343 222.233C802.773 224.803 801.33 228.287 801.33 231.921V231.921C801.33 235.181 803.83 240.391 806.61 245.201L813.09 255.261C813.69 256.121 814.09 256.671 814.18 256.791ZM815.03 220.321C818.107 220.321 821.057 221.543 823.232 223.718C825.408 225.894 826.63 228.844 826.63 231.921C826.63 236.971 818.92 248.921 815.03 254.361C811.14 248.881 803.43 236.961 803.43 231.921C803.43 228.849 804.648 225.903 806.817 223.729C808.986 221.554 811.929 220.329 815 220.321H815.03Z"
    fill="white"
    style="baseline-shift: 0px; fill: rgb(255, 255, 255); paint-order: normal; text-decoration: none solid rgb(61, 61, 61);">
  </path>
  <path
    d="M506 929.43C507.662 929.773 509.237 930.448 510.63 931.416C512.024 932.383 513.208 933.623 514.11 935.06C515.899 937.945 517.004 941.202 517.34 944.58C518.18 951.08 516.15 958.34 513.52 964.33C507.06 961 503.85 953.2 502.52 949.14C500.34 942.72 500.29 929.8 506.05 929.43"
    class="change-color-in-svg" fill="#4D61FC"
    style="fill: rgb(54, 48, 98); baseline-shift: 0px; paint-order: normal; text-decoration: none solid rgb(61, 61, 61);">
  </path>
  <path
    d="M523.19 974C522.206 972.378 521.67 970.524 521.635 968.627C521.6 966.73 522.067 964.858 522.99 963.2C523.936 961.561 525.2 960.126 526.708 958.981C528.215 957.836 529.936 957.003 531.77 956.53C533.46 956.06 535.4 955.9 536.83 956.91C537.469 957.423 537.959 958.098 538.249 958.865C538.54 959.632 538.619 960.462 538.48 961.27C538.178 962.885 537.458 964.392 536.39 965.64C532.94 970.05 528.79 973.69 523.19 974"
    class="change-color-in-svg" fill="#4D61FC"
    style="fill: rgb(54, 48, 98); baseline-shift: 0px; paint-order: normal; text-decoration: none solid rgb(61, 61, 61);">
  </path>
  <path
    d="M510.36 977C508.775 973.33 506.34 970.091 503.255 967.548C500.171 965.006 496.525 963.235 492.62 962.38C490.62 961.97 488.17 961.98 487.04 963.66C485.91 965.34 486.81 967.66 487.98 969.31C490.481 972.739 493.941 975.351 497.923 976.818C501.906 978.284 506.233 978.539 510.36 977.55"
    class="change-color-in-svg" fill="#4D61FC"
    style="fill: rgb(54, 48, 98); baseline-shift: 0px; paint-order: normal; text-decoration: none solid rgb(61, 61, 61);">
  </path>
  <path
    d="M507.57 939.381C508.904 943.974 510.18 948.578 511.4 953.191C512.63 957.811 513.77 962.451 514.93 967.081C516.09 971.711 517.15 976.381 518.17 981.081C519.19 985.781 520.17 990.431 521.01 995.131L514.18 967.301L510.83 953.381C509.71 948.708 508.624 944.041 507.57 939.381Z"
    fill="#21252B"
    style="baseline-shift: 0px; fill: rgb(33, 37, 43); paint-order: normal; text-decoration: none solid rgb(61, 61, 61);">
  </path>
  <path
    d="M521.6 994.17C521.09 991.296 520.869 988.378 520.94 985.46C520.983 982.523 521.346 979.599 522.02 976.74C522.701 973.873 523.915 971.159 525.6 968.74C526.452 967.544 527.461 966.468 528.6 965.54C529.77 964.651 531.059 963.93 532.43 963.4C529.839 964.697 527.637 966.657 526.05 969.08C524.494 971.493 523.374 974.16 522.74 976.96C522.047 979.763 521.632 982.627 521.5 985.51C521.349 988.396 521.383 991.289 521.6 994.17V994.17Z"
    fill="#21252B"
    style="baseline-shift: 0px; fill: rgb(33, 37, 43); paint-order: normal; text-decoration: none solid rgb(61, 61, 61);">
  </path>
  <path
    d="M520.09 994.49C519.103 991.751 517.94 989.079 516.61 986.49C515.319 983.91 513.774 981.465 512 979.19C510.283 976.883 508.17 974.899 505.76 973.33C503.325 971.766 500.521 970.872 497.63 970.74C499.095 970.667 500.563 970.802 501.99 971.14C503.418 971.517 504.79 972.082 506.07 972.82C508.596 974.361 510.814 976.358 512.61 978.71C514.392 981.042 515.911 983.564 517.14 986.23C518.394 988.879 519.382 991.646 520.09 994.49V994.49Z"
    fill="#21252B"
    style="baseline-shift: 0px; fill: rgb(33, 37, 43); paint-order: normal; text-decoration: none solid rgb(61, 61, 61);">
  </path>
  <path
    d="M1182 929.43C1180.34 929.77 1178.76 930.445 1177.37 931.412C1175.97 932.38 1174.79 933.621 1173.89 935.06C1172.1 937.944 1170.99 941.201 1170.65 944.58C1169.82 951.08 1171.84 958.34 1174.47 964.33C1180.93 961 1184.14 953.2 1185.47 949.14C1187.65 942.72 1187.7 929.8 1181.94 929.43"
    class="change-color-in-svg" fill="#4D61FC"
    style="fill: rgb(54, 48, 98); baseline-shift: 0px; paint-order: normal; text-decoration: none solid rgb(61, 61, 61);">
  </path>
  <path
    d="M1164.85 974C1165.83 972.378 1166.37 970.525 1166.41 968.628C1166.44 966.732 1165.98 964.859 1165.06 963.2C1164.11 961.561 1162.84 960.127 1161.33 958.982C1159.83 957.837 1158.1 957.003 1156.27 956.53C1154.59 956.06 1152.64 955.9 1151.27 956.91C1150.63 957.422 1150.13 958.096 1149.84 958.863C1149.55 959.63 1149.47 960.461 1149.61 961.27C1149.91 962.885 1150.63 964.392 1151.7 965.64C1155.16 970.05 1159.3 973.69 1164.9 974"
    class="change-color-in-svg" fill="#4D61FC"
    style="fill: rgb(54, 48, 98); baseline-shift: 0px; paint-order: normal; text-decoration: none solid rgb(61, 61, 61);">
  </path>
  <path
    d="M1177.69 977C1179.27 973.331 1181.71 970.091 1184.79 967.548C1187.87 965.006 1191.52 963.235 1195.42 962.38C1197.42 961.97 1199.87 961.98 1201.01 963.66C1202.15 965.34 1201.23 967.66 1200.07 969.31C1197.57 972.738 1194.11 975.349 1190.13 976.816C1186.14 978.282 1181.82 978.537 1177.69 977.55"
    class="change-color-in-svg" fill="#4D61FC"
    style="fill: rgb(54, 48, 98); baseline-shift: 0px; paint-order: normal; text-decoration: none solid rgb(61, 61, 61);">
  </path>
  <path
    d="M1180.47 939.381C1179.14 943.974 1177.86 948.578 1176.64 953.191C1175.42 957.811 1174.27 962.451 1173.11 967.081C1171.95 971.711 1170.9 976.381 1169.88 981.081C1168.86 985.781 1167.88 990.431 1167.04 995.131L1173.86 967.301L1177.22 953.381C1178.33 948.708 1179.41 944.041 1180.47 939.381Z"
    fill="#21252B"
    style="baseline-shift: 0px; fill: rgb(33, 37, 43); paint-order: normal; text-decoration: none solid rgb(61, 61, 61);">
  </path>
  <path
    d="M1166.44 994.17C1166.95 991.296 1167.17 988.378 1167.1 985.46C1167.06 982.523 1166.69 979.599 1166.02 976.74C1165.33 973.874 1164.12 971.161 1162.44 968.74C1161.59 967.547 1160.58 966.471 1159.44 965.54C1158.27 964.651 1156.98 963.93 1155.61 963.4C1158.2 964.694 1160.4 966.655 1161.98 969.08C1163.54 971.493 1164.66 974.16 1165.3 976.96C1165.99 979.764 1166.4 982.627 1166.54 985.51C1166.69 988.396 1166.66 991.289 1166.44 994.17V994.17Z"
    fill="#21252B"
    style="baseline-shift: 0px; fill: rgb(33, 37, 43); paint-order: normal; text-decoration: none solid rgb(61, 61, 61);">
  </path>
  <path
    d="M1168 994.49C1168.99 991.751 1170.15 989.079 1171.48 986.49C1172.78 983.912 1174.32 981.467 1176.09 979.19C1177.81 976.885 1179.92 974.901 1182.33 973.33C1184.77 971.767 1187.57 970.874 1190.46 970.74C1189 970.668 1187.53 970.802 1186.1 971.14C1184.67 971.517 1183.3 972.082 1182.02 972.82C1179.5 974.361 1177.28 976.358 1175.49 978.71C1173.7 981.042 1172.18 983.563 1170.95 986.23C1169.7 988.878 1168.71 991.645 1168 994.49V994.49Z"
    fill="#21252B"
    style="baseline-shift: 0px; fill: rgb(33, 37, 43); paint-order: normal; text-decoration: none solid rgb(61, 61, 61);">
  </path>
  <path
    d="M1043.27 954.001C1042.57 956.172 1042.3 958.456 1042.46 960.731L1042.39 979.731C1042.47 983.035 1043.41 986.262 1045.1 989.101L1045.46 989.761C1045.93 990.585 1046.62 991.269 1047.44 991.745C1048.26 992.221 1049.2 992.471 1050.15 992.471H1055.56C1056.77 992.474 1057.95 992.072 1058.9 991.329C1059.86 990.586 1060.53 989.544 1060.83 988.371C1061.55 985.569 1061.65 982.644 1061.12 979.801L1056.51 959.461C1056.21 957.561 1055.64 955.714 1054.83 953.971H1043.27V954.001Z"
    fill="#21252B"
    style="baseline-shift: 0px; fill: rgb(33, 37, 43); paint-order: normal; text-decoration: none solid rgb(61, 61, 61);">
  </path>
  <path
    d="M965.47 909.459L962.11 945.679C961.89 949.929 960.79 952.559 959.54 954.319L946.37 981.099L950.03 986.099L964.38 978.999L977.11 955.939C977.172 952.063 977.539 948.197 978.21 944.379L982 905.289L965.47 909.459Z"
    fill="#FC9D9D"
    style="baseline-shift: 0px; fill: rgb(252, 157, 157); paint-order: normal; text-decoration: none solid rgb(61, 61, 61);">
  </path>
  <path opacity="0.15"
    d="M961.74 957.831C963.462 954.841 964.719 951.608 965.47 948.241L969.86 934.781C969.934 934.322 970.151 933.898 970.479 933.57C970.808 933.241 971.231 933.025 971.69 932.951L980.4 931.781L980.55 929.881H963.55L962.08 945.681C961.79 948.391 961.08 951.981 959.52 954.321L946.37 981.101L948.64 984.831L961.74 957.831Z"
    fill="black"
    style="baseline-shift: 0px; fill: rgb(0, 0, 0); opacity: 0.15; paint-order: normal; text-decoration: none solid rgb(61, 61, 61);">
  </path>
  <path
    d="M938.83 985.72L946.37 981.18C949.048 981.614 951.793 981.342 954.334 980.391C956.875 979.441 959.124 977.845 960.86 975.76L977.18 956C980.099 962.306 981.14 969.318 980.18 976.2L977.84 992.59H975.94L975.43 975.76C975.421 975.491 975.331 975.23 975.17 975.014C975.009 974.798 974.786 974.636 974.53 974.55C974.275 974.48 974.005 974.48 973.75 974.55C973.491 974.628 973.261 974.781 973.09 974.99L963.09 987.13C961.685 988.838 959.921 990.216 957.923 991.165C955.925 992.114 953.742 992.611 951.53 992.62H936.05C935.771 992.627 935.496 992.562 935.25 992.43C935.005 992.299 934.795 992.11 934.64 991.88C934.486 991.645 934.395 991.375 934.374 991.095C934.353 990.816 934.403 990.535 934.52 990.28C934.901 989.273 935.479 988.351 936.219 987.569C936.958 986.786 937.846 986.158 938.83 985.72Z"
    fill="#21252B"
    style="baseline-shift: 0px; fill: rgb(33, 37, 43); paint-order: normal; text-decoration: none solid rgb(61, 61, 61);">
  </path>
  <path
    d="M1042.46 945.459C1043.27 952.285 1043.6 959.158 1043.46 966.029L1043.31 974.229C1043.37 975.955 1044.1 977.588 1045.35 978.789C1046.59 979.989 1048.24 980.663 1049.97 980.669H1051.14C1052.01 980.675 1052.87 980.508 1053.68 980.181C1054.48 979.853 1055.21 979.37 1055.83 978.759C1056.45 978.148 1056.94 977.421 1057.28 976.62C1057.62 975.818 1057.8 974.959 1057.8 974.089C1057.8 973.755 1057.78 973.421 1057.73 973.089L1055.83 963.359C1054.87 958.42 1054.54 953.381 1054.83 948.359L1056.66 915.279L1039.61 915.569L1042.46 945.459Z"
    fill="#FC9D9D"
    style="baseline-shift: 0px; fill: rgb(252, 157, 157); paint-order: normal; text-decoration: none solid rgb(61, 61, 61);">
  </path>
  <path opacity="0.15"
    d="M1041.07 929.881C1041.07 929.881 1043.07 951.101 1043.27 953.951V954.001C1043.49 958.001 1043.64 962.001 1043.56 966.001L1043.42 974.201C1043.48 975.878 1044.17 977.472 1045.35 978.665C1046.53 979.859 1048.11 980.564 1049.79 980.641C1046.64 978.221 1046.93 974.271 1046.86 971.341L1046.35 935.411C1046.34 934.837 1046.54 934.28 1046.91 933.839C1047.27 933.397 1047.79 933.1 1048.35 933.001L1055.96 931.611L1056 930.001L1041.07 929.881Z"
    fill="black"
    style="baseline-shift: 0px; fill: rgb(0, 0, 0); opacity: 0.15; paint-order: normal; text-decoration: none solid rgb(61, 61, 61);">
  </path>
  <path
    d="M1040.8 673.799L1042 678.439C1046.03 693.916 1048.76 709.7 1050.18 725.629L1050.4 728.089C1051.65 742.149 1052.4 756.209 1052.82 770.349L1058.92 939.909H1039.86L1005.72 713.999C1005.62 713.273 1005.27 712.606 1004.72 712.119C1004.17 711.639 1003.45 711.38 1002.72 711.389C1001.95 711.382 1001.2 711.672 1000.64 712.199C1000.06 712.712 999.703 713.428 999.64 714.199L981.64 939.769L961 939.679L957.19 776.889C956.19 728.889 962.27 677.969 962.34 678.359L963.34 673.539L1040.8 673.799Z"
    class="change-color-in-svg" fill="#4D61FC"
    style="fill: rgb(54, 48, 98); baseline-shift: 0px; paint-order: normal; text-decoration: none solid rgb(61, 61, 61);">
  </path>
  <path d="M982.98 935.85H960.45V940.02H982.98V935.85Z" class="change-color-in-svg" fill="#4D61FC"
    style="fill: rgb(54, 48, 98); baseline-shift: 0px; paint-order: normal; text-decoration: none solid rgb(61, 61, 61);">
  </path>
  <path opacity="0.2" d="M982.98 935.85H960.45V940.02H982.98V935.85Z" fill="black"
    style="baseline-shift: 0px; fill: rgb(0, 0, 0); opacity: 0.2; paint-order: normal; text-decoration: none solid rgb(61, 61, 61);">
  </path>
  <path d="M1059.75 935.85H1038.89V940.02H1059.75V935.85Z" class="change-color-in-svg" fill="#4D61FC"
    style="fill: rgb(54, 48, 98); baseline-shift: 0px; paint-order: normal; text-decoration: none solid rgb(61, 61, 61);">
  </path>
  <path opacity="0.2" d="M1059.75 935.85H1038.89V940.02H1059.75V935.85Z" fill="black"
    style="baseline-shift: 0px; fill: rgb(0, 0, 0); opacity: 0.2; paint-order: normal; text-decoration: none solid rgb(61, 61, 61);">
  </path>
  <path opacity="0.2"
    d="M1002.52 711.34C1001.75 711.349 1001 711.629 1000.41 712.13C1000.13 712.382 999.896 712.689 999.734 713.033C999.572 713.377 999.483 713.75 999.47 714.13L981.66 939.83H974.86L988.14 727.13C989.55 713.1 993.77 711.34 1002.52 711.34Z"
    fill="black"
    style="baseline-shift: 0px; fill: rgb(0, 0, 0); opacity: 0.2; paint-order: normal; text-decoration: none solid rgb(61, 61, 61);">
  </path>
  <path
    d="M1029.54 480.92C1029.54 480.92 1049.66 470.1 1046.54 539.75V547.67H1021L1021.13 491.5C1021.13 489.047 1021.97 486.667 1023.49 484.746C1025.02 482.826 1027.15 481.477 1029.54 480.92V480.92Z"
    fill="black"
    style="baseline-shift: 0px; fill: rgb(0, 0, 0); paint-order: normal; text-decoration: none solid rgb(61, 61, 61);">
  </path>
  <path opacity="0.2"
    d="M1058.84 939.999C1055.47 880.849 1057.2 734.809 1041.84 676.359C1041.78 676.809 1032.06 676.229 1032.16 676.589C1032.43 677.669 1032.69 678.759 1032.95 679.839L1027.52 679.899L1024.76 685.459L1023.6 682.979C1023.5 682.729 1023.31 682.526 1023.07 682.417C1022.82 682.307 1022.55 682.299 1022.29 682.394C1022.04 682.49 1021.84 682.681 1021.73 682.926C1021.62 683.17 1021.61 683.449 1021.71 683.699C1022.23 686.359 1023.92 692.969 1037.27 700.489V700.169C1048.67 763.869 1045.85 843.099 1050.89 939.999H1058.84Z"
    fill="black"
    style="baseline-shift: 0px; fill: rgb(0, 0, 0); opacity: 0.2; paint-order: normal; text-decoration: none solid rgb(61, 61, 61);">
  </path>
  <path
    d="M1028.05 682.15L1025.29 687.2C1025.29 687.2 1032.29 694.65 1038.69 698.37C1040.18 694.904 1040.87 691.141 1040.69 687.37L1028.05 682.15Z"
    fill="#FC9D9D"
    style="baseline-shift: 0px; fill: rgb(252, 157, 157); paint-order: normal; text-decoration: none solid rgb(61, 61, 61);">
  </path>
  <path d="M954.3 599.9C942.3 613.45 931 630.25 916.3 608.59L889.86 552.72L900.86 546.01L930.35 590.55L937.9 579.55"
    fill="#FC9D9D"
    style="baseline-shift: 0px; fill: rgb(252, 157, 157); paint-order: normal; text-decoration: none solid rgb(61, 61, 61);">
  </path>
  <path d="M954.3 599.901C957.74 595.091 960.83 590.361 963.49 587.051L959.73 547.801L938 579.551L954.3 599.901Z"
    fill="#21252B"
    style="baseline-shift: 0px; fill: rgb(33, 37, 43); paint-order: normal; text-decoration: none solid rgb(61, 61, 61);">
  </path>
  <path d="M937.95 579.55L940.27 576.16L956.98 596.08L954.3 599.9L937.95 579.55Z" fill="white"
    style="baseline-shift: 0px; fill: rgb(255, 255, 255); paint-order: normal; text-decoration: none solid rgb(61, 61, 61);">
  </path>
  <path
    d="M1041.53 676.73C1041.74 676.728 1041.95 676.685 1042.15 676.602C1042.35 676.52 1042.52 676.399 1042.67 676.248C1042.82 676.097 1042.94 675.917 1043.02 675.72C1043.1 675.523 1043.14 675.312 1043.14 675.1C1043.15 675.04 1043.15 674.98 1043.14 674.92C1042.44 668.99 1040.22 653.1 1039.39 645.62C1036.17 616.54 1045.27 581.99 1045.27 581.99L1059.87 564.78C1060.41 555.43 1054.27 546.66 1045.36 544.5L1020.54 538.6H984.65L966.56 543C957.14 546 955.56 554.24 955.64 564.13L956.01 571.32L952.07 584.89C949.8 593.63 952.75 598.73 958.8 605.8C960.7 608 961.7 608.92 962.47 613.2C962.47 613.2 963.09 627.13 963.75 632.86C965.25 645.36 961.94 663.07 961.19 675.54C961.166 675.968 961.312 676.388 961.597 676.709C961.882 677.029 962.282 677.224 962.71 677.25H962.83L1041.53 676.73Z"
    fill="#21252B"
    style="baseline-shift: 0px; fill: rgb(33, 37, 43); paint-order: normal; text-decoration: none solid rgb(61, 61, 61);">
  </path>
  <path opacity="0.3"
    d="M1020 554.84C1020 554.84 1018 548.3 1014.54 547.58C1010.13 549.773 1005.94 552.364 1002 555.32L999.74 557C999.74 557 996.14 549.73 989.31 547.55C986.763 549.149 984.691 551.4 983.31 554.07L983.83 543.92L1017.34 543.15C1017.34 543.15 1021.4 551.93 1020 554.84Z"
    fill="black"
    style="baseline-shift: 0px; fill: rgb(0, 0, 0); opacity: 0.3; paint-order: normal; text-decoration: none solid rgb(61, 61, 61);">
  </path>
  <path
    d="M1017.58 534.841L1018.95 536.141C1018.95 536.141 1024.22 544.671 1021.16 554.321L1020.16 554.841L1020.07 554.011C1019.92 552.307 1019.34 550.67 1018.38 549.249C1017.43 547.829 1016.14 546.67 1014.62 545.881V545.881C1009 548.159 1003.93 551.609 999.74 556.001C999.74 556.001 996.12 548.131 989.83 546.001C989.83 546.001 985.23 546.781 983.71 554.061L982.78 553.881C982.78 553.881 980.62 543.111 985.47 536.971L988.47 534.191C989.272 533.673 990.205 533.395 991.16 533.391H1014.16C1015.44 533.424 1016.66 533.942 1017.58 534.841V534.841Z"
    fill="white"
    style="baseline-shift: 0px; fill: rgb(255, 255, 255); paint-order: normal; text-decoration: none solid rgb(61, 61, 61);">
  </path>
  <path
    d="M1016.33 508.05L1017.04 534.26C1017.04 535.26 1003.84 549.85 1000.16 550.7C995.64 549.85 989.65 535.55 989.75 534.6L993.18 503.5L1016.33 508.05Z"
    fill="#FC9D9D"
    style="baseline-shift: 0px; fill: rgb(252, 157, 157); paint-order: normal; text-decoration: none solid rgb(61, 61, 61);">
  </path>
  <path opacity="0.2"
    d="M991 525.519C995.72 528.589 1003.36 527.309 1008.89 524.609C1009.74 526.519 1003.24 528.339 1001.64 528.609C1000.07 529.847 998.245 530.713 996.295 531.143C994.344 531.572 992.322 531.554 990.38 531.089L991 525.519Z"
    fill="black"
    style="baseline-shift: 0px; fill: rgb(0, 0, 0); opacity: 0.2; paint-order: normal; text-decoration: none solid rgb(61, 61, 61);">
  </path>
  <path
    d="M1027.09 494.731C1030.49 494.731 1033.25 491.055 1033.25 486.521C1033.25 481.986 1030.49 478.311 1027.09 478.311C1023.69 478.311 1020.93 481.986 1020.93 486.521C1020.93 491.055 1023.69 494.731 1027.09 494.731Z"
    class="change-color-in-svg" fill="#4D61FC"
    style="fill: rgb(54, 48, 98); baseline-shift: 0px; paint-order: normal; text-decoration: none solid rgb(61, 61, 61);">
  </path>
  <path
    d="M998.12 527.38H999.35C1003.62 527.559 1007.78 526.038 1010.93 523.152C1014.08 520.265 1015.96 516.248 1016.15 511.98L1017.15 489.33C1017.21 487.903 1016.71 486.51 1015.74 485.457C1014.78 484.403 1013.44 483.775 1012.01 483.71L990.92 482.8C989.076 482.73 987.279 483.392 985.92 484.64C985.245 485.259 984.701 486.007 984.32 486.84C983.931 487.672 983.71 488.572 983.67 489.49L982.76 510.49C982.587 514.757 984.109 518.919 986.995 522.067C989.88 525.215 993.895 527.093 998.16 527.29L998.12 527.38Z"
    fill="#FC9D9D"
    style="baseline-shift: 0px; fill: rgb(252, 157, 157); paint-order: normal; text-decoration: none solid rgb(61, 61, 61);">
  </path>
  <path
    d="M1030.54 491.27C1030.85 501.05 1022.99 512.17 1017.74 516.33C1017.26 516.71 1016.63 516.66 1016.61 516.05L1016.11 503.05C1010.7 511.86 1012.68 496.05 1012.88 492.41C1011.11 492.044 1009.46 491.265 1008.06 490.137C1006.65 489.009 1005.53 487.564 1004.79 485.92C1000.08 490.98 992.64 492.06 986.07 491.12C985.839 491.03 985.592 490.986 985.344 490.99C985.096 490.995 984.851 491.049 984.623 491.148C984.396 491.247 984.19 491.39 984.018 491.569C983.846 491.748 983.711 491.959 983.62 492.19V492.27C983.45 492.34 983.16 502.14 983.1 502.62C978.29 497.78 974.5 487.62 980.87 482.55C984.35 480.84 984.31 477.48 986.73 474.72C998.66 456.41 1033.73 469.45 1030.59 491.3"
    fill="black"
    style="baseline-shift: 0px; fill: rgb(0, 0, 0); paint-order: normal; text-decoration: none solid rgb(61, 61, 61);">
  </path>
  <path
    d="M1015 512.9C1015 512.9 1022.61 514.16 1024.88 506.69C1027.15 499.22 1017.88 497.03 1015.88 504.56L1014.14 512.82L1015 512.9Z"
    fill="#FC9D9D"
    style="baseline-shift: 0px; fill: rgb(252, 157, 157); paint-order: normal; text-decoration: none solid rgb(61, 61, 61);">
  </path>
  <path opacity="0.2"
    d="M1022.82 502.48C1022.52 502.197 1022.16 501.98 1021.77 501.842C1021.38 501.705 1020.96 501.649 1020.55 501.68C1020.15 501.749 1019.76 501.902 1019.42 502.13C1019.08 502.355 1018.79 502.652 1018.57 503C1017.95 503.849 1017.56 504.845 1017.45 505.89L1017.34 506.68C1017.25 507.29 1018.28 507.56 1018.34 506.85L1018.47 505.97C1018.58 505.117 1018.88 504.3 1019.35 503.58C1019.49 503.344 1019.68 503.14 1019.9 502.98C1020.13 502.822 1020.38 502.71 1020.65 502.65C1020.93 502.637 1021.21 502.684 1021.47 502.788C1021.74 502.891 1021.97 503.049 1022.17 503.25C1022.22 503.292 1022.28 503.322 1022.34 503.34C1022.41 503.355 1022.47 503.355 1022.54 503.34C1022.6 503.337 1022.66 503.32 1022.72 503.29C1022.78 503.258 1022.83 503.214 1022.87 503.16C1022.91 503.109 1022.95 503.052 1022.97 502.99C1022.98 502.924 1022.98 502.856 1022.97 502.79C1022.98 502.728 1022.98 502.663 1022.97 502.6C1022.93 502.543 1022.89 502.493 1022.84 502.45L1022.82 502.48Z"
    fill="black"
    style="baseline-shift: 0px; fill: rgb(0, 0, 0); opacity: 0.2; paint-order: normal; text-decoration: none solid rgb(61, 61, 61);">
  </path>
  <path
    d="M1017.25 511.9C1017.55 511.902 1017.85 511.814 1018.11 511.646C1018.36 511.478 1018.56 511.238 1018.68 510.957C1018.8 510.675 1018.83 510.365 1018.77 510.066C1018.71 509.767 1018.57 509.491 1018.35 509.275C1018.14 509.059 1017.86 508.911 1017.56 508.851C1017.26 508.79 1016.95 508.82 1016.67 508.937C1016.39 509.053 1016.15 509.25 1015.98 509.504C1015.81 509.757 1015.72 510.055 1015.72 510.36V510.36C1015.72 510.562 1015.76 510.762 1015.83 510.949C1015.91 511.136 1016.02 511.305 1016.16 511.449C1016.31 511.592 1016.48 511.705 1016.66 511.783C1016.85 511.86 1017.05 511.9 1017.25 511.9V511.9Z"
    class="change-color-in-svg" fill="#4D61FC"
    style="fill: rgb(54, 48, 98); baseline-shift: 0px; paint-order: normal; text-decoration: none solid rgb(61, 61, 61);">
  </path>
  <path opacity="0.15"
    d="M1016.63 511.61C1016.85 511.627 1017.07 511.602 1017.28 511.535C1017.48 511.467 1017.68 511.359 1017.84 511.217C1018.01 511.075 1018.15 510.901 1018.25 510.706C1018.34 510.511 1018.4 510.298 1018.42 510.08C1018.44 509.768 1018.37 509.458 1018.23 509.18C1018.48 509.39 1018.65 509.668 1018.74 509.98C1018.82 510.296 1018.8 510.628 1018.67 510.93C1018.55 511.232 1018.34 511.488 1018.06 511.66C1017.79 511.831 1017.47 511.912 1017.15 511.891C1016.83 511.869 1016.53 511.746 1016.28 511.54C1016.39 511.578 1016.51 511.602 1016.63 511.61V511.61Z"
    fill="black"
    style="baseline-shift: 0px; fill: rgb(0, 0, 0); opacity: 0.15; paint-order: normal; text-decoration: none solid rgb(61, 61, 61);">
  </path>
  <path opacity="0.3" d="M1016.46 513H1013.99L1016.6 518.27L1016.46 513Z" fill="black"
    style="baseline-shift: 0px; fill: rgb(0, 0, 0); opacity: 0.3; paint-order: normal; text-decoration: none solid rgb(61, 61, 61);">
  </path>
  <path opacity="0.15"
    d="M954.54 600.28C951.28 603.84 944.69 611.13 940.24 614.48C940.24 614.48 931.01 624.74 920.41 613.72C927.34 620.92 936.65 613.42 942.97 603.46C946.78 596.46 943.62 595.96 945.47 588.92L954.54 600.28Z"
    fill="black"
    style="baseline-shift: 0px; fill: rgb(0, 0, 0); opacity: 0.15; paint-order: normal; text-decoration: none solid rgb(61, 61, 61);">
  </path>
  <path opacity="0.15"
    d="M930.71 590.78L933.6 593.47C933.644 593.595 933.728 593.701 933.839 593.771C933.95 593.842 934.082 593.874 934.213 593.861C934.344 593.849 934.467 593.792 934.563 593.702C934.658 593.611 934.721 593.491 934.74 593.36L932.74 588.07L930.71 590.78Z"
    fill="black"
    style="baseline-shift: 0px; fill: rgb(0, 0, 0); opacity: 0.15; paint-order: normal; text-decoration: none solid rgb(61, 61, 61);">
  </path>
  <path opacity="0.4"
    d="M1028.35 665.66C1028.35 670.28 1028.35 677.09 1028.45 681.95L1041.95 681.82C1042.28 681.817 1042.59 681.684 1042.83 681.45C1043.06 681.216 1043.19 680.9 1043.19 680.57C1043.19 680.52 1043.19 680.48 1043.19 680.43C1042.55 675.02 1040.55 653.24 1039.39 645.62C1036.67 627.81 1041.8 598.06 1041.8 598.06L1039.58 583.77C1039.51 583.343 1039.28 582.96 1038.93 582.705C1038.58 582.45 1038.15 582.344 1037.72 582.41H1037.56C1037.29 582.479 1037.04 582.617 1036.84 582.812C1036.64 583.007 1036.49 583.251 1036.41 583.52C1035.29 587.36 1030.88 602.84 1030.26 611.86C1029.74 619.42 1029.17 627.99 1028.8 639.03L1028.35 665.66Z"
    fill="black"
    style="baseline-shift: 0px; fill: rgb(0, 0, 0); opacity: 0.4; paint-order: normal; text-decoration: none solid rgb(61, 61, 61);">
  </path>
  <path
    d="M1064.43 599.061L1067.72 625.191C1067.97 627.515 1067.63 629.866 1066.72 632.021L1039.72 690.391L1026.38 687.311L1045.54 626.231L1042.43 603.231"
    fill="#FC9D9D"
    style="baseline-shift: 0px; fill: rgb(252, 157, 157); paint-order: normal; text-decoration: none solid rgb(61, 61, 61);">
  </path>
  <path
    d="M1042.46 603.19L1041.4 595.35L1043.19 583.51C1042.87 572.34 1047.59 565.51 1053.36 555.9L1059.76 561.97L1064.43 599.06L1042.46 603.19Z"
    fill="#21252B"
    style="baseline-shift: 0px; fill: rgb(33, 37, 43); paint-order: normal; text-decoration: none solid rgb(61, 61, 61);">
  </path>
  <path d="M1042.46 603.19L1041.83 598.52L1063.87 594.58L1064.43 599.06L1042.46 603.19Z" fill="white"
    style="baseline-shift: 0px; fill: rgb(255, 255, 255); paint-order: normal; text-decoration: none solid rgb(61, 61, 61);">
  </path>
  <path
    d="M1000.54 501.001C1000.89 501.011 1001.24 501.126 1001.53 501.331C1001.82 501.537 1002.04 501.823 1002.16 502.154C1002.29 502.486 1002.31 502.847 1002.23 503.192C1002.15 503.537 1001.97 503.851 1001.72 504.094C1001.46 504.337 1001.13 504.497 1000.78 504.556C1000.43 504.614 1000.07 504.567 999.752 504.421C999.429 504.275 999.156 504.036 998.969 503.736C998.782 503.435 998.688 503.085 998.7 502.731V502.731C998.716 502.258 998.918 501.81 999.263 501.486C999.608 501.162 1000.07 500.987 1000.54 501.001V501.001Z"
    fill="black"
    style="baseline-shift: 0px; fill: rgb(0, 0, 0); paint-order: normal; text-decoration: none solid rgb(61, 61, 61);">
  </path>
  <path
    d="M999.69 502.65C999.873 502.65 1000.02 502.503 1000.02 502.32C1000.02 502.138 999.873 501.99 999.69 501.99C999.508 501.99 999.36 502.138 999.36 502.32C999.36 502.503 999.508 502.65 999.69 502.65Z"
    fill="white"
    style="baseline-shift: 0px; fill: rgb(255, 255, 255); paint-order: normal; text-decoration: none solid rgb(61, 61, 61);">
  </path>
  <path
    d="M986.58 504.641C987.569 504.641 988.37 503.839 988.37 502.851C988.37 501.862 987.569 501.061 986.58 501.061C985.591 501.061 984.79 501.862 984.79 502.851C984.79 503.839 985.591 504.641 986.58 504.641Z"
    fill="black"
    style="baseline-shift: 0px; fill: rgb(0, 0, 0); paint-order: normal; text-decoration: none solid rgb(61, 61, 61);">
  </path>
  <path
    d="M985.89 503.12C986.067 503.12 986.21 502.977 986.21 502.8C986.21 502.624 986.067 502.48 985.89 502.48C985.714 502.48 985.57 502.624 985.57 502.8C985.57 502.977 985.714 503.12 985.89 503.12Z"
    fill="white"
    style="baseline-shift: 0px; fill: rgb(255, 255, 255); paint-order: normal; text-decoration: none solid rgb(61, 61, 61);">
  </path>
  <path opacity="0.2"
    d="M992.58 512.889L994.85 513.039C994.96 513.017 995.059 512.961 995.135 512.879C995.211 512.797 995.259 512.694 995.272 512.583C995.286 512.472 995.264 512.36 995.209 512.262C995.155 512.164 995.071 512.086 994.97 512.039L992.7 511.879C992.13 511.779 991.7 511.279 991.76 510.789C991.769 510.656 991.804 510.526 991.864 510.406C991.924 510.287 992.007 510.181 992.109 510.094C992.211 510.008 992.329 509.942 992.456 509.902C992.583 509.861 992.717 509.847 992.85 509.859C992.982 509.845 993.106 509.793 993.209 509.709C993.312 509.626 993.389 509.515 993.43 509.389C993.52 509.149 993.21 508.889 992.97 508.799C992.425 508.765 991.887 508.94 991.466 509.29C991.046 509.639 990.776 510.136 990.71 510.679C990.675 510.945 990.695 511.215 990.766 511.474C990.838 511.732 990.961 511.974 991.128 512.184C991.295 512.394 991.503 512.568 991.738 512.696C991.974 512.824 992.233 512.903 992.5 512.929L992.58 512.889Z"
    fill="black"
    style="baseline-shift: 0px; fill: rgb(0, 0, 0); opacity: 0.2; paint-order: normal; text-decoration: none solid rgb(61, 61, 61);">
  </path>
  <path
    d="M998.5 515.561C998.75 515.561 998.84 515.741 998.8 515.951C998.587 516.781 998.125 517.526 997.476 518.087C996.828 518.647 996.024 518.997 995.171 519.088C994.319 519.179 993.459 519.008 992.706 518.598C991.954 518.187 991.345 517.557 990.96 516.791C990.941 516.754 990.929 516.715 990.925 516.674C990.921 516.634 990.926 516.593 990.938 516.554C990.95 516.514 990.969 516.478 990.996 516.447C991.022 516.415 991.054 516.389 991.09 516.371H991.17L998.5 515.561Z"
    fill="white"
    style="baseline-shift: 0px; fill: rgb(255, 255, 255); paint-order: normal; text-decoration: none solid rgb(61, 61, 61);">
  </path>
  <path
    d="M979.87 501.201L979.95 503.101C980.043 504.79 980.793 506.375 982.039 507.518C983.285 508.662 984.929 509.273 986.62 509.22C988.31 509.168 989.913 508.457 991.087 507.239C992.26 506.021 992.911 504.392 992.9 502.701V502.701L992.82 500.811C992.845 500.261 992.655 499.723 992.29 499.311L994.82 499.231C994.646 499.437 994.515 499.676 994.436 499.934C994.357 500.192 994.331 500.463 994.36 500.731L994.43 502.621C994.43 504.345 995.114 505.998 996.333 507.217C997.552 508.436 999.206 509.121 1000.93 509.121C1002.65 509.121 1004.31 508.436 1005.53 507.217C1006.74 505.998 1007.43 504.345 1007.43 502.621C1007.43 502.491 1007.43 502.361 1007.43 502.231L1007.35 500.341C1007.34 499.703 1007.07 499.095 1006.61 498.651C1006.15 498.207 1005.54 497.963 1004.9 497.971L996.78 498.211H996.7L990.42 498.371H989.42L982.22 498.601C981.571 498.654 980.967 498.953 980.53 499.436C980.093 499.919 979.857 500.55 979.87 501.201V501.201ZM996.57 499.201L1004.77 498.971C1005.15 498.971 1005.52 499.119 1005.79 499.384C1006.06 499.649 1006.22 500.011 1006.23 500.391L1006.3 502.281C1006.39 503.031 1006.33 503.792 1006.11 504.516C1005.89 505.24 1005.53 505.913 1005.05 506.491C1004.56 507.07 1003.96 507.542 1003.28 507.88C1002.61 508.217 1001.87 508.412 1001.11 508.453C1000.36 508.493 999.605 508.378 998.897 508.115C998.189 507.852 997.542 507.446 996.997 506.923C996.452 506.4 996.02 505.77 995.728 505.073C995.436 504.376 995.29 503.626 995.3 502.871C995.294 502.778 995.294 502.684 995.3 502.591L995.22 500.701C995.253 500.334 995.407 499.989 995.656 499.718C995.906 499.447 996.237 499.265 996.6 499.201H996.57ZM980.79 501.201C980.781 500.821 980.92 500.453 981.177 500.173C981.435 499.893 981.79 499.724 982.17 499.701L989.37 499.471H990.37C990.749 499.471 991.113 499.619 991.384 499.885C991.656 500.15 991.812 500.512 991.82 500.891L991.9 502.781C991.99 503.531 991.925 504.292 991.71 505.016C991.494 505.74 991.132 506.413 990.646 506.991C990.16 507.57 989.56 508.042 988.884 508.38C988.208 508.717 987.469 508.912 986.715 508.953C985.96 508.993 985.205 508.878 984.497 508.615C983.789 508.352 983.142 507.946 982.597 507.423C982.052 506.9 981.62 506.27 981.328 505.573C981.036 504.876 980.89 504.126 980.9 503.371C980.894 503.278 980.894 503.184 980.9 503.091L980.79 501.201Z"
    fill="black"
    style="baseline-shift: 0px; fill: rgb(0, 0, 0); paint-order: normal; text-decoration: none solid rgb(61, 61, 61);">
  </path>
  <path d="M1015.44 498.854L1007.19 499.746L1007.31 500.83L1015.56 499.938L1015.44 498.854Z" fill="black"
    style="baseline-shift: 0px; fill: rgb(0, 0, 0); paint-order: normal; text-decoration: none solid rgb(61, 61, 61);">
  </path>
  <path
    d="M900.35 554.64C900.35 554.64 904.21 540.75 903.73 538.09L899 522.62C899 522.62 897.76 522.04 897.08 524.94C896.71 526.835 896.959 528.798 897.79 530.54L897.16 534.29L894.82 531.86L890.99 521.86C890.99 521.86 888.74 515.23 887.37 515.58C884.95 516.21 886.37 518.78 887.49 521.91C888.61 525.04 890 529 890 529C890 529 890.36 530.25 888.81 528.31C887.26 526.37 884.45 517.57 883.81 516.43C883.17 515.29 882.43 512.11 880.62 512.58C878.81 513.05 880.57 516.99 880.57 516.99L884.57 529.99C884.57 529.99 881.96 524.92 881.48 524.06C881 523.2 880 520.36 879.13 518.87C878.26 517.38 877.13 516.7 876.37 516.94C875.984 517.025 875.646 517.255 875.426 517.583C875.206 517.911 875.122 518.311 875.19 518.7L879.8 529.64C879.8 529.64 882.17 534.58 882.12 534.93C882.07 535.28 879.75 533.1 879.75 533.1L877.67 529.65C877.67 529.65 875.59 524.65 874.16 524.65C872.73 524.65 872.85 525.81 872.85 525.81L876.74 534.99L882.74 545.13L889.99 552.85C889.99 552.85 892.8 558.75 893.06 559C893.32 559.25 900.35 554.64 900.35 554.64Z"
    fill="#FC9D9D"
    style="baseline-shift: 0px; fill: rgb(252, 157, 157); paint-order: normal; text-decoration: none solid rgb(61, 61, 61);">
  </path>
  <g opacity="0.2"
    style="baseline-shift: 0px; opacity: 0.2; paint-order: normal; text-decoration: none solid rgb(61, 61, 61);">
    <path
      d="M894.13 544.76C894.064 544.759 893.999 544.737 893.945 544.698C893.891 544.659 893.851 544.603 893.83 544.54C892.4 539.74 895.22 534.42 895.34 534.19C895.382 534.12 895.449 534.07 895.528 534.049C895.606 534.029 895.69 534.04 895.76 534.08C895.795 534.099 895.826 534.124 895.851 534.155C895.876 534.186 895.895 534.222 895.906 534.26C895.917 534.298 895.921 534.338 895.916 534.378C895.912 534.417 895.9 534.455 895.88 534.49C895.88 534.49 893.06 539.81 894.42 544.36C894.446 544.438 894.439 544.523 894.401 544.596C894.364 544.67 894.299 544.725 894.22 544.75H894.13V544.76Z"
      fill="black"
      style="baseline-shift: 0px; fill: rgb(0, 0, 0); paint-order: normal; text-decoration: none solid rgb(61, 61, 61);">
    </path>
  </g>
  <path opacity="0.4"
    d="M954.54 600.28C955.22 599.54 954.61 600.12 954.61 600.12C947.42 590.88 953.61 581.65 958.61 564.12C959.69 560.37 950.461 577.82 950.201 577.51L949.13 579.89C947.616 582.761 946.393 585.776 945.48 588.89L954.54 600.28Z"
    fill="black"
    style="baseline-shift: 0px; fill: rgb(0, 0, 0); opacity: 0.4; paint-order: normal; text-decoration: none solid rgb(61, 61, 61);">
  </path>
  <path d="M527.63 468.779H517.78V518.229H527.63V468.779Z" class="change-color-in-svg" fill="#4D61FC"
    style="fill: rgb(54, 48, 98); baseline-shift: 0px; paint-order: normal; text-decoration: none solid rgb(61, 61, 61);">
  </path>
  <path d="M537.831 468.779H527.98V518.229H537.831V468.779Z" class="change-color-in-svg" fill="#4D61FC"
    style="fill: rgb(54, 48, 98); baseline-shift: 0px; paint-order: normal; text-decoration: none solid rgb(61, 61, 61);">
  </path>
  <path opacity="0.2" d="M537.831 468.779H527.98V518.229H537.831V468.779Z" fill="black"
    style="baseline-shift: 0px; fill: rgb(0, 0, 0); opacity: 0.2; paint-order: normal; text-decoration: none solid rgb(61, 61, 61);">
  </path>
  <path d="M756.95 519.939H568.93V525.699H756.95V519.939Z" class="change-color-in-svg" fill="#4D61FC"
    style="fill: rgb(54, 48, 98); baseline-shift: 0px; paint-order: normal; text-decoration: none solid rgb(61, 61, 61);">
  </path>
  <path
    d="M599 665.381H519.15C518.206 665.381 517.44 666.146 517.44 667.091V686.571C517.44 687.515 518.206 688.281 519.15 688.281H599C599.945 688.281 600.71 687.515 600.71 686.571V667.091C600.71 666.146 599.945 665.381 599 665.381Z"
    class="change-color-in-svg" fill="#4D61FC"
    style="fill: rgb(54, 48, 98); baseline-shift: 0px; paint-order: normal; text-decoration: none solid rgb(61, 61, 61);">
  </path>
  <path d="M757.9 549.131H517.78V554.921H757.9V549.131Z" fill="#B2B6BB"
    style="baseline-shift: 0px; fill: rgb(178, 182, 187); paint-order: normal; text-decoration: none solid rgb(61, 61, 61);">
  </path>
  <path d="M757.9 566.41H517.78V572.2H757.9V566.41Z" fill="#B2B6BB"
    style="baseline-shift: 0px; fill: rgb(178, 182, 187); paint-order: normal; text-decoration: none solid rgb(61, 61, 61);">
  </path>
  <path d="M757.9 583.68H517.78V589.47H757.9V583.68Z" fill="#B2B6BB"
    style="baseline-shift: 0px; fill: rgb(178, 182, 187); paint-order: normal; text-decoration: none solid rgb(61, 61, 61);">
  </path>
  <path d="M757.9 600.961H517.78V606.751H757.9V600.961Z" fill="#B2B6BB"
    style="baseline-shift: 0px; fill: rgb(178, 182, 187); paint-order: normal; text-decoration: none solid rgb(61, 61, 61);">
  </path>
  <path d="M757.9 618.23H517.78V624.021H757.9V618.23Z" fill="#B2B6BB"
    style="baseline-shift: 0px; fill: rgb(178, 182, 187); paint-order: normal; text-decoration: none solid rgb(61, 61, 61);">
  </path>
  <path d="M646.41 635.51H517.78V641.3H646.41V635.51Z" fill="#B2B6BB"
    style="baseline-shift: 0px; fill: rgb(178, 182, 187); paint-order: normal; text-decoration: none solid rgb(61, 61, 61);">
  </path>
  <path
    d="M554.24 481.76H558.24L567.14 505.15H562.46L560.28 499.32H552.11L550 505.15H545.32L554.24 481.76ZM559.48 496.13L556.25 486.93L552.89 496.13H559.48Z"
    fill="#21252B"
    style="baseline-shift: 0px; fill: rgb(33, 37, 43); paint-order: normal; text-decoration: none solid rgb(61, 61, 61);">
  </path>
  <path
    d="M588.581 499.12C588.608 499.993 588.419 500.859 588.03 501.641C587.641 502.423 587.064 503.096 586.35 503.6C585.626 504.127 584.813 504.52 583.951 504.76C583.001 505.03 582.018 505.161 581.031 505.15H569.73V481.76H582.25C583.02 481.749 583.78 481.931 584.461 482.29C585.103 482.631 585.673 483.093 586.141 483.65C586.604 484.221 586.966 484.867 587.211 485.56C587.457 486.254 587.585 486.984 587.591 487.72C587.595 488.848 587.298 489.956 586.73 490.93C586.168 491.93 585.288 492.715 584.23 493.16C585.493 493.501 586.61 494.246 587.41 495.28C588.218 496.394 588.629 497.746 588.581 499.12V499.12ZM574.281 485.65V491.55H580.341C580.711 491.56 581.079 491.493 581.423 491.356C581.767 491.218 582.079 491.012 582.341 490.75C582.617 490.464 582.832 490.123 582.972 489.75C583.111 489.376 583.172 488.978 583.151 488.58C583.193 487.798 582.927 487.03 582.41 486.44C582.181 486.184 581.898 485.981 581.582 485.844C581.266 485.708 580.925 485.642 580.581 485.65H574.281ZM584 498.27C584.002 497.857 583.928 497.447 583.781 497.06C583.646 496.698 583.454 496.36 583.211 496.06C582.971 495.78 582.678 495.549 582.35 495.38C582.014 495.216 581.644 495.134 581.271 495.14H574.271V501.3H581C581.402 501.299 581.799 501.221 582.17 501.07C582.524 500.919 582.844 500.698 583.11 500.42C583.659 499.839 583.963 499.069 583.961 498.27H584Z"
    fill="#21252B"
    style="baseline-shift: 0px; fill: rgb(33, 37, 43); paint-order: normal; text-decoration: none solid rgb(61, 61, 61);">
  </path>
  <path
    d="M602.12 505.321C600.508 505.346 598.91 505.004 597.45 504.321C596.088 503.678 594.867 502.77 593.86 501.651C591.848 499.4 590.731 496.49 590.72 493.471C590.711 491.935 591.007 490.412 591.59 488.991C592.151 487.591 592.965 486.307 593.99 485.201C595.017 484.094 596.255 483.203 597.63 482.581C599.064 481.912 600.628 481.571 602.21 481.581C603.811 481.545 605.397 481.887 606.84 482.581C608.2 483.239 609.417 484.16 610.42 485.291C611.411 486.418 612.19 487.716 612.72 489.121C613.259 490.505 613.54 491.976 613.55 493.461C613.545 496.512 612.392 499.45 610.32 501.691C609.294 502.785 608.064 503.668 606.7 504.291C605.265 504.96 603.703 505.311 602.12 505.321V505.321ZM595.33 493.461C595.328 494.456 595.483 495.444 595.79 496.391C596.077 497.298 596.528 498.145 597.12 498.891C597.708 499.617 598.44 500.213 599.27 500.641C600.597 501.31 602.116 501.495 603.566 501.164C605.015 500.834 606.304 500.009 607.21 498.831C607.792 498.075 608.235 497.221 608.52 496.311C609.14 494.43 609.14 492.401 608.52 490.521C608.217 489.616 607.76 488.77 607.17 488.021C606.587 487.299 605.858 486.709 605.03 486.291C603.703 485.626 602.187 485.444 600.74 485.774C599.294 486.104 598.007 486.927 597.1 488.101C596.519 488.852 596.079 489.703 595.8 490.611C595.509 491.533 595.36 492.494 595.36 493.461H595.33Z"
    fill="#21252B"
    style="baseline-shift: 0px; fill: rgb(33, 37, 43); paint-order: normal; text-decoration: none solid rgb(61, 61, 61);">
  </path>
  <path
    d="M626.93 501.3C627.879 501.329 628.819 501.101 629.65 500.64C630.367 500.215 630.977 499.63 631.43 498.93C631.906 498.186 632.245 497.363 632.43 496.5C632.618 495.575 632.712 494.634 632.71 493.69V481.76H637.23V493.69C637.237 495.215 637.042 496.735 636.65 498.21C636.295 499.547 635.68 500.801 634.84 501.9C633.99 502.971 632.901 503.827 631.66 504.4C630.197 505.048 628.609 505.362 627.01 505.32C625.367 505.361 623.737 505.019 622.25 504.32C621.005 503.721 619.917 502.841 619.07 501.75C618.237 500.646 617.638 499.383 617.31 498.04C616.942 496.609 616.757 495.137 616.76 493.66V481.76H621.31V493.69C621.308 494.647 621.402 495.601 621.59 496.54C621.769 497.402 622.108 498.223 622.59 498.96C623.03 499.66 623.634 500.244 624.35 500.66C625.139 501.094 626.029 501.315 626.93 501.3Z"
    fill="#21252B"
    style="baseline-shift: 0px; fill: rgb(33, 37, 43); paint-order: normal; text-decoration: none solid rgb(61, 61, 61);">
  </path>
  <path d="M659.25 485.75H651.77V505.15H647.26V485.75H639.78V481.75H659.25V485.75Z" fill="#21252B"
    style="baseline-shift: 0px; fill: rgb(33, 37, 43); paint-order: normal; text-decoration: none solid rgb(61, 61, 61);">
  </path>
</svg>