<svg width="2423" height="2843" fill="none" xmlns="http://www.w3.org/2000/svg"><path d="M1089.22 584.484l690.84 1779.706c26.54 68.23 55.91 115.61 88.13 142.15 34.12 24.64 64.44 37.91 90.98 39.8V2603c-56.86-3.79-124.14-5.69-201.85-5.69-75.82-1.89-152.58-2.84-230.28-2.84-87.19 0-169.64.95-247.34 2.84-77.71 0-139.31 1.9-184.8 5.69v-56.86c96.66-3.79 157.31-19.9 181.95-48.33 26.54-30.33 20.85-93.82-17.05-190.48L776.489 985.344l51.174-73.917L395.53 2037.25c-41.698 104.24-67.284 189.53-76.761 255.87-7.581 66.33-2.843 117.51 14.215 153.52 18.953 36.01 48.331 61.59 88.132 76.76 41.697 13.26 90.976 20.85 147.835 22.74V2603c-62.545-3.79-122.248-5.69-179.107-5.69-56.86-1.89-114.667-2.84-173.422-2.84-41.697 0-81.499.95-119.405 2.84-36.011 0-68.232 1.9-96.662 5.69v-56.86c39.802-7.58 80.551-33.17 122.248-76.76s82.447-117.51 122.249-221.75L893.051 584.484c30.325 1.895 62.546 2.843 96.661 2.843 36.008 0 69.178-.948 99.508-2.843zm199.01 1199.736v56.86H441.017l28.43-56.86h818.783z" fill="#000"/><path fill-rule="evenodd" clip-rule="evenodd" d="M2203.04 1919.5c82.63-25.75 171.4-43.73 209.65 82.58 23.25 76.78-.31 186.58-34.24 248.35-33.92 70.42-168.68 50.27-255.87 0-112.73-64.99-92.96-137.91-69.25-192.66 0 0 53.78-108.38 149.71-138.27z" fill="url(#paint0_linear_8791_32058)"/><defs><linearGradient id="paint0_linear_8791_32058" x1="2035" y1="2098.5" x2="2422.01" y2="2098.5" gradientUnits="userSpaceOnUse"><stop stop-color="#30138B"/><stop offset="1" stop-color="#7066DD"/></linearGradient></defs></svg>