<svg width="24" height="24" fill="none" xmlns="http://www.w3.org/2000/svg"><path d="M18 14.25v-4.5a.75.75 0 111.5 0v4.5a.75.75 0 11-1.5 0zm3.75-6.75a.75.75 0 00-.75.75v7.5a.75.75 0 101.5 0v-7.5a.75.75 0 00-.75-.75zm-.945 12.245a.75.75 0 11-1.11 1.009l-3.945-4.34V21a.75.75 0 01-1.21.592L7.992 16.5H3.75a1.5 1.5 0 01-1.5-1.5V9a1.5 1.5 0 011.5-1.5h3.895l-2.95-3.245a.75.75 0 011.11-1.009l15 16.5zm-6.555-4.98L9.01 8.998H3.75v6h4.5c.167 0 .329.056.46.159l5.54 4.308v-4.702zm-2.526-8.268L14.25 4.53v5.481a.75.75 0 001.5 0V3a.75.75 0 00-1.21-.592l-3.736 2.906a.75.75 0 00.92 1.184z" fill="#000"/></svg>