<svg width="110" height="110" viewBox="0 0 110 110" fill="none" xmlns="http://www.w3.org/2000/svg">
<path fill-rule="evenodd" clip-rule="evenodd" d="M1 55C1 84.8234 25.1766 109 55 109C84.8234 109 109 84.8234 109 55C109 25.1766 84.8234 1 55 1C25.1766 1 1 25.1766 1 55Z" stroke="black" stroke-linecap="round" stroke-linejoin="round"/>
<path d="M51.2828 32.1955H28.5C25.1863 32.1955 22.5 34.8818 22.5 38.1955V69.2265C22.5 72.54 25.1863 75.2265 28.5 75.2265H35.0389V85.2252C35.0389 87.9606 38.4004 89.2689 40.2496 87.2532L50.3909 76.1985C50.9591 75.579 51.7613 75.2265 52.6016 75.2265H73.6607C76.9745 75.2265 79.6607 72.54 79.6607 69.2265V60.8973M74.1239 23.0713V31.2814M69.4277 39.9129V43.4924M78.8204 39.9129V43.4924M66.7469 31.2822H81.5039C81.5039 31.2822 87.5039 31.2822 87.5039 37.2822V46.0962C87.5039 46.0962 87.5039 52.0962 81.5039 52.0962H66.7469C66.7469 52.0962 60.7469 52.0962 60.7469 46.0962V37.2822C60.7469 37.2822 60.7469 31.2822 66.7469 31.2822Z" stroke="black" stroke-linecap="round" stroke-linejoin="round"/>
</svg>
