<svg width="6470" height="4143" viewBox="0 0 6470 4143" fill="none" xmlns="http://www.w3.org/2000/svg">
<path d="M157.819 3241.6C61.7708 3338.07 7.1884 3466.27 4.22656 3602.1V3621.98C6.76528 3758.65 61.3477 3886.86 157.819 3982.9C254.29 4079.37 382.495 4133.96 518.317 4136.5H538.626C540.742 4136.5 542.858 4136.5 544.55 4136.07C550.897 4135.65 556.821 4135.23 563.167 4134.8C567.399 4134.38 571.207 4133.96 575.438 4133.53C617.327 4128.03 657.1 4114.92 693.488 4095.45C699.412 4092.49 704.912 4089.11 710.413 4085.72C767.957 4050.6 815.347 3998.98 845.388 3934.67C867.39 3888.12 878.391 3838.2 878.391 3786.15C878.391 3726.92 863.582 3668.95 835.233 3617.33L833.964 3615.21C798.422 3551.74 742.57 3499.7 676.563 3468.81C674.871 3467.97 673.602 3467.54 671.909 3466.7C668.947 3465.43 665.562 3464.16 662.6 3462.47C662.177 3462.47 661.754 3462.04 661.331 3462.04C701.104 3497.59 726.915 3548.36 728.607 3605.48V3616.9C725.645 3723.11 640.175 3808.58 534.395 3811.54H522.971C469.235 3810.69 417.614 3798.85 369.802 3776.42C298.295 3742.99 238.212 3686.3 200.131 3617.33L198.862 3614.37C169.666 3560.21 154.011 3498.85 154.011 3436.66C154.011 3381.23 165.858 3327.49 189.13 3277.56C191.668 3272.49 194.207 3267.41 196.746 3262.33C198.015 3260.22 199.285 3257.68 200.554 3255.56C202.246 3252.18 204.362 3248.79 206.478 3245.41C207.324 3243.71 208.593 3242.02 209.439 3240.33C210.709 3237.79 212.401 3235.67 214.094 3233.14C214.517 3232.29 214.94 3231.44 215.786 3230.6C217.479 3228.06 219.171 3225.52 220.864 3222.98C228.48 3211.98 236.519 3201.4 245.405 3191.25C247.52 3189.13 249.213 3186.59 251.328 3184.48C251.751 3183.63 252.598 3183.21 253.444 3182.36C255.56 3179.82 258.098 3177.28 260.214 3175.17L260.637 3174.74C262.753 3172.63 264.868 3170.09 267.407 3167.98C268.253 3167.13 269.099 3166.28 269.946 3165.44C271.638 3163.74 273.331 3162.47 275.023 3160.78C276.292 3159.51 277.562 3158.24 279.254 3156.97C281.37 3155.28 283.062 3153.59 285.178 3151.9L285.601 3151.47C288.14 3149.36 291.102 3146.82 293.64 3144.7C296.602 3142.16 299.564 3140.05 302.526 3137.93C249.636 3164.59 200.554 3198.86 157.819 3241.6Z" fill="url(#paint0_linear_9480_11700)"/>
<path d="M519.158 3088C510.696 3088.43 502.656 3088.85 494.617 3089.7C490.386 3090.12 486.578 3090.54 482.347 3090.97C478.115 3091.39 474.307 3092.24 470.076 3092.66C465.845 3093.5 462.037 3093.93 458.229 3094.77C450.19 3096.47 442.573 3098.16 434.534 3100.27C426.918 3102.39 419.302 3104.93 411.686 3107.47C404.07 3110.01 396.877 3112.97 389.26 3116.35C349.064 3133.7 312.253 3158.66 281.365 3189.55C278.403 3192.51 275.864 3195.05 272.903 3198.01C248.362 3225.09 227.629 3255.56 211.55 3289.41C189.548 3335.95 178.547 3385.88 178.547 3437.92C178.547 3496.74 193.356 3555.13 221.705 3606.33L222.974 3608.44C258.516 3671.91 314.368 3723.95 380.375 3754.84C385.452 3757.38 390.953 3759.49 396.03 3761.61C356.257 3726.07 330.447 3674.87 328.754 3617.75V3606.33C331.716 3500.12 417.186 3415.08 522.966 3412.11H542.007C549.623 3412.54 557.239 3412.96 564.432 3413.38C567.817 3413.81 571.202 3414.23 574.164 3414.65C577.549 3415.08 580.934 3415.5 583.895 3415.92L593.627 3417.61C595.32 3418.04 596.589 3418.04 598.281 3418.46C599.974 3418.88 601.666 3419.31 603.359 3419.31C605.051 3419.73 606.321 3419.73 607.59 3420.15C609.706 3420.58 611.821 3421 613.937 3421.42C615.206 3421.85 616.476 3422.27 618.168 3422.27C619.861 3422.69 621.13 3423.11 622.822 3423.54C624.092 3423.96 625.784 3424.38 627.477 3424.81C629.169 3425.23 630.438 3425.65 632.131 3426.08C635.516 3426.92 639.324 3428.19 642.709 3429.46L646.094 3430.73C650.325 3432 654.556 3433.69 658.788 3435.39L659.634 3435.81C660.48 3436.23 660.903 3436.23 661.749 3436.65C663.865 3437.5 666.404 3438.35 668.519 3439.19C672.75 3440.89 676.982 3442.58 681.213 3444.69C682.905 3445.54 684.598 3446.39 686.29 3446.81C757.797 3480.24 817.88 3536.51 855.961 3605.9L857.654 3608.86C886.849 3663.02 902.504 3724.38 902.504 3786.57C902.504 3842 890.657 3895.74 867.385 3945.67C864.847 3950.74 862.308 3956.25 859.769 3960.9C858.5 3963.02 857.231 3965.55 855.961 3967.67C854.269 3971.05 852.153 3974.44 850.038 3977.82C849.191 3979.52 847.922 3981.21 847.076 3982.9C845.806 3985.02 844.537 3987.13 843.268 3989.25C842.421 3990.94 841.152 3992.63 839.883 3994.33C839.036 3995.6 838.19 3996.86 837.344 3998.56C836.075 4000.67 834.382 4002.79 833.113 4004.9C832.266 4005.75 831.843 4006.6 830.997 4007.44C829.305 4009.98 827.612 4012.1 825.497 4014.64C823.381 4017.6 820.842 4020.56 818.304 4023.52C814.495 4028.18 810.264 4033.25 806.033 4037.91C804.764 4039.6 803.071 4041.29 801.802 4042.56C801.379 4042.98 800.956 4043.41 800.533 4043.83C798.417 4045.95 796.301 4048.49 794.186 4050.6L784.877 4059.91C784.031 4060.76 782.762 4061.6 781.915 4062.87C780.223 4064.56 778.107 4066.26 776.415 4067.95C775.145 4068.79 773.876 4070.06 772.607 4070.91C770.491 4072.6 768.375 4074.72 765.837 4076.41C761.606 4079.8 757.798 4083.18 753.566 4086.14C806.456 4060.76 855.538 4026.06 898.273 3983.75C994.744 3887.28 1049.33 3759.49 1051.87 3623.25V3602.94C1049.33 3466.27 994.744 3338.07 898.273 3242.02C803.918 3145.97 676.982 3091.39 541.583 3088.43L533.121 3088H519.158Z" fill="url(#paint1_linear_9480_11700)"/>
<path d="M1304.15 3596.33C1304.15 3443.1 1433.01 3318.03 1586.24 3318.03C1671.25 3318.03 1731.35 3351.06 1776.83 3394.91L1723.23 3448.52C1690.74 3418.2 1646.34 3394.37 1586.24 3394.37C1474.16 3394.37 1386.99 3484.25 1386.99 3596.33C1386.99 3708.41 1474.7 3798.29 1586.24 3798.29C1658.8 3798.29 1699.95 3769.05 1726.48 3742.52C1748.14 3720.86 1762.21 3689.46 1767.63 3646.69H1585.7V3570.88H1841.81C1844.51 3584.42 1846.14 3600.66 1846.14 3618.53C1846.14 3675.38 1830.44 3746.31 1780.08 3796.13C1731.35 3847.02 1669.08 3874.09 1586.24 3874.09C1433.01 3874.64 1304.15 3749.56 1304.15 3596.33ZM2052.97 3516.2C1953.89 3516.2 1873.21 3591.46 1873.21 3695.42C1873.21 3798.29 1953.89 3874.64 2052.97 3874.64C2152.06 3874.64 2232.73 3798.83 2232.73 3695.42C2232.73 3591.46 2151.51 3516.2 2052.97 3516.2ZM2052.97 3803.71C1998.83 3803.71 1951.72 3758.77 1951.72 3695.42C1951.72 3630.98 1998.28 3587.13 2052.97 3587.13C2107.12 3587.13 2154.22 3630.98 2154.22 3695.42C2153.68 3759.31 2107.12 3803.71 2052.97 3803.71ZM2444.98 3516.2C2345.89 3516.2 2265.22 3591.46 2265.22 3695.42C2265.22 3798.29 2345.89 3874.64 2444.98 3874.64C2544.06 3874.64 2624.74 3798.83 2624.74 3695.42C2624.74 3591.46 2544.06 3516.2 2444.98 3516.2ZM2444.98 3803.71C2390.83 3803.71 2343.73 3758.77 2343.73 3695.42C2343.73 3630.98 2390.29 3587.13 2444.98 3587.13C2499.12 3587.13 2546.23 3630.98 2546.23 3695.42C2545.69 3759.31 2499.12 3803.71 2444.98 3803.71ZM2926.33 3527.03V3556.26H2923.62C2905.75 3535.15 2872.18 3516.2 2829.41 3516.2C2740.07 3516.2 2657.77 3594.71 2657.77 3695.96C2657.77 3796.13 2740.07 3874.09 2829.41 3874.09C2872.18 3874.09 2906.29 3855.14 2923.62 3833.49H2926.33V3859.48C2926.33 3928.24 2889.51 3964.52 2830.49 3964.52C2782.3 3964.52 2752.52 3929.86 2740.07 3900.63L2671.3 3929.32C2690.8 3976.97 2743.32 4034.9 2829.95 4034.9C2921.99 4034.9 2999.96 3980.76 2999.96 3848.65V3527.03H2926.33ZM2835.9 3803.71C2781.76 3803.71 2736.28 3758.22 2736.28 3695.96C2736.28 3633.15 2781.76 3586.59 2835.9 3586.59C2889.51 3586.59 2931.74 3632.61 2931.74 3695.96C2931.74 3758.22 2889.51 3803.71 2835.9 3803.71ZM3055.19 3336.98H3133.7V3863.27H3055.19V3336.98ZM3349.2 3803.71C3309.13 3803.71 3280.43 3785.3 3262.57 3749.56L3501.89 3650.48L3493.76 3629.9C3478.6 3589.83 3433.66 3516.2 3340.53 3516.2C3248.49 3516.2 3171.6 3588.75 3171.6 3695.42C3171.6 3795.58 3247.41 3874.64 3349.2 3874.64C3431.5 3874.64 3478.6 3824.28 3498.64 3795.04L3437.45 3754.43C3417.42 3784.21 3389.26 3803.71 3349.2 3803.71ZM3343.24 3585.5C3374.65 3585.5 3400.63 3601.2 3409.84 3623.4L3249.57 3690C3247.4 3620.7 3303.17 3585.5 3343.24 3585.5Z" fill="white"/>
<path d="M3673.53 3863.8V3393.29H3817.56C3889.57 3393.29 3947.5 3414.94 3990.82 3458.8C4034.14 3502.66 4055.79 3558.97 4055.79 3628.82C4055.79 3698.66 4034.14 3754.97 3990.82 3798.83C3947.5 3842.69 3889.57 3864.35 3817.56 3864.35L3673.53 3863.8ZM3734.17 3805.87H3817.56C3871.7 3805.87 3915.02 3790.17 3946.42 3759.3C3978.37 3728.44 3994.07 3684.58 3994.07 3628.82C3994.07 3573.05 3978.37 3529.73 3946.42 3498.33C3914.48 3466.92 3871.7 3451.22 3817.56 3451.22H3734.17V3805.87ZM4253.42 3874.09C4204.69 3874.09 4165.17 3857.85 4134.84 3825.36C4104.52 3792.87 4089.36 3752.27 4089.36 3702.45C4089.36 3655.35 4103.98 3615.28 4133.76 3581.71C4163.54 3548.14 4200.9 3531.35 4246.92 3531.35C4294.57 3531.35 4333.01 3547.06 4361.71 3577.92C4390.41 3608.78 4404.49 3650.47 4404.49 3702.99L4403.94 3714.36H4149.46C4151.09 3746.85 4161.92 3772.3 4181.95 3791.25C4201.98 3810.2 4225.27 3819.41 4251.8 3819.41C4295.11 3819.41 4324.35 3801 4340.05 3764.18L4394.2 3786.38C4383.91 3811.28 4366.58 3832.4 4342.22 3849.18C4318.4 3865.43 4288.62 3874.09 4253.42 3874.09ZM4340.6 3664.01C4339.51 3645.6 4330.85 3628.27 4315.15 3611.49C4299.45 3594.7 4276.7 3586.58 4245.84 3586.58C4223.64 3586.58 4204.15 3593.62 4187.91 3607.7C4171.66 3621.78 4160.29 3640.73 4154.34 3664.01H4340.6ZM4595.62 3874.09C4546.89 3874.09 4507.36 3857.85 4477.04 3825.36C4446.72 3792.87 4431.56 3752.27 4431.56 3702.45C4431.56 3655.35 4446.18 3615.28 4475.96 3581.71C4505.74 3548.14 4543.1 3531.35 4589.12 3531.35C4636.77 3531.35 4675.21 3547.06 4703.91 3577.92C4732.6 3608.78 4746.68 3650.47 4746.68 3702.99L4746.14 3714.36H4491.66C4493.28 3746.85 4504.11 3772.3 4524.15 3791.25C4544.18 3810.2 4567.46 3819.41 4593.99 3819.41C4637.31 3819.41 4666.55 3801 4682.25 3764.18L4736.39 3786.38C4726.11 3811.28 4708.78 3832.4 4684.41 3849.18C4660.59 3865.43 4630.81 3874.09 4595.62 3874.09ZM4682.79 3664.01C4681.71 3645.6 4673.04 3628.27 4657.34 3611.49C4641.64 3594.7 4618.9 3586.58 4588.04 3586.58C4565.84 3586.58 4546.35 3593.62 4530.1 3607.7C4513.86 3621.78 4502.49 3640.73 4496.53 3664.01H4682.79ZM4957.85 3874.09C4933.48 3874.09 4911.28 3868.68 4891.79 3858.39C4872.3 3848.1 4857.68 3834.57 4847.93 3818.86H4845.22L4847.93 3863.8V4005.66H4787.29V3541.64H4845.22V3586.58H4847.93C4857.68 3570.88 4872.3 3557.89 4891.79 3547.06C4911.28 3536.77 4933.48 3531.35 4957.85 3531.35C4999.54 3531.35 5035.27 3547.6 5065.59 3580.63C5095.92 3613.65 5111.08 3654.26 5111.08 3702.99C5111.08 3751.72 5095.92 3792.33 5065.59 3825.36C5035.81 3857.85 4999.54 3874.09 4957.85 3874.09ZM4948.1 3818.86C4976.26 3818.86 5000.08 3808.03 5020.11 3786.92C5040.15 3765.8 5050.43 3737.65 5050.43 3702.45C5050.43 3667.26 5040.15 3639.1 5020.11 3617.99C5000.08 3596.87 4975.71 3586.04 4948.1 3586.04C4919.4 3586.04 4895.58 3596.33 4875.55 3617.44C4855.51 3638.56 4845.77 3666.72 4845.77 3702.45C4845.77 3738.19 4855.51 3766.34 4875.55 3787.46C4895.58 3808.58 4919.94 3818.86 4948.1 3818.86ZM5167.93 3863.8V3393.29H5228.57L5392.09 3679.71H5394.79L5558.31 3393.29H5618.95V3863.8H5558.31V3584.42L5561.02 3505.37H5558.31L5411.04 3763.64H5375.3L5228.03 3505.37H5225.32L5228.03 3584.42V3863.8H5167.93ZM5755.94 3460.97C5747.82 3469.09 5737.53 3473.42 5725.62 3473.42C5713.71 3473.42 5703.96 3469.09 5695.3 3460.97C5687.18 3452.84 5682.84 3442.56 5682.84 3430.65C5682.84 3418.73 5687.18 3408.99 5695.3 3400.32C5703.42 3392.2 5713.71 3387.87 5725.62 3387.87C5737.53 3387.87 5747.28 3392.2 5755.94 3400.32C5764.06 3408.45 5768.39 3418.73 5768.39 3430.65C5768.39 3442.56 5764.6 3452.3 5755.94 3460.97ZM5755.94 3863.8H5695.3V3541.64H5755.94V3863.8ZM5876.68 3541.64V3586.58H5879.39C5888.05 3571.42 5902.13 3558.43 5920.54 3547.6C5939.49 3536.77 5959.52 3531.35 5981.18 3531.35C6021.25 3531.35 6051.57 3543.81 6072.69 3568.17C6093.8 3592.54 6104.09 3625.57 6104.09 3666.72V3863.8H6043.45V3675.92C6043.45 3616.36 6016.92 3586.58 5963.86 3586.58C5938.95 3586.58 5918.37 3596.33 5902.67 3616.36C5886.97 3636.4 5878.85 3659.14 5878.85 3685.67V3863.8H5818.21V3541.64H5876.68ZM6297.93 3874.09C6256.24 3874.09 6220.5 3857.85 6190.18 3824.82C6159.86 3791.79 6144.7 3751.18 6144.7 3702.45C6144.7 3653.72 6159.86 3613.11 6190.18 3580.09C6220.5 3547.06 6256.24 3530.81 6297.93 3530.81C6322.29 3530.81 6344.49 3536.23 6363.99 3546.52C6383.48 3556.8 6398.1 3570.34 6407.84 3586.04H6410.55L6407.84 3541.1V3393.29H6468.49V3863.8H6410.55V3818.86H6407.84C6398.1 3834.57 6383.48 3847.56 6363.99 3858.39C6344.49 3868.68 6322.29 3874.09 6297.93 3874.09ZM6307.68 3818.86C6336.37 3818.86 6360.2 3808.58 6380.23 3787.46C6400.26 3766.34 6410.01 3738.19 6410.01 3702.45C6410.01 3666.72 6400.26 3638.56 6380.23 3617.44C6360.2 3596.33 6335.83 3586.04 6307.68 3586.04C6279.52 3586.04 6255.7 3596.87 6235.66 3617.99C6215.63 3639.1 6205.34 3667.26 6205.34 3702.45C6205.34 3737.65 6215.63 3765.8 6235.66 3786.92C6255.7 3808.03 6279.52 3818.86 6307.68 3818.86Z" fill="white"/>
<path d="M1305.09 3595.29C1305.09 3442.09 1433.94 3317.04 1587.14 3317.04C1672.13 3317.04 1732.22 3350.06 1777.7 3393.91L1724.1 3447.5C1691.62 3417.19 1647.23 3393.37 1587.14 3393.37C1475.08 3393.37 1387.92 3483.23 1387.92 3595.29C1387.92 3707.35 1475.62 3797.22 1587.14 3797.22C1659.68 3797.22 1700.82 3767.98 1727.35 3741.46C1749 3719.8 1763.08 3688.4 1768.49 3645.64H1586.6V3569.85H1842.66C1845.37 3583.38 1846.99 3599.62 1846.99 3617.49C1846.99 3674.33 1831.29 3745.25 1780.94 3795.05C1732.22 3845.94 1669.97 3873.01 1587.14 3873.01C1433.94 3873.55 1305.09 3748.49 1305.09 3595.29ZM2053.79 3515.17C1954.72 3515.17 1874.06 3590.42 1874.06 3694.36C1874.06 3797.22 1954.72 3873.55 2053.79 3873.55C2152.85 3873.55 2233.52 3797.76 2233.52 3694.36C2233.52 3590.42 2152.31 3515.17 2053.79 3515.17ZM2053.79 3802.63C1999.65 3802.63 1952.55 3757.7 1952.55 3694.36C1952.55 3629.94 1999.11 3586.09 2053.79 3586.09C2107.92 3586.09 2155.02 3629.94 2155.02 3694.36C2154.48 3758.24 2107.92 3802.63 2053.79 3802.63ZM2445.73 3515.17C2346.66 3515.17 2266 3590.42 2266 3694.36C2266 3797.22 2346.66 3873.55 2445.73 3873.55C2544.79 3873.55 2625.46 3797.76 2625.46 3694.36C2625.46 3590.42 2544.79 3515.17 2445.73 3515.17ZM2445.73 3802.63C2391.59 3802.63 2344.49 3757.7 2344.49 3694.36C2344.49 3629.94 2391.05 3586.09 2445.73 3586.09C2499.86 3586.09 2546.96 3629.94 2546.96 3694.36C2546.42 3758.24 2499.86 3802.63 2445.73 3802.63ZM2926.99 3526V3555.23H2924.28C2906.42 3534.12 2872.86 3515.17 2830.09 3515.17C2740.76 3515.17 2658.48 3593.67 2658.48 3694.9C2658.48 3795.05 2740.76 3873.01 2830.09 3873.01C2872.86 3873.01 2906.96 3854.06 2924.28 3832.4H2926.99V3858.39C2926.99 3927.14 2890.18 3963.41 2831.17 3963.41C2782.99 3963.41 2753.22 3928.77 2740.76 3899.53L2672.01 3928.22C2691.5 3975.86 2744.01 4033.79 2830.63 4033.79C2922.66 4033.79 3000.61 3979.65 3000.61 3847.56V3526H2926.99ZM2836.58 3802.63C2782.45 3802.63 2736.98 3757.16 2736.98 3694.9C2736.98 3632.1 2782.45 3585.55 2836.58 3585.55C2890.18 3585.55 2932.4 3631.56 2932.4 3694.9C2932.4 3757.16 2890.18 3802.63 2836.58 3802.63ZM3055.83 3335.98H3134.33V3862.18H3055.83V3335.98ZM3349.79 3802.63C3309.73 3802.63 3281.04 3784.22 3263.17 3748.49L3502.45 3649.43L3494.33 3628.86C3479.17 3588.8 3434.24 3515.17 3341.13 3515.17C3249.1 3515.17 3172.22 3587.71 3172.22 3694.36C3172.22 3794.51 3248.01 3873.55 3349.79 3873.55C3432.07 3873.55 3479.17 3823.2 3499.2 3793.97L3438.03 3753.37C3418 3783.14 3389.85 3802.63 3349.79 3802.63ZM3343.83 3584.46C3375.23 3584.46 3401.22 3600.16 3410.42 3622.36L3250.18 3688.95C3248.01 3619.65 3303.77 3584.46 3343.83 3584.46Z" fill="#75787A"/>
<path d="M3674.06 3862.72V3392.28H3818.06C3890.06 3392.28 3947.99 3413.94 3991.3 3457.79C4034.6 3501.64 4056.26 3557.94 4056.26 3627.77C4056.26 3697.61 4034.6 3753.91 3991.3 3797.76C3947.99 3841.61 3890.06 3863.26 3818.06 3863.26L3674.06 3862.72ZM3734.69 3804.8H3818.06C3872.2 3804.8 3915.51 3789.1 3946.91 3758.24C3978.84 3727.38 3994.54 3683.53 3994.54 3627.77C3994.54 3572.01 3978.84 3528.71 3946.91 3497.31C3914.97 3465.91 3872.2 3450.21 3818.06 3450.21H3734.69V3804.8ZM4253.85 3873.01C4205.13 3873.01 4165.61 3856.77 4135.3 3824.29C4104.98 3791.8 4089.82 3751.2 4089.82 3701.4C4089.82 3654.3 4104.44 3614.24 4134.21 3580.68C4163.99 3547.11 4201.34 3530.33 4247.36 3530.33C4295 3530.33 4333.43 3546.03 4362.12 3576.89C4390.82 3607.74 4404.89 3649.43 4404.89 3701.94L4404.35 3713.31H4149.91C4151.54 3745.79 4162.36 3771.23 4182.39 3790.18C4202.42 3809.13 4225.7 3818.33 4252.23 3818.33C4295.54 3818.33 4324.77 3799.92 4340.47 3763.11L4394.6 3785.31C4384.32 3810.21 4367 3831.32 4342.63 3848.1C4318.82 3864.35 4289.04 3873.01 4253.85 3873.01ZM4341.01 3662.96C4339.93 3644.56 4331.27 3627.23 4315.57 3610.45C4299.87 3593.67 4277.13 3585.55 4246.27 3585.55C4224.08 3585.55 4204.59 3592.59 4188.35 3606.66C4172.11 3620.74 4160.74 3639.68 4154.79 3662.96H4341.01ZM4595.99 3873.01C4547.27 3873.01 4507.75 3856.77 4477.43 3824.29C4447.12 3791.8 4431.96 3751.2 4431.96 3701.4C4431.96 3654.3 4446.57 3614.24 4476.35 3580.68C4506.12 3547.11 4543.48 3530.33 4589.49 3530.33C4637.13 3530.33 4675.57 3546.03 4704.26 3576.89C4732.95 3607.74 4747.03 3649.43 4747.03 3701.94L4746.49 3713.31H4492.05C4493.67 3745.79 4504.5 3771.23 4524.53 3790.18C4544.56 3809.13 4567.84 3818.33 4594.36 3818.33C4637.67 3818.33 4666.91 3799.92 4682.61 3763.11L4736.74 3785.31C4726.45 3810.21 4709.13 3831.32 4684.77 3848.1C4660.95 3864.35 4631.18 3873.01 4595.99 3873.01ZM4683.15 3662.96C4682.06 3644.56 4673.4 3627.23 4657.7 3610.45C4642 3593.67 4619.27 3585.55 4588.41 3585.55C4566.21 3585.55 4546.73 3592.59 4530.48 3606.66C4514.24 3620.74 4502.88 3639.68 4496.92 3662.96H4683.15ZM4958.15 3873.01C4933.79 3873.01 4911.6 3867.59 4892.11 3857.31C4872.62 3847.02 4858 3833.49 4848.26 3817.79H4845.55L4848.26 3862.72V4004.56H4787.63V3540.62H4845.55V3585.55H4848.26C4858 3569.85 4872.62 3556.86 4892.11 3546.03C4911.6 3535.74 4933.79 3530.33 4958.15 3530.33C4999.84 3530.33 5035.57 3546.57 5065.88 3579.59C5096.2 3612.62 5111.36 3653.22 5111.36 3701.94C5111.36 3750.66 5096.2 3791.26 5065.88 3824.29C5036.11 3856.77 4999.84 3873.01 4958.15 3873.01ZM4948.41 3817.79C4976.56 3817.79 5000.38 3806.96 5020.41 3785.85C5040.44 3764.74 5050.73 3736.59 5050.73 3701.4C5050.73 3666.21 5040.44 3638.06 5020.41 3616.95C5000.38 3595.83 4976.02 3585.01 4948.41 3585.01C4919.72 3585.01 4895.9 3595.29 4875.87 3616.41C4855.84 3637.52 4846.09 3665.67 4846.09 3701.4C4846.09 3737.13 4855.84 3765.28 4875.87 3786.39C4895.9 3807.5 4920.26 3817.79 4948.41 3817.79ZM5168.2 3862.72V3392.28H5228.83L5392.32 3678.66H5395.03L5558.52 3392.28H5619.15V3862.72H5558.52V3583.38L5561.22 3504.34H5558.52L5411.27 3762.57H5375.54L5228.29 3504.34H5225.58L5228.29 3583.38V3862.72H5168.2ZM5756.11 3459.95C5747.99 3468.07 5737.7 3472.4 5725.79 3472.4C5713.88 3472.4 5704.14 3468.07 5695.48 3459.95C5687.36 3451.83 5683.03 3441.55 5683.03 3429.64C5683.03 3417.73 5687.36 3407.98 5695.48 3399.32C5703.6 3391.2 5713.88 3386.87 5725.79 3386.87C5737.7 3386.87 5747.45 3391.2 5756.11 3399.32C5764.23 3407.44 5768.56 3417.73 5768.56 3429.64C5768.56 3441.55 5764.77 3451.29 5756.11 3459.95ZM5756.11 3862.72H5695.48V3540.62H5756.11V3862.72ZM5876.83 3540.62V3585.55H5879.54C5888.2 3570.39 5902.28 3557.4 5920.68 3546.57C5939.63 3535.74 5959.66 3530.33 5981.31 3530.33C6021.37 3530.33 6051.69 3542.78 6072.8 3567.14C6093.92 3591.5 6104.2 3624.53 6104.2 3665.67V3862.72H6043.57V3674.87C6043.57 3615.32 6017.04 3585.55 5963.99 3585.55C5939.09 3585.55 5918.52 3595.29 5902.82 3615.32C5887.12 3635.35 5879 3658.09 5879 3684.62V3862.72H5818.37V3540.62H5876.83ZM6298.01 3873.01C6256.32 3873.01 6220.59 3856.77 6190.28 3823.74C6159.96 3790.72 6144.8 3750.12 6144.8 3701.4C6144.8 3652.68 6159.96 3612.07 6190.28 3579.05C6220.59 3546.03 6256.32 3529.79 6298.01 3529.79C6322.37 3529.79 6344.56 3535.2 6364.05 3545.49C6383.54 3555.77 6398.16 3569.31 6407.9 3585.01H6410.61L6407.9 3540.07V3392.28H6468.53V3862.72H6410.61V3817.79H6407.9C6398.16 3833.49 6383.54 3846.48 6364.05 3857.31C6344.56 3867.59 6322.37 3873.01 6298.01 3873.01ZM6307.75 3817.79C6336.44 3817.79 6360.26 3807.5 6380.29 3786.39C6400.32 3765.28 6410.07 3737.13 6410.07 3701.4C6410.07 3665.67 6400.32 3637.52 6380.29 3616.41C6360.26 3595.29 6335.9 3585.01 6307.75 3585.01C6279.6 3585.01 6255.78 3595.83 6235.75 3616.95C6215.72 3638.06 6205.43 3666.21 6205.43 3701.4C6205.43 3736.59 6215.72 3764.74 6235.75 3785.85C6255.78 3806.96 6279.6 3817.79 6307.75 3817.79Z" fill="#75787A"/>
<path d="M799.055 2099.64L1335.51 555.304H1596.86L922.853 2376H736.532L799.055 2099.64ZM297.614 555.304L829.067 2099.64L895.342 2376H709.021L36.2639 555.304H297.614ZM2313.38 2401.01C2219.18 2401.01 2133.73 2385.17 2057.04 2353.49C1981.17 2320.98 1915.73 2275.54 1860.71 2217.19C1806.52 2158.83 1764.84 2089.64 1735.66 2009.61C1706.49 1929.58 1691.9 1842.05 1691.9 1747.01V1694.49C1691.9 1584.45 1708.15 1486.49 1740.67 1400.63C1773.18 1313.93 1817.36 1240.57 1873.22 1180.54C1929.07 1120.52 1992.43 1075.09 2063.29 1044.24C2134.15 1013.4 2207.51 997.973 2283.37 997.973C2380.08 997.973 2463.44 1014.65 2533.47 1047.99C2604.33 1081.34 2662.27 1128.02 2707.28 1188.05C2752.3 1247.24 2785.65 1317.26 2807.32 1398.13C2829 1478.16 2839.84 1565.69 2839.84 1660.73V1764.52H1829.45V1575.69H2608.5V1558.19C2605.16 1498.16 2592.66 1439.81 2570.98 1383.12C2550.14 1326.43 2516.8 1279.75 2470.94 1243.07C2425.09 1206.39 2362.57 1188.05 2283.37 1188.05C2230.85 1188.05 2182.5 1199.3 2138.32 1221.81C2094.13 1243.48 2056.2 1276 2024.52 1319.35C1992.85 1362.7 1968.25 1415.63 1950.75 1478.16C1933.24 1540.68 1924.49 1612.79 1924.49 1694.49V1747.01C1924.49 1811.2 1933.24 1871.64 1950.75 1928.33C1969.09 1984.18 1995.35 2033.37 2029.53 2075.89C2064.54 2118.4 2106.64 2151.75 2155.82 2175.92C2205.84 2200.1 2262.53 2212.19 2325.89 2212.19C2407.59 2212.19 2476.78 2195.51 2533.47 2162.17C2590.16 2128.82 2639.76 2084.22 2682.28 2028.37L2822.33 2139.66C2793.15 2183.84 2756.05 2225.94 2711.04 2265.96C2666.02 2305.97 2610.58 2338.49 2544.72 2363.5C2479.7 2388.5 2402.59 2401.01 2313.38 2401.01ZM3048.67 1714.5V1685.74C3048.67 1588.2 3062.84 1497.75 3091.18 1414.38C3119.53 1330.18 3160.37 1257.24 3213.73 1195.55C3267.08 1133.02 3331.69 1084.67 3407.55 1050.49C3483.42 1015.48 3568.45 997.973 3662.65 997.973C3757.69 997.973 3843.14 1015.48 3919 1050.49C3995.69 1084.67 4060.72 1133.02 4114.07 1195.55C4168.26 1257.24 4209.53 1330.18 4237.87 1414.38C4266.21 1497.75 4280.39 1588.2 4280.39 1685.74V1714.5C4280.39 1812.03 4266.21 1902.49 4237.87 1985.85C4209.53 2069.22 4168.26 2142.16 4114.07 2204.68C4060.72 2266.37 3996.11 2314.73 3920.25 2349.74C3845.22 2383.92 3760.19 2401.01 3665.15 2401.01C3570.11 2401.01 3484.67 2383.92 3408.8 2349.74C3332.94 2314.73 3267.92 2266.37 3213.73 2204.68C3160.37 2142.16 3119.53 2069.22 3091.18 1985.85C3062.84 1902.49 3048.67 1812.03 3048.67 1714.5ZM3280 1685.74V1714.5C3280 1782.02 3287.92 1845.8 3303.76 1905.82C3319.6 1965.01 3343.36 2017.53 3375.04 2063.38C3407.55 2109.23 3447.98 2145.5 3496.34 2172.17C3544.69 2198.02 3600.96 2210.94 3665.15 2210.94C3728.51 2210.94 3783.95 2198.02 3831.46 2172.17C3879.82 2145.5 3919.83 2109.23 3951.51 2063.38C3983.19 2017.53 4006.95 1965.01 4022.79 1905.82C4039.46 1845.8 4047.8 1782.02 4047.8 1714.5V1685.74C4047.8 1619.04 4039.46 1556.1 4022.79 1496.91C4006.95 1436.89 3982.77 1383.95 3950.26 1338.1C3918.58 1291.42 3878.57 1254.74 3830.21 1228.06C3782.7 1201.38 3726.84 1188.05 3662.65 1188.05C3599.29 1188.05 3543.44 1201.38 3495.09 1228.06C3447.57 1254.74 3407.55 1291.42 3375.04 1338.1C3343.36 1383.95 3319.6 1436.89 3303.76 1496.91C3287.92 1556.1 3280 1619.04 3280 1685.74ZM5518.36 1351.86H5683.42C5764.29 1351.86 5830.98 1338.52 5883.5 1311.84C5936.85 1284.33 5976.45 1247.24 6002.29 1200.55C6028.97 1153.03 6042.31 1099.68 6042.31 1040.49C6042.31 970.463 6030.64 911.69 6007.3 864.172C5983.95 816.654 5948.94 780.807 5902.26 756.631C5855.57 732.455 5796.38 720.367 5724.69 720.367C5659.66 720.367 5602.14 733.289 5552.12 759.132C5502.94 784.141 5464.17 819.989 5435.83 866.673C5408.32 913.358 5394.56 968.379 5394.56 1031.74H5163.22C5163.22 939.201 5186.57 855.002 5233.25 779.14C5279.94 703.277 5345.38 642.837 5429.58 597.82C5514.61 552.803 5612.98 530.294 5724.69 530.294C5834.73 530.294 5931.02 549.885 6013.55 589.067C6096.08 627.415 6160.27 684.937 6206.12 761.633C6251.97 837.495 6274.9 932.115 6274.9 1045.49C6274.9 1091.34 6264.06 1140.53 6242.39 1193.05C6221.55 1244.73 6188.62 1293.09 6143.6 1338.1C6099.42 1383.12 6041.89 1420.22 5971.03 1449.4C5900.17 1477.74 5815.14 1491.91 5715.94 1491.91H5518.36V1351.86ZM5518.36 1541.93V1403.13H5715.94C5831.81 1403.13 5927.68 1416.88 6003.55 1444.39C6079.41 1471.9 6139.01 1508.59 6182.36 1554.44C6226.55 1600.29 6257.39 1650.72 6274.9 1705.74C6293.24 1759.93 6302.41 1814.12 6302.41 1868.31C6302.41 1953.34 6287.82 2028.78 6258.64 2094.64C6230.3 2160.5 6189.87 2216.36 6137.35 2262.21C6085.66 2308.06 6024.8 2342.65 5954.78 2366C5884.75 2389.34 5808.47 2401.01 5725.94 2401.01C5646.74 2401.01 5572.13 2389.76 5502.1 2367.25C5432.91 2344.74 5371.64 2312.23 5318.28 2269.71C5264.93 2226.36 5223.25 2173.42 5193.24 2110.9C5163.22 2047.54 5148.22 1975.43 5148.22 1894.57H5379.56C5379.56 1957.92 5393.31 2013.36 5420.82 2060.88C5449.17 2108.4 5489.18 2145.5 5540.87 2172.17C5593.39 2198.02 5655.08 2210.94 5725.94 2210.94C5796.8 2210.94 5857.66 2198.85 5908.51 2174.67C5960.2 2149.66 5999.79 2112.15 6027.3 2062.13C6055.65 2012.11 6069.82 1949.17 6069.82 1873.31C6069.82 1797.45 6053.98 1735.34 6022.3 1686.99C5990.62 1637.8 5945.61 1601.54 5887.25 1578.2C5829.73 1554.02 5761.79 1541.93 5683.42 1541.93H5518.36Z" fill="#75787A"/>
<defs>
<linearGradient id="paint0_linear_9480_11700" x1="4.23079" y1="3638.2" x2="879.06" y2="3638.2" gradientUnits="userSpaceOnUse">
<stop stop-color="#2694D2"/>
<stop offset="0.31" stop-color="#1B87C8"/>
<stop offset="0.73" stop-color="#0C7BBE"/>
<stop offset="1" stop-color="#0377BB"/>
</linearGradient>
<linearGradient id="paint1_linear_9480_11700" x1="178.723" y1="3587.12" x2="1053.55" y2="3587.12" gradientUnits="userSpaceOnUse">
<stop stop-color="#6CB0E1"/>
<stop offset="1" stop-color="#ADD6F2"/>
</linearGradient>
</defs>
</svg>
