<svg width="94" height="30" viewBox="0 0 94 30" fill="none" xmlns="http://www.w3.org/2000/svg">
<path d="M5.58738 28.536C4.90471 28.536 4.19004 28.3653 3.44338 28.024C2.71804 27.704 2.09938 27.1707 1.58738 26.424C1.09671 25.656 0.851375 24.6427 0.851375 23.384C0.851375 21.912 0.979375 20.3547 1.23538 18.712C1.49138 17.0693 1.82204 15.4267 2.22738 13.784C2.65404 12.12 3.12338 10.5413 3.63538 9.048C4.14738 7.55467 4.65938 6.22133 5.17138 5.048C5.70471 3.87466 6.19538 2.95733 6.64338 2.296C7.09138 1.61333 7.46471 1.272 7.76338 1.272C8.16871 1.272 8.51004 1.432 8.78738 1.752C9.08604 2.072 9.23538 2.52 9.23538 3.096C9.23538 3.33066 9.09671 3.88533 8.81938 4.76C8.54204 5.61333 8.19004 6.69067 7.76338 7.992C7.33671 9.29333 6.87804 10.7013 6.38738 12.216C5.91804 13.7307 5.47004 15.256 5.04338 16.792C4.61671 18.328 4.26471 19.7787 3.98738 21.144C3.71004 22.5093 3.57138 23.672 3.57138 24.632C3.57138 24.9093 3.64604 25.176 3.79538 25.432C3.94471 25.6667 4.19004 25.784 4.53138 25.784C5.00071 25.784 5.67271 25.6773 6.54738 25.464C7.44338 25.2507 8.41404 24.9947 9.45938 24.696C10.5047 24.376 11.5074 24.0667 12.4674 23.768C13.4274 23.4693 14.238 23.2133 14.8994 23C15.5607 22.7867 15.934 22.68 16.0194 22.68C16.2754 22.68 16.4887 22.7547 16.6594 22.904C16.83 23.032 16.9154 23.2347 16.9154 23.512C16.9154 23.8533 16.6594 24.248 16.1474 24.696C15.6567 25.144 14.9954 25.592 14.1634 26.04C13.3527 26.488 12.446 26.8933 11.4434 27.256C10.4407 27.64 9.42738 27.9493 8.40338 28.184C7.40071 28.4187 6.46204 28.536 5.58738 28.536ZM33.4509 13.208C33.4509 13.8907 33.2375 14.5627 32.8109 15.224C32.3842 15.864 31.8189 16.4827 31.1149 17.08C30.4109 17.656 29.6322 18.2 28.7789 18.712C27.9255 19.224 27.0722 19.672 26.2189 20.056C25.3655 20.44 24.5869 20.7493 23.8829 20.984C23.7122 21.816 23.6269 22.552 23.6269 23.192C23.6269 23.5973 23.7229 23.8853 23.9149 24.056C24.1069 24.2267 24.4055 24.312 24.8109 24.312C25.7069 24.312 26.6562 24.152 27.6589 23.832C28.6615 23.512 29.6855 23.096 30.7309 22.584C31.7762 22.072 32.7789 21.528 33.7389 20.952C34.6989 20.376 35.5735 19.832 36.3629 19.32C37.1735 18.808 37.8455 18.392 38.3789 18.072C38.9122 17.752 39.2642 17.592 39.4349 17.592C39.6909 17.592 39.8829 17.6773 40.0109 17.848C40.1602 17.9973 40.2349 18.1787 40.2349 18.392C40.2349 18.5627 39.9682 18.8933 39.4349 19.384C38.9229 19.8747 38.2295 20.4507 37.3549 21.112C36.4802 21.752 35.4989 22.4133 34.4109 23.096C33.3229 23.7787 32.1922 24.4187 31.0189 25.016C29.8669 25.6133 28.7469 26.0933 27.6589 26.456C26.5922 26.8187 25.6322 27 24.7789 27C23.6695 27 22.8055 26.584 22.1869 25.752C21.5682 24.92 21.2589 23.6293 21.2589 21.88C21.2589 20.7067 21.4082 19.5227 21.7069 18.328C22.0269 17.1333 22.4535 15.992 22.9869 14.904C23.5415 13.7947 24.1495 12.8133 24.8109 11.96C25.4935 11.0853 26.2082 10.4027 26.9549 9.912C27.7015 9.4 28.4269 9.144 29.1309 9.144C30.4749 9.144 31.5309 9.51733 32.2989 10.264C33.0669 11.0107 33.4509 11.992 33.4509 13.208ZM24.5549 18.52C25.2162 18.1147 25.8989 17.688 26.6029 17.24C27.3069 16.792 27.9575 16.3333 28.5549 15.864C29.1522 15.3947 29.6322 14.904 29.9949 14.392C30.3789 13.8587 30.5709 13.3147 30.5709 12.76C30.5709 11.9707 30.1442 11.576 29.2909 11.576C28.7575 11.576 28.1922 11.9173 27.5949 12.6C27.0189 13.2613 26.4642 14.1253 25.9309 15.192C25.3975 16.2587 24.9389 17.368 24.5549 18.52ZM40.0894 27.832C39.2787 27.832 38.6067 27.4587 38.0734 26.712C37.5614 25.944 37.3054 24.952 37.3054 23.736C37.3054 22.6053 37.5827 21.4853 38.1374 20.376C38.7134 19.2667 39.4707 18.2 40.4094 17.176C41.348 16.152 42.372 15.2133 43.4814 14.36C44.5907 13.4853 45.7 12.728 46.8094 12.088C47.94 11.448 48.9747 10.9467 49.9134 10.584C50.852 10.2213 51.5987 10.04 52.1534 10.04C52.452 10.04 52.6974 10.104 52.8894 10.232C53.0814 10.3387 53.1774 10.5413 53.1774 10.84C53.1774 11.032 53.1027 11.2133 52.9534 11.384C52.9747 11.384 52.996 11.384 53.0174 11.384C53.4867 11.384 53.7214 11.6613 53.7214 12.216C53.7214 12.408 53.6467 12.8027 53.4974 13.4C53.348 13.976 53.1774 14.7013 52.9854 15.576C52.7934 16.4507 52.6227 17.4213 52.4734 18.488C52.324 19.5333 52.2494 20.6 52.2494 21.688C52.2494 22.6053 52.6014 23.064 53.3054 23.064C54.0947 23.064 54.8947 22.8827 55.7054 22.52C56.516 22.1573 57.3054 21.72 58.0734 21.208C58.8414 20.6747 59.5454 20.152 60.1854 19.64C60.8254 19.1067 61.3694 18.6587 61.8174 18.296C62.2654 17.9333 62.5854 17.752 62.7774 17.752C62.948 17.752 63.0974 17.8053 63.2254 17.912C63.3534 18.0187 63.4174 18.1893 63.4174 18.424C63.4174 18.6373 63.204 19.0213 62.7774 19.576C62.3507 20.1307 61.7854 20.76 61.0814 21.464C60.3774 22.168 59.588 22.8507 58.7134 23.512C57.8387 24.1733 56.9427 24.7173 56.0254 25.144C55.108 25.5707 54.2334 25.784 53.4014 25.784C52.7614 25.784 52.1747 25.592 51.6414 25.208C51.1294 24.8027 50.7134 24.12 50.3934 23.16C50.0947 22.2 49.9454 20.8773 49.9454 19.192V18.392C48.9 20.12 47.8014 21.6987 46.6494 23.128C45.5187 24.5573 44.388 25.6987 43.2574 26.552C42.148 27.4053 41.092 27.832 40.0894 27.832ZM51.5454 12.344C51.4387 12.3867 51.2894 12.4507 51.0974 12.536C50.116 12.984 49.092 13.5387 48.0254 14.2C46.98 14.8613 45.956 15.5973 44.9534 16.408C43.972 17.2187 43.0867 18.0613 42.2974 18.936C41.508 19.8107 40.8787 20.696 40.4094 21.592C39.94 22.488 39.7054 23.3627 39.7054 24.216C39.7054 24.4933 39.7587 24.7067 39.8654 24.856C39.9934 25.0053 40.2067 25.08 40.5054 25.08C40.932 25.08 41.4867 24.8133 42.1694 24.28C42.852 23.7253 43.5987 23 44.4094 22.104C45.2414 21.208 46.0734 20.216 46.9054 19.128C47.7374 18.04 48.5267 16.9413 49.2734 15.832C50.0414 14.7227 50.7027 13.6987 51.2574 12.76C51.3427 12.6107 51.4387 12.472 51.5454 12.344ZM73.6471 10.904C74.2231 9.51733 74.7671 8.088 75.2791 6.616C75.8125 5.144 76.2925 3.64 76.7191 2.104C76.8471 1.67733 77.0391 1.336 77.2951 1.08C77.5725 0.802666 77.8925 0.664 78.2551 0.664C78.5111 0.664 78.7245 0.76 78.8951 0.952C79.0871 1.144 79.1831 1.4 79.1831 1.72C79.1831 2.12533 79.0231 2.82933 78.7031 3.832C78.4045 4.83467 78.0205 6.104 77.5511 7.64C77.1031 9.176 76.6445 10.9467 76.1751 12.952C75.7271 14.936 75.3431 17.1333 75.0231 19.544C74.7245 21.9547 74.5751 24.5253 74.5751 27.256C74.5751 27.8533 74.4471 28.344 74.1911 28.728C73.9351 29.1333 73.6258 29.336 73.2631 29.336C73.0498 29.336 72.8471 29.2827 72.6551 29.176C72.4631 29.0693 72.2925 28.8133 72.1431 28.408C72.0151 28.024 71.9085 27.416 71.8231 26.584C71.7378 25.7307 71.6951 24.5787 71.6951 23.128C71.6951 22.0187 71.7591 20.8133 71.8871 19.512C70.9058 21.2827 69.8391 22.8293 68.6871 24.152C67.5565 25.4533 66.4578 26.456 65.3911 27.16C64.3458 27.864 63.4498 28.216 62.7031 28.216C61.7858 28.216 61.0391 27.9067 60.4631 27.288C59.9085 26.6907 59.6311 25.7947 59.6311 24.6C59.6311 23.5547 59.8765 22.4773 60.3671 21.368C60.8578 20.2587 61.5085 19.1707 62.3191 18.104C63.1298 17.016 64.0258 15.992 65.0071 15.032C65.9885 14.072 66.9698 13.2293 67.9511 12.504C68.9538 11.7573 69.8818 11.1813 70.7351 10.776C71.5885 10.3493 72.2818 10.136 72.8151 10.136C73.0285 10.136 73.2205 10.2107 73.3911 10.36C73.5618 10.5093 73.6471 10.6907 73.6471 10.904ZM73.2311 11.896C73.0818 12.0453 72.9005 12.1947 72.6871 12.344C72.4738 12.4933 72.2391 12.6533 71.9831 12.824C71.0445 13.4853 70.0098 14.2533 68.8791 15.128C67.7698 15.9813 66.7031 16.92 65.6791 17.944C64.6765 18.9467 63.8551 20.0027 63.2151 21.112C62.5751 22.2213 62.2551 23.3627 62.2551 24.536C62.2551 25.048 62.5111 25.304 63.0231 25.304C63.7271 25.304 64.4951 24.9733 65.3271 24.312C66.1805 23.6293 67.0551 22.6907 67.9511 21.496C68.8471 20.28 69.7431 18.8613 70.6391 17.24C71.5351 15.5973 72.3991 13.816 73.2311 11.896ZM85.7871 27.704C85.3178 27.704 84.9551 27.5653 84.6991 27.288C84.4645 27.032 84.3471 26.7333 84.3471 26.392C84.3471 26.0933 84.4751 25.816 84.7311 25.56C85.0085 25.2827 85.3818 25.0373 85.8511 24.824C86.7045 24.376 87.5045 23.928 88.2511 23.48C89.0191 23.032 89.6378 22.552 90.1071 22.04C90.5765 21.528 90.8111 20.984 90.8111 20.408C90.8111 19.9173 90.6511 19.544 90.3311 19.288C90.0111 19.0107 89.5738 18.872 89.0191 18.872C88.6991 18.872 88.2511 18.936 87.6751 19.064C87.0991 19.1707 86.4698 19.2987 85.7871 19.448C85.1258 19.576 84.4751 19.704 83.8351 19.832C83.1951 19.9387 82.6511 19.992 82.2031 19.992C81.3925 19.992 80.7845 19.8 80.3791 19.416C79.9738 19.0107 79.7711 18.4667 79.7711 17.784C79.7711 17.4427 79.9738 16.9307 80.3791 16.248C80.7845 15.5653 81.3178 14.808 81.9791 13.976C82.6618 13.1227 83.4085 12.2693 84.2191 11.416C85.0298 10.5627 85.8511 9.77333 86.6831 9.048C87.5365 8.32267 88.3258 7.736 89.0511 7.288C89.7978 6.84 90.4165 6.616 90.9071 6.616C91.3978 6.616 91.7711 6.776 92.0271 7.096C92.2831 7.416 92.4111 7.82133 92.4111 8.312C92.4111 8.696 92.3471 9.02667 92.2191 9.304C92.0911 9.56 91.8245 9.76267 91.4191 9.912C91.0351 10.0613 90.4378 10.1467 89.6271 10.168C88.7951 10.8293 87.9098 11.5867 86.9711 12.44C86.0538 13.272 85.2111 14.136 84.4431 15.032C83.6965 15.9067 83.1525 16.7493 82.8111 17.56C83.5151 17.3253 84.3685 17.1227 85.3711 16.952C86.3951 16.76 87.4298 16.664 88.4751 16.664C90.1178 16.664 91.3338 17.0373 92.1231 17.784C92.9338 18.5093 93.3391 19.4693 93.3391 20.664C93.3391 21.432 93.0938 22.232 92.6031 23.064C92.1338 23.8747 91.5151 24.632 90.7471 25.336C89.9791 26.04 89.1578 26.6053 88.2831 27.032C87.4085 27.48 86.5765 27.704 85.7871 27.704Z" fill="black"/>
</svg>
