<svg width="162" height="31" viewBox="0 0 162 31" fill="none" xmlns="http://www.w3.org/2000/svg">
<path d="M13.5988 0C6.08838 0 0 6.06587 0 13.5485V23.7099C0 27.1558 2.80386 29.9493 6.26259 29.9493C9.72133 29.9493 12.5252 27.1558 12.5252 23.7099V12.6376C12.5252 7.6998 15.3676 3.42346 19.5111 1.34405C17.7234 0.482821 15.7177 0 13.5988 0Z" fill="#2D2929"/>
<path d="M28.5767 0.190186C21.0952 0.190186 15.0302 6.23277 15.0302 13.6867V23.9C15.0302 27.346 17.834 30.1395 21.2927 30.1395C24.7515 30.1395 27.5553 27.346 27.5553 23.9V13.6656C27.5553 8.02573 32.1199 3.44804 37.7691 3.39943C35.2499 1.39113 32.0541 0.190186 28.5767 0.190186Z" fill="#2D2929"/>
<rect x="31.1343" y="6.77441" width="12.1673" height="23.175" rx="6.08366" fill="#2D2929"/>
<path d="M55.1832 8.76497C55.5534 8.92939 55.7312 9.16802 55.8991 9.52072C55.9236 9.56941 55.9481 9.6181 55.9733 9.66826C56.0302 9.78149 56.0866 9.89497 56.1425 10.0086C56.25 10.2264 56.3607 10.4427 56.4714 10.6588C56.7273 11.1585 56.9814 11.659 57.2353 12.1596C57.3115 12.3098 57.3878 12.46 57.464 12.6102C57.703 13.0813 57.942 13.5523 58.1808 14.0235C58.4557 14.5657 58.7308 15.1079 59.0062 15.6499C59.2201 16.0708 59.4336 16.4919 59.6471 16.913C59.7742 17.1639 59.9015 17.4147 60.029 17.6654C60.1483 17.9001 60.2674 18.135 60.3862 18.37C60.4299 18.4562 60.4737 18.5425 60.5176 18.6286C60.5774 18.7459 60.6367 18.8633 60.696 18.9807C60.7136 19.0151 60.7312 19.0494 60.7493 19.0848C60.8214 19.2286 60.8676 19.3238 60.8676 19.4866C60.9008 19.4866 60.934 19.4866 60.9682 19.4866C60.9802 19.447 60.9922 19.4073 61.0045 19.3665C61.0846 19.1451 61.1869 18.9391 61.2924 18.7287C61.3147 18.684 61.3369 18.6393 61.3598 18.5932C61.4076 18.4972 61.4554 18.4013 61.5033 18.3054C61.6045 18.103 61.7053 17.9003 61.8061 17.6977C61.857 17.5954 61.9079 17.4931 61.9588 17.3908C62.1729 16.9608 62.3853 16.5301 62.5968 16.0989C62.6293 16.0326 62.6619 15.9664 62.6944 15.9001C62.7898 15.7058 62.8851 15.5114 62.9804 15.3171C63.1082 15.0565 63.236 14.7959 63.364 14.5353C63.3801 14.5025 63.3962 14.4697 63.4128 14.4359C63.7457 13.758 64.0812 13.0813 64.4169 12.4047C64.6942 11.8456 64.9708 11.2861 65.2445 10.7251C65.3385 10.5325 65.4327 10.34 65.527 10.1475C65.5715 10.0565 65.6159 9.96548 65.6602 9.87439C65.7149 9.76188 65.7702 9.64962 65.8257 9.53745C65.8538 9.48018 65.8819 9.42291 65.9108 9.36391C66.0697 9.08864 66.2392 8.87181 66.552 8.76497C66.8777 8.71659 67.1375 8.77704 67.4072 8.96352C67.598 9.16166 67.7214 9.34692 67.722 9.6235C67.7223 9.66601 67.7226 9.70852 67.7229 9.75232C67.7227 9.82203 67.7227 9.82203 67.7225 9.89314C67.7227 9.94269 67.7229 9.99224 67.7232 10.0433C67.7238 10.2098 67.7237 10.3763 67.7236 10.5428C67.7239 10.662 67.7243 10.7812 67.7246 10.9004C67.7254 11.1909 67.7258 11.4814 67.7258 11.7719C67.7259 12.0081 67.7261 12.2443 67.7264 12.4804C67.7273 13.1502 67.7277 13.82 67.7277 14.4898C67.7277 14.5259 67.7277 14.562 67.7277 14.5992C67.7276 14.6354 67.7276 14.6715 67.7276 14.7088C67.7276 15.2944 67.7286 15.8801 67.73 16.4658C67.7314 17.0673 67.7321 17.6688 67.732 18.2704C67.732 18.608 67.7323 18.9456 67.7334 19.2833C67.7344 19.6009 67.7343 19.9185 67.7336 20.2361C67.7335 20.3527 67.7337 20.4692 67.7343 20.5857C67.7351 20.7449 67.7347 20.9041 67.7339 21.0633C67.7344 21.1093 67.7349 21.1553 67.7354 21.2028C67.7323 21.4983 67.6769 21.7214 67.5078 21.9685C67.2794 22.1881 67.0716 22.271 66.7564 22.2849C66.5152 22.2793 66.3843 22.2285 66.1999 22.0678C65.9599 21.8156 65.8918 21.6719 65.8901 21.3252C65.8898 21.2892 65.8896 21.2533 65.8893 21.2162C65.8886 21.0951 65.8881 20.974 65.8877 20.8529C65.8872 20.7663 65.8867 20.6797 65.8862 20.5932C65.8848 20.3576 65.8838 20.122 65.8828 19.8865C65.8817 19.6405 65.8803 19.3945 65.879 19.1486C65.8765 18.6825 65.8742 18.2165 65.872 17.7505C65.8695 17.22 65.8668 16.6896 65.864 16.1591C65.8583 15.0677 65.8529 13.9763 65.8477 12.8849C65.8283 12.9247 65.8089 12.9646 65.7888 13.0057C65.7148 13.1574 65.6408 13.309 65.5667 13.4607C65.535 13.5256 65.5033 13.5906 65.4717 13.6555C65.2459 14.1184 65.0159 14.579 64.7819 15.0379C64.5492 15.4949 64.3218 15.9538 64.0998 16.416C63.9082 16.8135 63.7089 17.2071 63.5086 17.6004C63.2863 18.0369 63.0666 18.4743 62.8546 18.9158C62.5471 19.5564 62.2249 20.1897 61.9011 20.8224C61.8542 20.915 61.8079 21.0079 61.763 21.1014C61.6764 21.281 61.6002 21.4204 61.4398 21.5435C61.4101 21.5669 61.3804 21.5904 61.3498 21.6146C61.1061 21.7858 60.8023 21.7441 60.5155 21.7203C60.0318 21.5158 59.8451 20.9031 59.6261 20.4631C59.5506 20.3124 59.4745 20.162 59.3982 20.0116C59.3619 19.9399 59.3256 19.8683 59.2893 19.7967C59.2686 19.7559 59.2479 19.7151 59.2266 19.6731C59.104 19.4312 58.9814 19.1893 58.8589 18.9474C58.777 18.7858 58.6951 18.6241 58.6131 18.4624C58.5785 18.394 58.5438 18.3256 58.5092 18.2572C58.4917 18.2227 58.4742 18.1883 58.4562 18.1527C57.5999 16.4629 56.7437 14.7732 55.8875 13.0834C55.8874 13.127 55.8874 13.1707 55.8874 13.2156C55.8866 14.2779 55.8845 15.3401 55.8808 16.4023C55.8791 16.916 55.8778 17.4297 55.8776 17.9434C55.8775 18.3912 55.8764 18.839 55.8744 19.2868C55.8733 19.5238 55.8727 19.7609 55.8731 19.9979C55.8735 20.2212 55.8727 20.4444 55.871 20.6677C55.8706 20.7495 55.8706 20.8313 55.871 20.9131C55.8752 21.7124 55.8752 21.7124 55.5856 22.0181C55.4036 22.1934 55.2081 22.2809 54.9537 22.2911C54.6396 22.2704 54.4167 22.1748 54.2086 21.9406C54.0755 21.7773 54.02 21.6777 54.0195 21.467C54.0192 21.4241 54.019 21.3812 54.0188 21.337C54.0188 21.2896 54.0188 21.2422 54.0188 21.1934C54.0186 21.1432 54.0184 21.0931 54.0182 21.0414C54.0177 20.8723 54.0175 20.7032 54.0173 20.5341C54.017 20.4133 54.0167 20.2925 54.0163 20.1717C54.0153 19.8083 54.0148 19.445 54.0144 19.0816C54.0141 18.9106 54.0139 18.7395 54.0136 18.5685C54.0127 17.9999 54.012 17.4314 54.0117 16.8628C54.0116 16.7153 54.0115 16.5677 54.0114 16.4201C54.0113 16.3834 54.0113 16.3468 54.0113 16.309C54.0109 15.7147 54.0096 15.1205 54.008 14.5262C54.0063 13.9163 54.0054 13.3063 54.0052 12.6964C54.0051 12.3539 54.0047 12.0114 54.0034 11.6688C54.0022 11.3467 54.002 11.0245 54.0025 10.7023C54.0026 10.584 54.0022 10.4656 54.0015 10.3473C54.0007 10.1859 54.001 10.0245 54.0017 9.8631C54.0011 9.81614 54.0006 9.76917 54 9.72079C54.0028 9.44304 54.0386 9.28264 54.2274 9.06279C54.53 8.79406 54.7791 8.7064 55.1832 8.76497Z" fill="#2D2929"/>
<path d="M81.0839 8.76496C81.3475 8.87364 81.5252 9.02982 81.6876 9.26133C81.7385 9.3882 81.7808 9.50945 81.8196 9.63981C81.8318 9.67945 81.8441 9.71908 81.8567 9.75992C81.9018 9.90784 81.9457 10.0561 81.9894 10.2044C81.9985 10.2354 82.0077 10.2664 82.0171 10.2983C82.2608 11.1234 82.4966 11.9502 82.72 12.7809C82.8257 13.1707 82.9409 13.5571 83.0629 13.9422C83.1734 14.2921 83.2756 14.6442 83.3773 14.9967C83.4701 15.3185 83.564 15.6401 83.6587 15.9614C84.2017 17.8064 84.2017 17.8064 84.4038 18.5778C84.416 18.6238 84.4282 18.6699 84.4407 18.7174C84.4508 18.7562 84.4609 18.795 84.4712 18.835C84.5056 18.9436 84.5508 19.039 84.6052 19.1391C84.7775 18.5111 84.9492 17.8828 85.1145 17.2529C85.2667 16.6745 85.4284 16.099 85.594 15.5242C85.758 14.9531 85.9138 14.3811 86.0575 13.8047C86.1396 13.4764 86.2276 13.1504 86.3209 12.8252C86.4074 12.5225 86.4876 12.2184 86.5671 11.9138C86.6635 11.5453 86.7653 11.1794 86.8776 10.8152C86.9356 10.6247 86.9873 10.4337 87.034 10.2401C87.0448 10.1955 87.0556 10.1509 87.0667 10.1049C87.0872 10.0186 87.1073 9.93223 87.1267 9.8457C87.2131 9.48319 87.3566 9.2298 87.6738 9.01314C87.9736 8.91453 88.311 8.91443 88.6013 9.04417C88.8242 9.15535 88.9429 9.34716 89.021 9.57423C89.0591 9.7103 89.0932 9.84684 89.1263 9.98417C89.1524 10.0877 89.1786 10.1912 89.2049 10.2946C89.218 10.3464 89.2311 10.3983 89.2446 10.4517C89.3009 10.6685 89.3642 10.8831 89.4281 11.0979C89.5667 11.5675 89.6902 12.0406 89.8127 12.5144C89.9158 12.9126 90.0217 13.3094 90.1387 13.7039C90.2656 14.1317 90.3791 14.5625 90.4908 14.9944C90.6142 15.4716 90.7423 15.9468 90.8823 16.4196C91.0018 16.8264 91.1077 17.2365 91.2142 17.6467C91.349 18.1636 91.4959 18.6766 91.6478 19.1888C91.6644 19.1888 91.681 19.1888 91.6981 19.1888C91.707 19.1559 91.7158 19.1231 91.7249 19.0892C91.8992 18.4414 92.0782 17.7954 92.2703 17.1524C92.3894 16.753 92.504 16.3526 92.6163 15.9513C92.699 15.6573 92.7844 15.3642 92.8714 15.0714C93.0503 14.4685 93.2255 13.8646 93.3986 13.26C93.475 12.9933 93.5518 12.7268 93.6285 12.4602C93.725 12.1246 93.8215 11.7889 93.9176 11.4531C93.9962 11.178 94.0753 10.9031 94.1546 10.6283C94.1845 10.5244 94.2142 10.4206 94.2438 10.3167C94.285 10.172 94.3268 10.0275 94.3686 9.88296C94.3805 9.84077 94.3924 9.79859 94.4047 9.75512C94.5005 9.42726 94.5936 9.10956 94.8705 8.89215C95.1474 8.74681 95.4185 8.71613 95.7245 8.78958C95.941 8.87004 96.0282 8.95948 96.1249 9.16206C96.2255 9.79425 96.0388 10.34 95.8301 10.9305C95.7289 11.2262 95.6389 11.5252 95.5479 11.8241C95.5151 11.9322 95.482 12.0402 95.4489 12.1482C95.324 12.5562 95.2005 12.9646 95.0795 13.3738C95.0147 13.5921 94.9487 13.8101 94.8824 14.0281C94.8629 14.0922 94.8629 14.0922 94.843 14.1576C94.6689 14.7293 94.4921 15.3002 94.3154 15.8712C94.1454 16.4207 93.9768 16.9704 93.8133 17.5219C93.7485 17.7407 93.6825 17.9591 93.616 18.1774C93.6036 18.218 93.5913 18.2586 93.5786 18.3005C93.466 18.6699 93.352 19.039 93.238 19.408C93.1537 19.6808 93.0701 19.9538 92.9874 20.227C92.9502 20.3497 92.9127 20.4723 92.8752 20.5949C92.829 20.7461 92.7843 20.8975 92.7408 21.0494C92.4845 21.9277 92.4845 21.9277 92.088 22.1949C91.8641 22.3003 91.6382 22.3086 91.3963 22.2663C91.0674 22.1436 90.894 21.9263 90.7424 21.621C90.6725 21.4202 90.6222 21.2163 90.5726 21.0099C90.5423 20.8896 90.5121 20.7693 90.4818 20.649C90.4666 20.5878 90.4515 20.5266 90.4359 20.4635C90.3647 20.1786 90.2893 19.8947 90.2142 19.6107C90.1847 19.4988 90.1553 19.3868 90.1259 19.2749C90.0679 19.0541 90.0099 18.8333 89.9518 18.6125C89.7871 17.9862 89.6229 17.3597 89.4591 16.7331C89.3123 16.1713 89.165 15.6097 89.0173 15.0481C88.9604 14.8319 88.9037 14.6157 88.8471 14.3994C88.6107 13.4964 88.3691 12.5949 88.1265 11.6936C88.12 11.7212 88.1134 11.7489 88.1066 11.7774C87.9553 12.4137 87.7984 13.0471 87.6178 13.6759C87.4671 14.2021 87.3303 14.731 87.1969 15.2616C87.1069 15.6195 87.0147 15.9764 86.9171 16.3323C86.87 16.5045 86.8241 16.677 86.7784 16.8495C86.6973 17.1554 86.6153 17.4609 86.5281 17.7652C86.4059 18.1912 86.2948 18.6195 86.1867 19.0492C85.9416 20.022 85.9416 20.022 85.8424 20.3736C85.8191 20.4559 85.7961 20.5382 85.7732 20.6206C85.7282 20.7816 85.6824 20.9423 85.6364 21.1029C85.6221 21.1544 85.6078 21.2058 85.593 21.2589C85.4699 21.683 85.3227 21.9538 84.9573 22.2167C84.6799 22.3049 84.4015 22.3147 84.1399 22.1856C83.8003 21.8962 83.6837 21.6401 83.5488 21.2239C83.5215 21.1416 83.4942 21.0594 83.4669 20.9771C83.3143 20.514 83.1704 20.0496 83.041 19.5796C82.9327 19.1881 82.8114 18.8006 82.6909 18.4126C82.5835 18.0668 82.4781 17.7204 82.373 17.3739C82.354 17.3115 82.335 17.2491 82.3154 17.1847C82.2275 16.8954 82.1398 16.6061 82.0524 16.3167C81.8725 15.7214 81.6921 15.1265 81.4989 14.5353C81.3839 14.1833 81.2777 13.8302 81.1795 13.4732C81.1004 13.1876 81.0148 12.9042 80.9267 12.6212C80.7613 12.0895 80.5999 11.5566 80.4394 11.0235C80.4272 10.983 80.415 10.9425 80.4024 10.9007C80.3672 10.7839 80.3321 10.6671 80.2969 10.5503C80.2864 10.5156 80.276 10.4808 80.2652 10.445C80.2361 10.3483 80.2073 10.2516 80.1784 10.1548C80.1597 10.0923 80.141 10.0297 80.1218 9.96528C80.038 9.66424 80.0231 9.37561 80.1596 9.0907C80.4381 8.7942 80.6793 8.69349 81.0839 8.76496Z" fill="#2D2929"/>
<path d="M152.625 8.81035C153.016 9.03352 153.158 9.38906 153.322 9.78623C153.341 9.83287 153.361 9.8795 153.381 9.92755C153.445 10.0807 153.509 10.2341 153.573 10.3875C153.618 10.4953 153.663 10.603 153.708 10.7108C153.801 10.9316 153.893 11.1524 153.986 11.3733C154.181 11.8395 154.378 12.3048 154.576 12.7701C154.613 12.8578 154.65 12.9456 154.687 13.0333C154.976 13.7124 155.266 14.3906 155.557 15.0687C155.912 15.8969 156.263 16.7265 156.613 17.5567C156.654 17.6554 156.696 17.7541 156.738 17.8529C156.758 17.9016 156.779 17.9502 156.8 18.0004C157.083 18.6724 157.368 19.3438 157.654 20.0151C157.688 20.0952 157.722 20.1753 157.755 20.2555C157.827 20.4246 157.899 20.5935 157.973 20.7618C157.995 20.8145 158.018 20.8672 158.042 20.9215C158.071 20.9873 158.071 20.9874 158.1 21.0546C158.187 21.2908 158.195 21.494 158.101 21.7281C157.959 21.9844 157.768 22.1602 157.49 22.2663C157.194 22.3186 156.946 22.2676 156.685 22.1174C156.376 21.8506 156.255 21.4952 156.113 21.1247C156.074 21.0256 156.035 20.9267 155.996 20.8277C155.968 20.7573 155.941 20.6869 155.913 20.6164C155.757 20.219 155.591 19.8252 155.426 19.4312C155.18 18.8425 154.936 18.253 154.702 17.6594C154.451 17.0246 154.192 16.393 153.933 15.7618C153.713 15.2284 153.495 14.6948 153.277 14.1607C153.234 14.0542 153.19 13.9478 153.147 13.8413C153.133 13.8062 153.118 13.7711 153.104 13.7349C153.075 13.664 153.046 13.5931 153.017 13.5222C152.945 13.3458 152.873 13.1693 152.801 12.9928C152.733 12.8257 152.665 12.6586 152.597 12.4915C152.56 12.3992 152.522 12.3068 152.484 12.2145C152.451 12.132 152.451 12.132 152.416 12.0479C152.397 11.9996 152.377 11.9514 152.357 11.9016C152.318 11.7961 152.318 11.7961 152.259 11.7432C152.235 11.8004 152.211 11.8576 152.186 11.9166C151.533 13.4761 150.88 15.0357 150.228 16.5953C150.208 16.6423 150.188 16.6894 150.168 16.7379C150.128 16.8332 150.088 16.9284 150.048 17.0236C149.949 17.2603 149.85 17.4969 149.751 17.7336C149.566 18.1757 149.381 18.6177 149.195 19.0594C149.108 19.2659 149.022 19.4724 148.935 19.6789C148.894 19.7765 148.853 19.874 148.812 19.9715C148.598 20.4794 148.389 20.9875 148.199 21.5047C148.068 21.8367 147.954 22.0386 147.638 22.2209C147.415 22.3146 147.15 22.3089 146.923 22.2305C146.673 22.0989 146.524 21.9324 146.411 21.68C146.319 21.296 146.389 21.0312 146.547 20.681C146.565 20.6385 146.584 20.596 146.603 20.5522C146.664 20.4118 146.726 20.2719 146.788 20.1319C146.831 20.0326 146.875 19.9333 146.918 19.8339C146.986 19.6783 147.053 19.5228 147.121 19.3673C147.345 18.8562 147.562 18.3424 147.778 17.8282C147.883 17.5778 147.989 17.3275 148.095 17.0773C148.115 17.0288 148.135 16.9804 148.156 16.9305C148.351 16.4697 148.547 16.0097 148.744 15.5498C149.025 14.8904 149.306 14.2306 149.586 13.5705C149.624 13.4813 149.662 13.3921 149.7 13.3029C149.875 12.889 150.051 12.4751 150.226 12.061C150.451 11.5285 150.677 10.9962 150.903 10.4643C150.947 10.3611 150.991 10.2577 151.035 10.1544C151.104 9.99197 151.173 9.82981 151.243 9.66776C151.262 9.62398 151.28 9.5802 151.299 9.53509C151.427 9.2399 151.568 9.00858 151.84 8.82083C152.105 8.73207 152.36 8.70575 152.625 8.81035Z" fill="#2D2929"/>
<path d="M117.542 8.82082C117.759 8.94406 117.894 9.08746 118.007 9.31099C118.013 9.40719 118.015 9.50358 118.015 9.59993C118.016 9.66147 118.016 9.723 118.017 9.78639C118.017 9.85495 118.017 9.92351 118.018 9.99207C118.018 10.064 118.019 10.1359 118.019 10.2078C118.021 10.4033 118.022 10.5989 118.023 10.7945C118.024 10.9987 118.025 11.2029 118.026 11.4072C118.029 11.7941 118.031 12.181 118.033 12.568C118.036 13.0084 118.039 13.4488 118.041 13.8892C118.047 14.7954 118.052 15.7015 118.058 16.6077C118.079 16.5876 118.101 16.5675 118.123 16.5469C118.223 16.4552 118.322 16.3636 118.421 16.272C118.456 16.2405 118.49 16.2089 118.525 16.1764C118.72 15.9963 118.917 15.8187 119.12 15.6465C119.237 15.5465 119.351 15.4442 119.466 15.3419C119.615 15.2094 119.764 15.0777 119.916 14.9479C120.078 14.8084 120.238 14.6661 120.397 14.5229C120.587 14.3514 120.78 14.1821 120.974 14.0151C121.091 13.9144 121.206 13.8124 121.321 13.7101C121.385 13.6538 121.385 13.6538 121.449 13.5963C121.536 13.5189 121.622 13.4412 121.709 13.3632C122.483 12.6659 122.483 12.6659 122.918 12.6727C123.187 12.7032 123.368 12.8417 123.538 13.0431C123.674 13.2494 123.681 13.4402 123.641 13.6791C123.508 14.0818 123.109 14.3613 122.793 14.6297C122.672 14.7332 122.553 14.8389 122.434 14.9448C122.284 15.0783 122.134 15.211 121.981 15.3419C121.744 15.546 121.511 15.7542 121.277 15.9624C121.036 16.1774 120.795 16.3922 120.551 16.6046C120.52 16.6316 120.489 16.6587 120.457 16.6866C120.372 16.7566 120.372 16.7566 120.221 16.8559C120.305 17.0461 120.43 17.2005 120.56 17.3615C120.584 17.3917 120.609 17.4218 120.634 17.4529C120.885 17.7648 121.142 18.072 121.4 18.3791C121.575 18.5881 121.749 18.7983 121.922 19.0089C122.1 19.2264 122.279 19.4437 122.459 19.6604C122.535 19.7513 122.61 19.8424 122.686 19.9334C122.724 19.9799 122.724 19.9799 122.764 20.0273C122.85 20.1314 122.936 20.2356 123.022 20.3398C123.049 20.3722 123.076 20.4047 123.104 20.4381C123.769 21.2441 123.769 21.2441 123.758 21.6133C123.718 21.8842 123.602 22.0695 123.387 22.2384C123.2 22.3366 123.056 22.3751 122.846 22.3811C122.804 22.383 122.762 22.3848 122.719 22.3867C122.407 22.3376 122.212 22.1067 122.022 21.8754C121.987 21.8331 121.987 21.8331 121.95 21.7899C121.761 21.5634 121.578 21.3326 121.395 21.101C121.176 20.824 120.95 20.5534 120.723 20.2827C120.539 20.0628 120.356 19.8415 120.176 19.6181C120.034 19.4422 119.89 19.2674 119.746 19.0926C119.718 19.0586 119.69 19.0245 119.661 18.9894C119.533 18.8334 119.404 18.6778 119.273 18.5235C119.232 18.4749 119.191 18.4262 119.149 18.376C119.094 18.3125 119.094 18.3125 119.039 18.2476C118.963 18.1464 118.963 18.1464 118.963 18.0471C118.879 18.0963 118.795 18.1461 118.712 18.1961C118.63 18.242 118.63 18.242 118.546 18.2889C118.288 18.4582 118.095 18.6349 118.022 18.9412C117.976 19.3495 117.988 19.7599 118.001 20.1699C118.008 20.4051 118.011 20.6403 118.013 20.8755C118.014 21.0002 118.017 21.125 118.021 21.2497C118.028 21.5857 118.017 21.7979 117.806 22.0678C117.556 22.2641 117.352 22.2982 117.034 22.2853C116.759 22.2462 116.603 22.1358 116.429 21.9189C116.323 21.7264 116.291 21.5754 116.29 21.3581C116.29 21.3156 116.29 21.2731 116.29 21.2293C116.29 21.1829 116.29 21.1364 116.29 21.0885C116.289 21.039 116.289 20.9894 116.289 20.9384C116.288 20.7718 116.288 20.6053 116.288 20.4388C116.288 20.3196 116.287 20.2004 116.287 20.0812C116.286 19.7232 116.286 19.3652 116.285 19.0072C116.285 18.8385 116.285 18.6699 116.284 18.5012C116.284 17.9404 116.283 17.3796 116.282 16.8188C116.282 16.6734 116.282 16.5279 116.282 16.3824C116.282 16.3463 116.282 16.3101 116.282 16.2729C116.282 15.6872 116.28 15.1015 116.279 14.5159C116.277 13.9143 116.276 13.3128 116.276 12.7113C116.276 12.3736 116.275 12.036 116.274 11.6984C116.273 11.3807 116.273 11.0631 116.273 10.7455C116.273 10.629 116.273 10.5124 116.272 10.3959C116.271 10.2367 116.272 10.0776 116.272 9.91836C116.272 9.87234 116.271 9.82631 116.271 9.77889C116.274 9.44341 116.348 9.16579 116.59 8.92009C116.919 8.72426 117.177 8.71265 117.542 8.82082Z" fill="#2D2929"/>
<path d="M70.7776 12.8352C71.2684 13.0465 71.4751 13.7028 71.701 14.1531C71.7366 14.2238 71.7722 14.2944 71.8079 14.365C71.9016 14.5505 71.995 14.7362 72.0884 14.9218C72.2545 15.2521 72.421 15.5821 72.5876 15.9121C72.6054 15.9476 72.6233 15.983 72.6417 16.0195C72.8642 16.4601 73.0897 16.8986 73.324 17.3331C73.5283 17.7121 73.7243 18.0952 73.9188 18.4792C73.9797 18.5993 74.041 18.7192 74.1022 18.8391C74.1412 18.9159 74.1802 18.9927 74.2191 19.0695C74.2373 19.1052 74.2556 19.1408 74.2744 19.1775C74.3995 19.4256 74.3995 19.4256 74.3995 19.5363C74.4327 19.5363 74.4659 19.5363 74.5001 19.5363C74.5065 19.4887 74.5065 19.4887 74.513 19.4403C74.5653 19.2275 74.6559 19.0371 74.7471 18.838C74.7672 18.7937 74.7872 18.7493 74.8079 18.7036C74.8738 18.5581 74.9401 18.4128 75.0063 18.2674C75.0524 18.1657 75.0985 18.064 75.1445 17.9624C75.2377 17.7566 75.331 17.5509 75.4244 17.3453C75.5894 16.9821 75.7535 16.6185 75.9173 16.2547C75.9653 16.1484 76.0133 16.0421 76.0614 15.9359C76.2232 15.5776 76.3832 15.2186 76.5402 14.8583C76.6218 14.671 76.7038 14.4839 76.7858 14.2968C76.8252 14.2066 76.8643 14.1163 76.9032 14.0259C76.9575 13.8999 77.0125 13.7742 77.0676 13.6486C77.0833 13.6116 77.099 13.5745 77.1151 13.5364C77.2338 13.2689 77.3948 12.9706 77.6693 12.8352C78.0705 12.7871 78.3936 12.8511 78.7257 13.0834C78.9043 13.2782 78.9016 13.4289 78.894 13.683C78.8661 13.9157 78.7807 14.1079 78.6795 14.3181C78.6488 14.3851 78.6488 14.3851 78.6175 14.4535C78.5748 14.5468 78.5317 14.6398 78.4881 14.7327C78.4073 14.9058 78.3295 15.0802 78.2518 15.2547C78.1538 15.4744 78.0545 15.6935 77.9554 15.9127C77.9117 16.0094 77.8681 16.1062 77.8245 16.2029C77.7341 16.4032 77.6437 16.6034 77.5533 16.8037C77.3571 17.2383 77.1613 17.6732 76.9655 18.1081C76.8606 18.3411 76.7556 18.5742 76.6506 18.8072C76.61 18.8974 76.5694 18.9875 76.5288 19.0777C75.5103 21.3389 75.5103 21.3389 75.462 21.4462C75.4295 21.5183 75.3971 21.5903 75.3646 21.6624C75.2826 21.8444 75.2006 22.0264 75.1186 22.2084C74.9491 22.5848 74.7796 22.9611 74.6102 23.3375C74.521 23.5358 74.4318 23.734 74.3425 23.9322C74.2997 24.0275 74.2568 24.1227 74.2139 24.218C74.1936 24.2631 74.1734 24.3082 74.1525 24.3546C74.1324 24.3992 74.1124 24.4437 74.0918 24.4895C74.0521 24.5776 74.0123 24.6656 73.9724 24.7535C73.8715 24.9761 73.7722 25.1993 73.6758 25.4239C73.656 25.469 73.6363 25.5142 73.616 25.5607C73.5787 25.646 73.5421 25.7316 73.5061 25.8175C73.3914 26.0776 73.2805 26.2259 73.0413 26.3862C72.7529 26.4507 72.4677 26.4269 72.2113 26.2776C72.1511 26.233 72.0922 26.1865 72.0352 26.138C71.9937 26.1032 71.9522 26.0684 71.9094 26.0325C71.7776 25.7832 71.7937 25.4892 71.8682 25.2204C71.9166 25.098 71.9703 24.9799 72.0275 24.8612C72.0479 24.8169 72.0682 24.7726 72.0891 24.727C72.1551 24.5837 72.2225 24.441 72.2899 24.2983C72.3357 24.1991 72.3814 24.0998 72.4271 24.0005C72.5193 23.7999 72.6121 23.5995 72.7054 23.3994C72.8834 23.0174 73.0599 22.6349 73.2338 22.2511C73.2825 22.1441 73.3321 22.0376 73.3817 21.931C73.4112 21.8665 73.4405 21.8019 73.4699 21.7374C73.4953 21.6822 73.5208 21.627 73.547 21.5701C73.6329 21.3036 73.5336 21.1362 73.4083 20.894C73.3896 20.8586 73.3709 20.8232 73.3516 20.7867C73.3321 20.7493 73.3126 20.7118 73.2925 20.6733C73.229 20.5516 73.165 20.4302 73.101 20.3087C73.0568 20.2243 73.0126 20.1399 72.9684 20.0554C72.7232 19.5879 72.4734 19.1234 72.2147 18.663C71.9779 18.239 71.7554 17.808 71.5322 17.377C71.2841 16.8982 71.035 16.4206 70.7713 15.95C70.5192 15.5 70.2779 15.0448 70.0387 14.588C70.0207 14.5536 70.0026 14.5193 69.984 14.4838C69.9328 14.3861 69.8817 14.2882 69.8306 14.1904C69.801 14.1336 69.7714 14.0769 69.7409 14.0184C69.6293 13.7939 69.5915 13.6313 69.6206 13.3812C69.8901 12.8948 70.2319 12.7716 70.7776 12.8352Z" fill="#2D2929"/>
<path d="M161.477 8.84564C161.716 8.97811 161.879 9.14971 161.967 9.41026C161.972 9.47945 161.974 9.54883 161.974 9.61818C161.974 9.66076 161.975 9.70335 161.975 9.74723C161.975 9.79403 161.975 9.84084 161.975 9.88906C161.975 9.96363 161.975 9.96363 161.976 10.0397C161.976 10.2071 161.977 10.3744 161.977 10.5418C161.977 10.6615 161.978 10.7811 161.978 10.9008C161.979 11.2605 161.98 11.6202 161.981 11.98C161.981 12.0816 161.981 12.1832 161.981 12.2848C161.983 12.9159 161.984 13.5471 161.984 14.1782C161.985 14.3243 161.985 14.4705 161.985 14.6167C161.985 14.653 161.985 14.6893 161.985 14.7268C161.986 15.3152 161.987 15.9036 161.989 16.492C161.992 17.0962 161.993 17.7004 161.993 18.3046C161.993 18.6438 161.994 18.983 161.995 19.3222C161.997 19.6413 161.997 19.9605 161.997 20.2796C161.997 20.3967 161.997 20.5138 161.998 20.6309C161.999 20.7909 161.999 20.9507 161.998 21.1107C161.999 21.1801 161.999 21.1801 162 21.2509C161.996 21.5663 161.919 21.773 161.716 22.0181C161.455 22.2572 161.243 22.2841 160.897 22.2801C160.63 22.2533 160.484 22.1033 160.317 21.9127C160.187 21.7443 160.15 21.6725 160.15 21.467C160.149 21.4241 160.149 21.3812 160.149 21.3371C160.149 21.2896 160.149 21.2422 160.149 21.1934C160.149 21.1433 160.149 21.0931 160.148 21.0414C160.148 20.8723 160.148 20.7032 160.147 20.5341C160.147 20.4133 160.147 20.2925 160.146 20.1717C160.145 19.8083 160.145 19.445 160.144 19.0816C160.144 18.9106 160.144 18.7395 160.144 18.5685C160.143 17.9999 160.142 17.4314 160.142 16.8629C160.142 16.7153 160.142 16.5677 160.141 16.4201C160.141 16.3834 160.141 16.3468 160.141 16.309C160.141 15.7147 160.14 15.1205 160.138 14.5262C160.136 13.9163 160.136 13.3064 160.135 12.6964C160.135 12.3539 160.135 12.0114 160.134 11.6688C160.132 11.3467 160.132 11.0245 160.133 10.7023C160.133 10.584 160.132 10.4656 160.132 10.3473C160.131 10.1859 160.131 10.0245 160.132 9.86311C160.131 9.81615 160.131 9.76918 160.13 9.7208C160.133 9.38885 160.201 9.22179 160.438 8.98117C160.756 8.73127 161.101 8.67605 161.477 8.84564Z" fill="#2D2929"/>
<path d="M112.442 12.7173C112.528 12.7165 112.528 12.7165 112.615 12.7156C113.219 12.7176 113.799 12.8056 114.285 13.1827C114.433 13.3467 114.48 13.434 114.508 13.6511C114.479 13.885 114.411 14.0765 114.266 14.2654C114.051 14.4201 113.868 14.4331 113.609 14.4081C113.526 14.4007 113.526 14.4007 113.442 14.3932C113.279 14.374 113.279 14.374 113.142 14.3476C112.159 14.2092 111.083 14.299 110.26 14.8859C109.89 15.1947 109.643 15.6144 109.593 16.0939C109.588 16.2413 109.587 16.3879 109.589 16.5354C109.589 16.5909 109.589 16.6465 109.588 16.7038C109.588 16.8238 109.588 16.9438 109.589 17.0638C109.59 17.2539 109.589 17.444 109.589 17.6341C109.587 18.1402 109.587 18.6464 109.588 19.1525C109.589 19.5177 109.588 19.8828 109.587 20.248C109.587 20.3739 109.587 20.4997 109.587 20.6256C109.588 20.8017 109.588 20.9777 109.587 21.1537C109.588 21.2313 109.588 21.2313 109.589 21.3105C109.585 21.6402 109.524 21.8635 109.305 22.1174C109.067 22.3049 108.796 22.2907 108.503 22.2841C108.291 22.2596 108.203 22.2095 108.047 22.0678C108.018 22.0452 107.989 22.0227 107.959 21.9995C107.793 21.7865 107.783 21.5361 107.782 21.277C107.782 21.2268 107.782 21.2268 107.781 21.1757C107.781 21.0643 107.781 20.953 107.781 20.8417C107.781 20.7616 107.78 20.6815 107.78 20.6014C107.779 20.3843 107.779 20.1672 107.779 19.9501C107.779 19.8143 107.778 19.6786 107.778 19.5428C107.777 19.0689 107.777 18.5951 107.777 18.1212C107.777 17.6799 107.776 17.2386 107.774 16.7974C107.773 16.4181 107.772 16.0388 107.773 15.6595C107.773 15.4332 107.772 15.2069 107.771 14.9805C107.77 14.7676 107.77 14.5547 107.771 14.3418C107.771 14.2638 107.771 14.1859 107.77 14.1079C107.765 13.375 107.765 13.375 107.997 13.0338C108.24 12.8014 108.534 12.8211 108.856 12.8246C109.114 12.8433 109.25 12.9248 109.421 13.1113C109.55 13.2953 109.568 13.4127 109.584 13.6356C109.589 13.69 109.593 13.7444 109.597 13.8004C109.6 13.8423 109.603 13.8841 109.607 13.9272C109.672 13.8551 109.672 13.8551 109.739 13.7814C110.458 13.0734 111.44 12.7072 112.442 12.7173Z" fill="#2D2929"/>
<path d="M140.965 12.7142C141.027 12.7132 141.088 12.7123 141.152 12.7112C141.759 12.7115 142.337 12.8336 142.807 13.2323C142.934 13.38 142.956 13.4557 142.977 13.648C142.952 13.8844 142.885 14.075 142.738 14.2654C142.517 14.4247 142.322 14.4405 142.053 14.4236C141.962 14.4079 141.871 14.3914 141.78 14.3746C140.772 14.2064 139.758 14.2475 138.88 14.7994C138.781 14.8678 138.781 14.8678 138.701 14.9537C138.632 15.0193 138.632 15.0193 138.532 15.0193C138.519 15.0459 138.507 15.0725 138.494 15.0999C138.431 15.2178 138.431 15.2178 138.333 15.3512C138.093 15.7325 138.057 16.0932 138.061 16.5354C138.061 16.5909 138.061 16.6465 138.061 16.7038C138.061 16.8238 138.061 16.9438 138.061 17.0638C138.062 17.2539 138.062 17.444 138.061 17.6341C138.06 18.1402 138.06 18.6464 138.061 19.1525C138.061 19.5177 138.061 19.8828 138.059 20.248C138.059 20.3739 138.059 20.4997 138.06 20.6256C138.061 20.8017 138.06 20.9777 138.059 21.1537C138.06 21.2313 138.06 21.2313 138.061 21.3105C138.058 21.6402 137.996 21.8635 137.777 22.1174C137.539 22.3049 137.269 22.2907 136.976 22.2841C136.763 22.2596 136.675 22.2095 136.519 22.0678C136.49 22.0442 136.461 22.0207 136.431 21.9964C136.267 21.7931 136.255 21.5833 136.254 21.3307C136.254 21.2971 136.254 21.2635 136.254 21.2289C136.253 21.1167 136.253 21.0046 136.253 20.8924C136.253 20.8118 136.253 20.7313 136.252 20.6507C136.251 20.432 136.251 20.2134 136.251 19.9947C136.251 19.858 136.251 19.7213 136.25 19.5847C136.25 19.1075 136.249 18.6304 136.249 18.1533C136.249 17.709 136.248 17.2647 136.247 16.8203C136.245 16.4385 136.245 16.0567 136.245 15.6749C136.245 15.447 136.245 15.2191 136.244 14.9913C136.243 14.7768 136.243 14.5624 136.243 14.348C136.243 14.2695 136.243 14.1909 136.243 14.1124C136.237 13.3688 136.237 13.3688 136.469 13.0338C136.735 12.8105 136.98 12.8077 137.323 12.8193C137.584 12.8466 137.719 12.921 137.893 13.1113C138.022 13.2953 138.04 13.4127 138.057 13.6356C138.061 13.69 138.065 13.7444 138.07 13.8004C138.073 13.8423 138.076 13.8841 138.079 13.9272C138.144 13.8551 138.144 13.8551 138.211 13.7814C138.949 13.0549 139.94 12.7084 140.965 12.7142Z" fill="#2D2929"/>
<path d="M143.452 20.2188C143.803 20.3948 144.037 20.601 144.166 20.9757C144.21 21.3054 144.236 21.65 144.062 21.9468C143.861 22.2045 143.627 22.4147 143.31 22.5145C142.942 22.5558 142.594 22.5721 142.288 22.3437C142.02 22.0978 141.82 21.878 141.786 21.5049C141.786 21.4165 141.786 21.4165 141.786 21.3263C141.785 21.2675 141.784 21.2087 141.783 21.1481C141.814 20.8594 141.953 20.6379 142.153 20.4297C142.562 20.1403 142.968 20.015 143.452 20.2188Z" fill="#2D2929"/>
<path fill-rule="evenodd" clip-rule="evenodd" d="M132.596 13.7784C132.522 13.7122 132.448 13.6472 132.373 13.5829C131.227 12.7043 129.777 12.5753 128.381 12.8091C127.243 13.1001 126.315 13.7694 125.641 14.7091C124.875 15.9015 124.687 17.3781 124.984 18.7543C125.322 19.9759 126.009 20.949 127.101 21.629C128.177 22.2347 129.532 22.528 130.757 22.2509L130.885 22.2167C131.659 22.0251 132.748 21.7363 133.255 21.0708C133.349 20.8741 133.351 20.6887 133.3 20.4794C133.165 20.236 132.964 20.0693 132.696 19.983C132.413 19.9354 132.206 19.958 131.961 20.1102C131.872 20.1685 131.781 20.2252 131.69 20.2809C130.91 20.6812 129.991 20.9457 129.114 20.7301L128.924 20.678C128.687 20.6242 128.472 20.5528 128.251 20.4503C127.51 20.0696 126.953 19.4875 126.689 18.6964L126.65 18.5748C126.603 18.4321 126.556 18.2894 126.509 18.1465C127.351 18.1476 128.192 18.1484 129.034 18.149C129.443 18.1492 129.852 18.1495 130.261 18.15C130.62 18.1505 130.98 18.1509 131.339 18.1511L131.394 18.1511C131.565 18.1512 131.737 18.1512 131.908 18.1515C132.09 18.1518 132.271 18.1521 132.453 18.1521L132.654 18.1521L132.844 18.1526L133.018 18.1524C133.308 18.1527 133.516 18.1229 133.753 17.9479C133.935 17.6985 133.977 17.5199 133.974 17.2139L133.97 17.0762C133.968 16.9418 133.966 16.8076 133.961 16.6733C133.9 15.6829 133.444 14.5317 132.689 13.8561L132.596 13.7784ZM132.344 16.5581C132.218 15.8164 131.831 15.1391 131.238 14.6719C130.51 14.172 129.548 14.0944 128.694 14.281C127.859 14.5315 127.254 15.0033 126.843 15.7601L126.789 15.8632C126.621 16.1726 126.597 16.3839 126.559 16.7566H132.344V16.5581Z" fill="#2D2929"/>
<path fill-rule="evenodd" clip-rule="evenodd" d="M103.236 13.0453L103.061 12.984C101.287 12.3509 99.0963 12.7376 97.7816 14.1108L97.6784 14.225C97.4054 14.5267 97.1912 14.8406 97.0042 15.2009C96.3943 16.4589 96.3195 17.9655 96.7679 19.2894C97.1856 20.4447 98.0318 21.3686 99.1571 21.9001C100.416 22.4294 101.842 22.4995 103.135 22.0347L103.312 21.9684C103.88 21.7587 104.429 21.4073 104.843 20.9669L104.922 20.8764C105.311 20.4366 105.605 19.9662 105.84 19.4307C106.32 18.2203 106.293 16.7008 105.782 15.5086C105.262 14.3784 104.425 13.5022 103.236 13.0453ZM102.51 14.4747L102.357 14.4235C101.792 14.2306 101.085 14.1745 100.502 14.3367L100.395 14.3739C99.9841 14.5162 99.6223 14.6921 99.2881 14.9695C98.6451 15.547 98.2707 16.3122 98.2255 17.1722C98.1913 18.2297 98.3928 19.1397 99.1339 19.9389C99.6897 20.4531 100.401 20.7518 101.16 20.7522L101.335 20.7492C101.694 20.7513 102.02 20.7493 102.358 20.6207L102.457 20.5785C102.845 20.4155 103.207 20.2357 103.513 19.9437C104.18 19.2228 104.424 18.4371 104.435 17.4793C104.43 16.6273 104.19 15.7892 103.57 15.1658L103.463 15.0688C103.172 14.8014 102.884 14.6132 102.51 14.4747Z" fill="#2D2929"/>
</svg>
