<svg width="110" height="110" viewBox="0 0 110 110" fill="none" xmlns="http://www.w3.org/2000/svg">
<path fill-rule="evenodd" clip-rule="evenodd" d="M1 55C1 84.8234 25.1766 109 55 109C84.8234 109 109 84.8234 109 55C109 25.1766 84.8234 1 55 1C25.1766 1 1 25.1766 1 55Z" stroke="black" stroke-linecap="round" stroke-linejoin="round"/>
<path d="M38.8537 54.988H55.0117L66.7627 69.676M22.3447 46.639C23.2809 42.9323 24.8412 39.412 26.9587 36.229M34.1347 28.504C37.1196 26.1095 40.5077 24.2666 44.1397 23.062M54.5257 21.262C58.3468 21.2301 62.1472 21.825 65.7757 23.023M75.0997 27.919C78.1693 30.1984 80.8387 32.9722 82.9987 36.127M87.4357 45.7C88.4898 49.3762 88.9168 53.2038 88.6987 57.022M86.4367 67.315C85.1219 70.7191 83.2133 73.8628 80.7997 76.6M67.5487 86.332C57.151 90.4826 45.372 89.2099 36.1008 82.9341C26.8296 76.6584 21.2715 66.1955 21.2617 55M73.3687 79.957C73.3683 82.4309 75.3737 84.4367 77.8477 84.4367C80.3217 84.4367 82.3271 82.4309 82.3267 79.957C82.3271 77.483 80.3217 75.4772 77.8477 75.4772C75.3737 75.4772 73.3683 77.483 73.3687 79.957Z" stroke="black" stroke-linecap="round" stroke-linejoin="round"/>
</svg>
