<svg width="110" height="110" fill="none" xmlns="http://www.w3.org/2000/svg"><path clip-rule="evenodd" d="M1 55c0 29.823 24.177 54 54 54s54-24.177 54-54S84.823 1 55 1 1 25.177 1 55z" stroke="#000" stroke-linecap="round" stroke-linejoin="round"/><path d="M51.283 32.196H28.5a6 6 0 00-6 6v31.03a6 6 0 006 6h6.539v10c0 2.735 3.361 4.043 5.21 2.027l10.142-11.055a3 3 0 012.21-.971h21.06a6 6 0 006-6v-8.33m-5.537-37.826v8.21m-4.696 8.632v3.58m9.392-3.58v3.58m-12.073-12.21h14.757s6 0 6 6v8.813s0 6-6 6H66.747s-6 0-6-6v-8.814s0-6 6-6z" stroke="#000" stroke-linecap="round" stroke-linejoin="round"/></svg>