<svg width="6470" height="4143" fill="none" xmlns="http://www.w3.org/2000/svg"><path d="M157.819 3241.6c-96.048 96.47-150.63 224.67-153.592 360.5v19.88c2.538 136.67 57.12 264.88 153.592 360.92 96.471 96.47 224.676 151.06 360.498 153.6h20.309c2.116 0 4.232 0 5.924-.43 6.347-.42 12.271-.84 18.617-1.27 4.232-.42 8.04-.84 12.271-1.27 41.889-5.5 81.662-18.61 118.05-38.08 5.924-2.96 11.424-6.34 16.925-9.73 57.544-35.12 104.934-86.74 134.975-151.05 22.002-46.55 33.003-96.47 33.003-148.52 0-59.23-14.809-117.2-43.158-168.82l-1.269-2.12c-35.542-63.47-91.394-115.51-157.401-146.4-1.692-.84-2.961-1.27-4.654-2.11-2.962-1.27-6.347-2.54-9.309-4.23-.423 0-.846-.43-1.269-.43 39.773 35.55 65.584 86.32 67.276 143.44v11.42c-2.962 106.21-88.432 191.68-194.212 194.64h-11.424c-53.736-.85-105.357-12.69-153.169-35.12-71.507-33.43-131.59-90.12-169.671-159.09l-1.269-2.96c-29.196-54.16-44.851-115.52-44.851-177.71 0-55.43 11.847-109.17 35.119-159.1 2.538-5.07 5.077-10.15 7.616-15.23 1.269-2.11 2.539-4.65 3.808-6.77 1.692-3.38 3.808-6.77 5.924-10.15.846-1.7 2.115-3.39 2.961-5.08 1.27-2.54 2.962-4.66 4.655-7.19.423-.85.846-1.7 1.692-2.54l5.078-7.62c7.616-11 15.655-21.58 24.541-31.73 2.115-2.12 3.808-4.66 5.923-6.77.423-.85 1.27-1.27 2.116-2.12 2.116-2.54 4.654-5.08 6.77-7.19l.423-.43c2.116-2.11 4.231-4.65 6.77-6.76.846-.85 1.692-1.7 2.539-2.54 1.692-1.7 3.385-2.97 5.077-4.66 1.269-1.27 2.539-2.54 4.231-3.81 2.116-1.69 3.808-3.38 5.924-5.07l.423-.43c2.539-2.11 5.501-4.65 8.039-6.77 2.962-2.54 5.924-4.65 8.886-6.77-52.89 26.66-101.972 60.93-144.707 103.67z" fill="url(#paint0_linear_9480_11700)"/><path d="M519.158 3088c-8.462.43-16.502.85-24.541 1.7-4.231.42-8.039.84-12.27 1.27-4.232.42-8.04 1.27-12.271 1.69-4.231.84-8.039 1.27-11.847 2.11-8.039 1.7-15.656 3.39-23.695 5.5-7.616 2.12-15.232 4.66-22.848 7.2s-14.809 5.5-22.426 8.88c-40.196 17.35-77.007 42.31-107.895 73.2l-8.462 8.46c-24.541 27.08-45.274 57.55-61.353 91.4-22.002 46.54-33.003 96.47-33.003 148.51 0 58.82 14.809 117.21 43.158 168.41l1.269 2.11c35.542 63.47 91.394 115.51 157.401 146.4 5.077 2.54 10.578 4.65 15.655 6.77-39.773-35.54-65.583-86.74-67.276-143.86v-11.42c2.962-106.21 88.432-191.25 194.212-194.22h19.041c7.616.43 15.232.85 22.425 1.27 3.385.43 6.77.85 9.732 1.27 3.385.43 6.77.85 9.731 1.27l9.732 1.69c1.693.43 2.962.43 4.654.85 1.693.42 3.385.85 5.078.85 1.692.42 2.962.42 4.231.84 2.116.43 4.231.85 6.347 1.27 1.269.43 2.539.85 4.231.85 1.693.42 2.962.84 4.654 1.27 1.27.42 2.962.84 4.655 1.27 1.692.42 2.961.84 4.654 1.27 3.385.84 7.193 2.11 10.578 3.38l3.385 1.27c4.231 1.27 8.462 2.96 12.694 4.66l.846.42c.846.42 1.269.42 2.115.84 2.116.85 4.655 1.7 6.77 2.54 4.231 1.7 8.463 3.39 12.694 5.5 1.692.85 3.385 1.7 5.077 2.12 71.507 33.43 131.59 89.7 169.671 159.09l1.693 2.96c29.195 54.16 44.85 115.52 44.85 177.71 0 55.43-11.847 109.17-35.119 159.1-2.538 5.07-5.077 10.58-7.616 15.23-1.269 2.12-2.538 4.65-3.808 6.77-1.692 3.38-3.808 6.77-5.923 10.15-.847 1.7-2.116 3.39-2.962 5.08-1.27 2.12-2.539 4.23-3.808 6.35-.847 1.69-2.116 3.38-3.385 5.08-.847 1.27-1.693 2.53-2.539 4.23-1.269 2.11-2.962 4.23-4.231 6.34-.847.85-1.27 1.7-2.116 2.54-1.692 2.54-3.385 4.66-5.5 7.2-2.116 2.96-4.655 5.92-7.193 8.88-3.809 4.66-8.04 9.73-12.271 14.39-1.269 1.69-2.962 3.38-4.231 4.65-.423.42-.846.85-1.269 1.27-2.116 2.12-4.232 4.66-6.347 6.77l-9.309 9.31c-.846.85-2.115 1.69-2.962 2.96-1.692 1.69-3.808 3.39-5.5 5.08-1.27.84-2.539 2.11-3.808 2.96-2.116 1.69-4.232 3.81-6.77 5.5-4.231 3.39-8.039 6.77-12.271 9.73 52.89-25.38 101.972-60.08 144.707-102.39 96.471-96.47 151.057-224.26 153.597-360.5v-20.31c-2.54-136.67-57.126-264.87-153.597-360.92-94.355-96.05-221.291-150.63-356.69-153.59l-8.462-.43h-13.963z" fill="url(#paint1_linear_9480_11700)"/><path d="M1304.15 3596.33c0-153.23 128.86-278.3 282.09-278.3 85.01 0 145.11 33.03 190.59 76.88l-53.6 53.61c-32.49-30.32-76.89-54.15-136.99-54.15-112.08 0-199.25 89.88-199.25 201.96 0 112.08 87.71 201.96 199.25 201.96 72.56 0 113.71-29.24 140.24-55.77 21.66-21.66 35.73-53.06 41.15-95.83H1585.7v-75.81h256.11c2.7 13.54 4.33 29.78 4.33 47.65 0 56.85-15.7 127.78-66.06 177.6-48.73 50.89-111 77.96-193.84 77.96-153.23.55-282.09-124.53-282.09-277.76zm748.82-80.13c-99.08 0-179.76 75.26-179.76 179.22 0 102.87 80.68 179.22 179.76 179.22 99.09 0 179.76-75.81 179.76-179.22 0-103.96-81.22-179.22-179.76-179.22zm0 287.51c-54.14 0-101.25-44.94-101.25-108.29 0-64.44 46.56-108.29 101.25-108.29 54.15 0 101.25 43.85 101.25 108.29-.54 63.89-47.1 108.29-101.25 108.29zm392.01-287.51c-99.09 0-179.76 75.26-179.76 179.22 0 102.87 80.67 179.22 179.76 179.22 99.08 0 179.76-75.81 179.76-179.22 0-103.96-80.68-179.22-179.76-179.22zm0 287.51c-54.15 0-101.25-44.94-101.25-108.29 0-64.44 46.56-108.29 101.25-108.29 54.14 0 101.25 43.85 101.25 108.29-.54 63.89-47.11 108.29-101.25 108.29zm481.35-276.68v29.23h-2.71c-17.87-21.11-51.44-40.06-94.21-40.06-89.34 0-171.64 78.51-171.64 179.76 0 100.17 82.3 178.13 171.64 178.13 42.77 0 76.88-18.95 94.21-40.6h2.71v25.99c0 68.76-36.82 105.04-95.84 105.04-48.19 0-77.97-34.66-90.42-63.89l-68.77 28.69c19.5 47.65 72.02 105.58 158.65 105.58 92.04 0 170.01-54.14 170.01-186.25v-321.62h-73.63zm-90.43 276.68c-54.14 0-99.62-45.49-99.62-107.75 0-62.81 45.48-109.37 99.62-109.37 53.61 0 95.84 46.02 95.84 109.37 0 62.26-42.23 107.75-95.84 107.75zm219.29-466.73h78.51v526.29h-78.51v-526.29zm294.01 466.73c-40.07 0-68.77-18.41-86.63-54.15l239.32-99.08-8.13-20.58c-15.16-40.07-60.1-113.7-153.23-113.7-92.04 0-168.93 72.55-168.93 179.22 0 100.16 75.81 179.22 177.6 179.22 82.3 0 129.4-50.36 149.44-79.6l-61.19-40.61c-20.03 29.78-48.19 49.28-88.25 49.28zm-5.96-218.21c31.41 0 57.39 15.7 66.6 37.9l-160.27 66.6c-2.17-69.3 53.6-104.5 93.67-104.5zm330.29 278.3v-470.51h144.03c72.01 0 129.94 21.65 173.26 65.51 43.32 43.86 64.97 100.17 64.97 170.02 0 69.84-21.65 126.15-64.97 170.01-43.32 43.86-101.25 65.52-173.26 65.52l-144.03-.55zm60.64-57.93h83.39c54.14 0 97.46-15.7 128.86-46.57 31.95-30.86 47.65-74.72 47.65-130.48 0-55.77-15.7-99.09-47.65-130.49-31.94-31.41-74.72-47.11-128.86-47.11h-83.39v354.65zm519.25 68.22c-48.73 0-88.25-16.24-118.58-48.73-30.32-32.49-45.48-73.09-45.48-122.91 0-47.1 14.62-87.17 44.4-120.74 29.78-33.57 67.14-50.36 113.16-50.36 47.65 0 86.09 15.71 114.79 46.57 28.7 30.86 42.78 72.55 42.78 125.07l-.55 11.37h-254.48c1.63 32.49 12.46 57.94 32.49 76.89 20.03 18.95 43.32 28.16 69.85 28.16 43.31 0 72.55-18.41 88.25-55.23l54.15 22.2c-10.29 24.9-27.62 46.02-51.98 62.8-23.82 16.25-53.6 24.91-88.8 24.91zm87.18-210.08c-1.09-18.41-9.75-35.74-25.45-52.52-15.7-16.79-38.45-24.91-69.31-24.91-22.2 0-41.69 7.04-57.93 21.12-16.25 14.08-27.62 33.03-33.57 56.31h186.26zm255.02 210.08c-48.73 0-88.26-16.24-118.58-48.73-30.32-32.49-45.48-73.09-45.48-122.91 0-47.1 14.62-87.17 44.4-120.74 29.78-33.57 67.14-50.36 113.16-50.36 47.65 0 86.09 15.71 114.79 46.57 28.69 30.86 42.77 72.55 42.77 125.07l-.54 11.37h-254.48c1.62 32.49 12.45 57.94 32.49 76.89 20.03 18.95 43.31 28.16 69.84 28.16 43.32 0 72.56-18.41 88.26-55.23l54.14 22.2c-10.28 24.9-27.61 46.02-51.98 62.8-23.82 16.25-53.6 24.91-88.79 24.91zm87.17-210.08c-1.08-18.41-9.75-35.74-25.45-52.52-15.7-16.79-38.44-24.91-69.3-24.91-22.2 0-41.69 7.04-57.94 21.12-16.24 14.08-27.61 33.03-33.57 56.31h186.26zm275.06 210.08c-24.37 0-46.57-5.41-66.06-15.7-19.49-10.29-34.11-23.82-43.86-39.53h-2.71l2.71 44.94v141.86h-60.64v-464.02h57.93v44.94h2.71c9.75-15.7 24.37-28.69 43.86-39.52 19.49-10.29 41.69-15.71 66.06-15.71 41.69 0 77.42 16.25 107.74 49.28 30.33 33.02 45.49 73.63 45.49 122.36 0 48.73-15.16 89.34-45.49 122.37-29.78 32.49-66.05 48.73-107.74 48.73zm-9.75-55.23c28.16 0 51.98-10.83 72.01-31.94 20.04-21.12 30.32-49.27 30.32-84.47 0-35.19-10.28-63.35-30.32-84.46-20.03-21.12-44.4-31.95-72.01-31.95-28.7 0-52.52 10.29-72.55 31.4-20.04 21.12-29.78 49.28-29.78 85.01 0 35.74 9.74 63.89 29.78 85.01 20.03 21.12 44.39 31.4 72.55 31.4zm219.83 44.94v-470.51h60.64l163.52 286.42h2.7l163.52-286.42h60.64v470.51h-60.64v-279.38l2.71-79.05h-2.71l-147.27 258.27h-35.74l-147.27-258.27h-2.71l2.71 79.05v279.38h-60.1zm588.01-402.83c-8.12 8.12-18.41 12.45-30.32 12.45s-21.66-4.33-30.32-12.45c-8.12-8.13-12.46-18.41-12.46-30.32 0-11.92 4.34-21.66 12.46-30.33 8.12-8.12 18.41-12.45 30.32-12.45s21.66 4.33 30.32 12.45c8.12 8.13 12.45 18.41 12.45 30.33 0 11.91-3.79 21.65-12.45 30.32zm0 402.83h-60.64v-322.16h60.64v322.16zm120.74-322.16v44.94h2.71c8.66-15.16 22.74-28.15 41.15-38.98 18.95-10.83 38.98-16.25 60.64-16.25 40.07 0 70.39 12.46 91.51 36.82 21.11 24.37 31.4 57.4 31.4 98.55v197.08h-60.64v-187.88c0-59.56-26.53-89.34-79.59-89.34-24.91 0-45.49 9.75-61.19 29.78-15.7 20.04-23.82 42.78-23.82 69.31v178.13h-60.64v-322.16h58.47zm421.25 332.45c-41.69 0-77.43-16.24-107.75-49.27-30.32-33.03-45.48-73.64-45.48-122.37 0-48.73 15.16-89.34 45.48-122.36 30.32-33.03 66.06-49.28 107.75-49.28 24.36 0 46.56 5.42 66.06 15.71 19.49 10.28 34.11 23.82 43.85 39.52h2.71l-2.71-44.94v-147.81h60.65v470.51h-57.94v-44.94h-2.71c-9.74 15.71-24.36 28.7-43.85 39.53-19.5 10.29-41.7 15.7-66.06 15.7zm9.75-55.23c28.69 0 52.52-10.28 72.55-31.4 20.03-21.12 29.78-49.27 29.78-85.01 0-35.73-9.75-63.89-29.78-85.01-20.03-21.11-44.4-31.4-72.55-31.4-28.16 0-51.98 10.83-72.02 31.95-20.03 21.11-30.32 49.27-30.32 84.46 0 35.2 10.29 63.35 30.32 84.47 20.04 21.11 43.86 31.94 72.02 31.94z" fill="#fff"/><path d="M1305.09 3595.29c0-153.2 128.85-278.25 282.05-278.25 84.99 0 145.08 33.02 190.56 76.87l-53.6 53.59c-32.48-30.31-76.87-54.13-136.96-54.13-112.06 0-199.22 89.86-199.22 201.92 0 112.06 87.7 201.93 199.22 201.93 72.54 0 113.68-29.24 140.21-55.76 21.65-21.66 35.73-53.06 41.14-95.82H1586.6v-75.79h256.06c2.71 13.53 4.33 29.77 4.33 47.64 0 56.84-15.7 127.76-66.05 177.56-48.72 50.89-110.97 77.96-193.8 77.96-153.2.54-282.05-124.52-282.05-277.72zm748.7-80.12c-99.07 0-179.73 75.25-179.73 179.19 0 102.86 80.66 179.19 179.73 179.19 99.06 0 179.73-75.79 179.73-179.19 0-103.94-81.21-179.19-179.73-179.19zm0 287.46c-54.14 0-101.24-44.93-101.24-108.27 0-64.42 46.56-108.27 101.24-108.27 54.13 0 101.23 43.85 101.23 108.27-.54 63.88-47.1 108.27-101.23 108.27zm391.94-287.46c-99.07 0-179.73 75.25-179.73 179.19 0 102.86 80.66 179.19 179.73 179.19 99.06 0 179.73-75.79 179.73-179.19 0-103.94-80.67-179.19-179.73-179.19zm0 287.46c-54.14 0-101.24-44.93-101.24-108.27 0-64.42 46.56-108.27 101.24-108.27 54.13 0 101.23 43.85 101.23 108.27-.54 63.88-47.1 108.27-101.23 108.27zM2926.99 3526v29.23h-2.71c-17.86-21.11-51.42-40.06-94.19-40.06-89.33 0-171.61 78.5-171.61 179.73 0 100.15 82.28 178.11 171.61 178.11 42.77 0 76.87-18.95 94.19-40.61h2.71v25.99c0 68.75-36.81 105.02-95.82 105.02-48.18 0-77.95-34.64-90.41-63.88l-68.75 28.69c19.49 47.64 72 105.57 158.62 105.57 92.03 0 169.98-54.14 169.98-186.23V3526h-73.62zm-90.41 276.63c-54.13 0-99.6-45.47-99.6-107.73 0-62.8 45.47-109.35 99.6-109.35 53.6 0 95.82 46.01 95.82 109.35 0 62.26-42.22 107.73-95.82 107.73zm219.25-466.65h78.5v526.2h-78.5v-526.2zm293.96 466.65c-40.06 0-68.75-18.41-86.62-54.14l239.28-99.06-8.12-20.57c-15.16-40.06-60.09-113.69-153.2-113.69-92.03 0-168.91 72.54-168.91 179.19 0 100.15 75.79 179.19 177.57 179.19 82.28 0 129.38-50.35 149.41-79.58l-61.17-40.6c-20.03 29.77-48.18 49.26-88.24 49.26zm-5.96-218.17c31.4 0 57.39 15.7 66.59 37.9l-160.24 66.59c-2.17-69.3 53.59-104.49 93.65-104.49zm330.23 278.26v-470.44h144c72 0 129.93 21.66 173.24 65.51 43.3 43.85 64.96 100.15 64.96 169.98 0 69.84-21.66 126.14-64.96 169.99-43.31 43.85-101.24 65.5-173.24 65.5l-144-.54zm60.63-57.92h83.37c54.14 0 97.45-15.7 128.85-46.56 31.93-30.86 47.63-74.71 47.63-130.47 0-55.76-15.7-99.06-47.63-130.46-31.94-31.4-74.71-47.1-128.85-47.1h-83.37v354.59zm519.16 68.21c-48.72 0-88.24-16.24-118.55-48.72-30.32-32.49-45.48-73.09-45.48-122.89 0-47.1 14.62-87.16 44.39-120.72 29.78-33.57 67.13-50.35 113.15-50.35 47.64 0 86.07 15.7 114.76 46.56 28.7 30.85 42.77 72.54 42.77 125.05l-.54 11.37h-254.44c1.63 32.48 12.45 57.92 32.48 76.87 20.03 18.95 43.31 28.15 69.84 28.15 43.31 0 72.54-18.41 88.24-55.22l54.13 22.2c-10.28 24.9-27.6 46.01-51.97 62.79-23.81 16.25-53.59 24.91-88.78 24.91zm87.16-210.05c-1.08-18.4-9.74-35.73-25.44-52.51-15.7-16.78-38.44-24.9-69.3-24.9-22.19 0-41.68 7.04-57.92 21.11-16.24 14.08-27.61 33.02-33.56 56.3h186.22zm254.98 210.05c-48.72 0-88.24-16.24-118.56-48.72-30.31-32.49-45.47-73.09-45.47-122.89 0-47.1 14.61-87.16 44.39-120.72 29.77-33.57 67.13-50.35 113.14-50.35 47.64 0 86.08 15.7 114.77 46.56 28.69 30.85 42.77 72.54 42.77 125.05l-.54 11.37h-254.44c1.62 32.48 12.45 57.92 32.48 76.87 20.03 18.95 43.31 28.15 69.83 28.15 43.31 0 72.55-18.41 88.25-55.22l54.13 22.2c-10.29 24.9-27.61 46.01-51.97 62.79-23.82 16.25-53.59 24.91-88.78 24.91zm87.16-210.05c-1.09-18.4-9.75-35.73-25.45-52.51s-38.43-24.9-69.29-24.9c-22.2 0-41.68 7.04-57.93 21.11-16.24 14.08-27.6 33.02-33.56 56.3h186.23zm275 210.05c-24.36 0-46.55-5.42-66.04-15.7-19.49-10.29-34.11-23.82-43.85-39.52h-2.71l2.71 44.93v141.84h-60.63v-463.94h57.92v44.93h2.71c9.74-15.7 24.36-28.69 43.85-39.52 19.49-10.29 41.68-15.7 66.04-15.7 41.69 0 77.42 16.24 107.73 49.26 30.32 33.03 45.48 73.63 45.48 122.35s-15.16 89.32-45.48 122.35c-29.77 32.48-66.04 48.72-107.73 48.72zm-9.74-55.22c28.15 0 51.97-10.83 72-31.94s30.32-49.26 30.32-84.45c0-35.19-10.29-63.34-30.32-84.45-20.03-21.12-44.39-31.94-72-31.94-28.69 0-52.51 10.28-72.54 31.4-20.03 21.11-29.78 49.26-29.78 84.99s9.75 63.88 29.78 84.99c20.03 21.11 44.39 31.4 72.54 31.4zm219.79 44.93v-470.44h60.63l163.49 286.38h2.71l163.49-286.38h60.63v470.44h-60.63v-279.34l2.7-79.04h-2.7l-147.25 258.23h-35.73l-147.25-258.23h-2.71l2.71 79.04v279.34h-60.09zm587.91-402.77c-8.12 8.12-18.41 12.45-30.32 12.45s-21.65-4.33-30.31-12.45c-8.12-8.12-12.45-18.4-12.45-30.31s4.33-21.66 12.45-30.32c8.12-8.12 18.4-12.45 30.31-12.45s21.66 4.33 30.32 12.45c8.12 8.12 12.45 18.41 12.45 30.32s-3.79 21.65-12.45 30.31zm0 402.77h-60.63v-322.1h60.63v322.1zm120.72-322.1v44.93h2.71c8.66-15.16 22.74-28.15 41.14-38.98 18.95-10.83 38.98-16.24 60.63-16.24 40.06 0 70.38 12.45 91.49 36.81 21.12 24.36 31.4 57.39 31.4 98.53v197.05h-60.63v-187.85c0-59.55-26.53-89.32-79.58-89.32-24.9 0-45.47 9.74-61.17 29.77-15.7 20.03-23.82 42.77-23.82 69.3v178.1h-60.63v-322.1h58.46zm421.18 332.39c-41.69 0-77.42-16.24-107.73-49.27-30.32-33.02-45.48-73.62-45.48-122.34s15.16-89.33 45.48-122.35c30.31-33.02 66.04-49.26 107.73-49.26 24.36 0 46.55 5.41 66.04 15.7 19.49 10.28 34.11 23.82 43.85 39.52h2.71l-2.71-44.94v-147.79h60.63v470.44h-57.92v-44.93h-2.71c-9.74 15.7-24.36 28.69-43.85 39.52-19.49 10.28-41.68 15.7-66.04 15.7zm9.74-55.22c28.69 0 52.51-10.29 72.54-31.4 20.03-21.11 29.78-49.26 29.78-84.99s-9.75-63.88-29.78-84.99c-20.03-21.12-44.39-31.4-72.54-31.4-28.15 0-51.97 10.82-72 31.94-20.03 21.11-30.32 49.26-30.32 84.45 0 35.19 10.29 63.34 30.32 84.45s43.85 31.94 72 31.94zM799.055 2099.64L1335.51 555.304h261.35L922.853 2376H736.532l62.523-276.36zM297.614 555.304L829.067 2099.64 895.342 2376H709.021L36.264 555.304h261.35zM2313.38 2401.01c-94.2 0-179.65-15.84-256.34-47.52-75.87-32.51-141.31-77.95-196.33-136.3-54.19-58.36-95.87-127.55-125.05-207.58-29.17-80.03-43.76-167.56-43.76-262.6v-52.52c0-110.04 16.25-208 48.77-293.86 32.51-86.7 76.69-160.06 132.55-220.09 55.85-60.02 119.21-105.45 190.07-136.3 70.86-30.84 144.22-46.267 220.08-46.267 96.71 0 180.07 16.677 250.1 50.017 70.86 33.35 128.8 80.03 173.81 140.06 45.02 59.19 78.37 129.21 100.04 210.08 21.68 80.03 32.52 167.56 32.52 262.6v103.79H1829.45v-188.83h779.05v-17.5c-3.34-60.03-15.84-118.38-37.52-175.07-20.84-56.69-54.18-103.37-100.04-140.05-45.85-36.68-108.37-55.02-187.57-55.02-52.52 0-100.87 11.25-145.05 33.76-44.19 21.67-82.12 54.19-113.8 97.54-31.67 43.35-56.27 96.28-73.77 158.81-17.51 62.52-26.26 134.63-26.26 216.33v52.52c0 64.19 8.75 124.63 26.26 181.32 18.34 55.85 44.6 105.04 78.78 147.56 35.01 42.51 77.11 75.86 126.29 100.03 50.02 24.18 106.71 36.27 170.07 36.27 81.7 0 150.89-16.68 207.58-50.02 56.69-33.35 106.29-77.95 148.81-133.8l140.05 111.29c-29.18 44.18-66.28 86.28-111.29 126.3-45.02 40.01-100.46 72.53-166.32 97.54-65.02 25-142.13 37.51-231.34 37.51zm735.29-686.51v-28.76c0-97.54 14.17-187.99 42.51-271.36 28.35-84.2 69.19-157.14 122.55-218.83 53.35-62.53 117.96-110.88 193.82-145.06 75.87-35.01 160.9-52.517 255.1-52.517 95.04 0 180.49 17.507 256.35 52.517 76.69 34.18 141.72 82.53 195.07 145.06 54.19 61.69 95.46 134.63 123.8 218.83 28.34 83.37 42.52 173.82 42.52 271.36v28.76c0 97.53-14.18 187.99-42.52 271.35-28.34 83.37-69.61 156.31-123.8 218.83-53.35 61.69-117.96 110.05-193.82 145.06-75.03 34.18-160.06 51.27-255.1 51.27-95.04 0-180.48-17.09-256.35-51.27-75.86-35.01-140.88-83.37-195.07-145.06-53.36-62.52-94.2-135.46-122.55-218.83-28.34-83.36-42.51-173.82-42.51-271.35zm231.33-28.76v28.76c0 67.52 7.92 131.3 23.76 191.32 15.84 59.19 39.6 111.71 71.28 157.56 32.51 45.85 72.94 82.12 121.3 108.79 48.35 25.85 104.62 38.77 168.81 38.77 63.36 0 118.8-12.92 166.31-38.77 48.36-26.67 88.37-62.94 120.05-108.79 31.68-45.85 55.44-98.37 71.28-157.56 16.67-60.02 25.01-123.8 25.01-191.32v-28.76c0-66.7-8.34-129.64-25.01-188.83-15.84-60.02-40.02-112.96-72.53-158.81-31.68-46.68-71.69-83.36-120.05-110.04-47.51-26.68-103.37-40.01-167.56-40.01-63.36 0-119.21 13.33-167.56 40.01-47.52 26.68-87.54 63.36-120.05 110.04-31.68 45.85-55.44 98.79-71.28 158.81-15.84 59.19-23.76 122.13-23.76 188.83zm2238.36-333.88h165.06c80.87 0 147.56-13.34 200.08-40.02 53.35-27.51 92.95-64.6 118.79-111.29 26.68-47.52 40.02-100.87 40.02-160.06 0-70.027-11.67-128.8-35.01-176.318-23.35-47.518-58.36-83.365-105.04-107.541-46.69-24.176-105.88-36.264-177.57-36.264-65.03 0-122.55 12.922-172.57 38.765-49.18 25.009-87.95 60.857-116.29 107.541-27.51 46.685-41.27 101.706-41.27 165.067h-231.34c0-92.539 23.35-176.738 70.03-252.6 46.69-75.863 112.13-136.303 196.33-181.32 85.03-45.017 183.4-67.526 295.11-67.526 110.04 0 206.33 19.591 288.86 58.773 82.53 38.348 146.72 95.87 192.57 172.566 45.85 75.862 68.78 170.482 68.78 283.857 0 45.85-10.84 95.04-32.51 147.56-20.84 51.68-53.77 100.04-98.79 145.05-44.18 45.02-101.71 82.12-172.57 111.3-70.86 28.34-155.89 42.51-255.09 42.51h-197.58v-140.05zm0 190.07v-138.8h197.58c115.87 0 211.74 13.75 287.61 41.26 75.86 27.51 135.46 64.2 178.81 110.05 44.19 45.85 75.03 96.28 92.54 151.3 18.34 54.19 27.51 108.38 27.51 162.57 0 85.03-14.59 160.47-43.77 226.33-28.34 65.86-68.77 121.72-121.29 167.57-51.69 45.85-112.55 80.44-182.57 103.79-70.03 23.34-146.31 35.01-228.84 35.01-79.2 0-153.81-11.25-223.84-33.76-69.19-22.51-130.46-55.02-183.82-97.54-53.35-43.35-95.03-96.29-125.04-158.81-30.02-63.36-45.02-135.47-45.02-216.33h231.34c0 63.35 13.75 118.79 41.26 166.31 28.35 47.52 68.36 84.62 120.05 111.29 52.52 25.85 114.21 38.77 185.07 38.77s131.72-12.09 182.57-36.27c51.69-25.01 91.28-62.52 118.79-112.54 28.35-50.02 42.52-112.96 42.52-188.82s-15.84-137.97-47.52-186.32c-31.68-49.19-76.69-85.45-135.05-108.79-57.52-24.18-125.46-36.27-203.83-36.27h-165.06z" fill="#75787A"/><defs><linearGradient id="paint0_linear_9480_11700" x1="4.231" y1="3638.2" x2="879.06" y2="3638.2" gradientUnits="userSpaceOnUse"><stop stop-color="#2694D2"/><stop offset=".31" stop-color="#1B87C8"/><stop offset=".73" stop-color="#0C7BBE"/><stop offset="1" stop-color="#0377BB"/></linearGradient><linearGradient id="paint1_linear_9480_11700" x1="178.723" y1="3587.12" x2="1053.55" y2="3587.12" gradientUnits="userSpaceOnUse"><stop stop-color="#6CB0E1"/><stop offset="1" stop-color="#ADD6F2"/></linearGradient></defs></svg>