<svg width="94" height="30" fill="none" xmlns="http://www.w3.org/2000/svg"><path d="M5.587 28.536c-.682 0-1.397-.17-2.144-.512-.725-.32-1.344-.853-1.856-1.6-.49-.768-.736-1.781-.736-3.04 0-1.472.128-3.03.384-4.672a57.56 57.56 0 01.992-4.928 62.378 62.378 0 011.408-4.736 53.224 53.224 0 011.536-4c.534-1.173 1.024-2.09 1.472-2.752.448-.683.822-1.024 1.12-1.024.406 0 .747.16 1.024.48.299.32.448.768.448 1.344 0 .235-.138.79-.416 1.664-.277.853-.629 1.93-1.056 3.232-.426 1.301-.885 2.71-1.376 4.224-.469 1.515-.917 3.04-1.344 4.576a63.689 63.689 0 00-1.056 4.352c-.277 1.365-.416 2.528-.416 3.488 0 .277.075.544.224.8.15.235.395.352.736.352.47 0 1.142-.107 2.016-.32a67.84 67.84 0 002.912-.768c1.046-.32 2.048-.63 3.008-.928.96-.299 1.771-.555 2.432-.768.662-.213 1.035-.32 1.12-.32.256 0 .47.075.64.224.171.128.256.33.256.608 0 .341-.256.736-.768 1.184-.49.448-1.152.896-1.984 1.344a18.95 18.95 0 01-2.72 1.216 22.627 22.627 0 01-3.04.928c-1.002.235-1.941.352-2.816.352zm27.864-15.328c0 .683-.214 1.355-.64 2.016-.427.64-.992 1.259-1.696 1.856a19.634 19.634 0 01-2.336 1.632c-.854.512-1.707.96-2.56 1.344-.854.384-1.632.693-2.336.928-.17.832-.256 1.568-.256 2.208 0 .405.096.693.288.864.192.17.49.256.896.256.896 0 1.845-.16 2.848-.48a22.67 22.67 0 003.072-1.248 40.288 40.288 0 003.008-1.632 88.34 88.34 0 002.624-1.632c.81-.512 1.483-.928 2.016-1.248.533-.32.885-.48 1.056-.48.256 0 .448.085.576.256.15.15.224.33.224.544 0 .17-.267.501-.8.992-.512.49-1.206 1.067-2.08 1.728a50.062 50.062 0 01-2.944 1.984 43.548 43.548 0 01-3.392 1.92 23.406 23.406 0 01-3.36 1.44c-1.067.363-2.027.544-2.88.544-1.11 0-1.974-.416-2.592-1.248-.619-.832-.928-2.123-.928-3.872 0-1.173.15-2.357.448-3.552.32-1.195.746-2.336 1.28-3.424a17.741 17.741 0 011.824-2.944c.683-.875 1.397-1.557 2.144-2.048.747-.512 1.472-.768 2.176-.768 1.344 0 2.4.373 3.168 1.12.768.747 1.152 1.728 1.152 2.944zm-8.896 5.312a142.14 142.14 0 002.048-1.28 24.12 24.12 0 001.952-1.376c.597-.47 1.077-.96 1.44-1.472.384-.533.576-1.077.576-1.632 0-.79-.427-1.184-1.28-1.184-.534 0-1.099.341-1.696 1.024-.576.661-1.13 1.525-1.664 2.592a25.363 25.363 0 00-1.376 3.328zm15.534 9.312c-.81 0-1.482-.373-2.016-1.12-.512-.768-.768-1.76-.768-2.976 0-1.13.278-2.25.832-3.36.576-1.11 1.334-2.176 2.272-3.2a24.041 24.041 0 013.072-2.816 27.934 27.934 0 013.328-2.272c1.131-.64 2.166-1.141 3.104-1.504.939-.363 1.686-.544 2.24-.544.299 0 .544.064.736.192.192.107.288.31.288.608a.815.815 0 01-.224.544h.064c.47 0 .704.277.704.832 0 .192-.074.587-.224 1.184-.149.576-.32 1.301-.512 2.176a38.628 38.628 0 00-.512 2.912 22.59 22.59 0 00-.224 3.2c0 .917.352 1.376 1.056 1.376.79 0 1.59-.181 2.4-.544.811-.363 1.6-.8 2.368-1.312a38.929 38.929 0 002.112-1.568c.64-.533 1.184-.981 1.632-1.344.448-.363.768-.544.96-.544.171 0 .32.053.448.16.128.107.192.277.192.512 0 .213-.213.597-.64 1.152-.426.555-.992 1.184-1.696 1.888a22.72 22.72 0 01-2.368 2.048 14.84 14.84 0 01-2.688 1.632c-.917.427-1.792.64-2.624.64-.64 0-1.226-.192-1.76-.576-.512-.405-.928-1.088-1.248-2.048-.298-.96-.448-2.283-.448-3.968v-.8a43.018 43.018 0 01-3.296 4.736c-1.13 1.43-2.261 2.57-3.392 3.424-1.109.853-2.165 1.28-3.168 1.28zm11.456-15.488a16.39 16.39 0 00-.448.192 27.671 27.671 0 00-3.072 1.664 32.635 32.635 0 00-3.072 2.208 25.09 25.09 0 00-2.656 2.528c-.789.875-1.418 1.76-1.888 2.656-.469.896-.704 1.77-.704 2.624 0 .277.054.49.16.64.128.15.342.224.64.224.427 0 .982-.267 1.664-.8.683-.555 1.43-1.28 2.24-2.176a40.749 40.749 0 002.496-2.976 67.212 67.212 0 002.368-3.296 51.332 51.332 0 001.984-3.072c.086-.15.182-.288.288-.416zm22.102-1.44a77.83 77.83 0 001.632-4.288 61.714 61.714 0 001.44-4.512c.128-.427.32-.768.576-1.024.278-.277.597-.416.96-.416a.82.82 0 01.64.288c.192.192.288.448.288.768 0 .405-.16 1.11-.48 2.112a576.402 576.402 0 01-1.152 3.808 103.12 103.12 0 00-1.376 5.312c-.448 1.984-.832 4.181-1.152 6.592-.298 2.41-.448 4.981-.448 7.712 0 .597-.128 1.088-.384 1.472-.256.405-.565.608-.928.608-.213 0-.416-.053-.608-.16-.192-.107-.362-.363-.512-.768-.128-.384-.234-.992-.32-1.824-.085-.853-.128-2.005-.128-3.456 0-1.11.064-2.315.192-3.616-.981 1.77-2.048 3.317-3.2 4.64-1.13 1.301-2.23 2.304-3.296 3.008-1.045.704-1.941 1.056-2.688 1.056-.917 0-1.664-.31-2.24-.928-.555-.597-.832-1.493-.832-2.688 0-1.045.245-2.123.736-3.232a16.31 16.31 0 011.952-3.264 26.155 26.155 0 012.688-3.072 28.208 28.208 0 012.944-2.528c1.003-.747 1.93-1.323 2.784-1.728.853-.427 1.547-.64 2.08-.64.213 0 .406.075.576.224a.7.7 0 01.256.544zm-.416.992c-.15.15-.33.299-.544.448-.213.15-.448.31-.704.48a87.354 87.354 0 00-3.104 2.304 32.86 32.86 0 00-3.2 2.816c-1.002 1.003-1.824 2.059-2.464 3.168-.64 1.11-.96 2.25-.96 3.424 0 .512.256.768.768.768.704 0 1.472-.33 2.304-.992.853-.683 1.728-1.621 2.624-2.816.896-1.216 1.792-2.635 2.688-4.256a65.822 65.822 0 002.592-5.344zm12.556 15.808c-.47 0-.832-.139-1.088-.416a1.285 1.285 0 01-.352-.896c0-.299.128-.576.384-.832.278-.277.65-.523 1.12-.736a48.31 48.31 0 002.4-1.344c.768-.448 1.387-.928 1.856-1.44.47-.512.704-1.056.704-1.632 0-.49-.16-.864-.48-1.12-.32-.277-.757-.416-1.312-.416-.32 0-.768.064-1.344.192-.576.107-1.205.235-1.888.384-.661.128-1.312.256-1.952.384-.64.107-1.184.16-1.632.16-.81 0-1.419-.192-1.824-.576-.405-.405-.608-.95-.608-1.632 0-.341.203-.853.608-1.536.405-.683.939-1.44 1.6-2.272a40.076 40.076 0 012.24-2.56 36.384 36.384 0 012.464-2.368c.853-.725 1.643-1.312 2.368-1.76.747-.448 1.365-.672 1.856-.672.49 0 .864.16 1.12.48.256.32.384.725.384 1.216 0 .384-.064.715-.192.992-.128.256-.394.459-.8.608-.384.15-.981.235-1.792.256a53.111 53.111 0 00-2.656 2.272 28.854 28.854 0 00-2.528 2.592c-.746.875-1.29 1.717-1.632 2.528.704-.235 1.557-.437 2.56-.608a16.807 16.807 0 013.104-.288c1.643 0 2.859.373 3.648 1.12.81.725 1.216 1.685 1.216 2.88 0 .768-.245 1.568-.736 2.4a9.65 9.65 0 01-1.856 2.272c-.768.704-1.59 1.27-2.464 1.696-.874.448-1.707.672-2.496.672z" fill="#000"/></svg>