<svg width="162" height="31" fill="none" xmlns="http://www.w3.org/2000/svg"><path d="M13.599 0C6.089 0 0 6.066 0 13.549v10.16c0 3.447 2.804 6.24 6.263 6.24 3.458 0 6.262-2.793 6.262-6.24v-11.07c0-4.938 2.843-9.215 6.986-11.294A13.586 13.586 0 0013.6 0z" fill="#2D2929"/><path d="M28.577.19C21.095.19 15.03 6.233 15.03 13.687V23.9c0 3.446 2.804 6.24 6.263 6.24s6.262-2.794 6.262-6.24V13.666c0-5.64 4.565-10.218 10.214-10.267A14.696 14.696 0 0028.577.19z" fill="#2D2929"/><rect x="31.134" y="6.774" width="12.167" height="23.175" rx="6.084" fill="#2D2929"/><path d="M55.183 8.765c.37.164.548.403.716.756a259.026 259.026 0 01.243.488 529.586 529.586 0 011.093 2.15l.229.451.717 1.414.825 1.626.641 1.263a530.668 530.668 0 00.87 1.716l.179.352.053.104c.072.144.119.239.119.402h.1l.036-.12c.08-.222.183-.428.288-.638l.068-.136.143-.288c.102-.202.202-.405.303-.607l.153-.307c.214-.43.426-.86.638-1.292l.097-.199.286-.583.384-.782.049-.1c.333-.677.668-1.354 1.004-2.03a287.207 287.207 0 001.243-2.53 54.12 54.12 0 01.25-.511c.16-.275.33-.492.642-.599a1.11 1.11 0 01.855.199c.191.198.314.383.315.66v.269l.001.15v.5l.002.357a316.464 316.464 0 01.001 1.58l.002 2.01v.219c0 .585 0 1.171.002 1.757a723.633 723.633 0 01.003 2.817 178.006 178.006 0 01.001 1.303v.477l.001.14c-.003.295-.058.518-.227.765-.229.22-.436.303-.752.317a.751.751 0 01-.556-.217c-.24-.252-.308-.396-.31-.743v-.109a146.656 146.656 0 01-.004-.623l-.003-.706-.004-.738a2175.583 2175.583 0 01-.015-2.99 7147.19 7147.19 0 01-.016-3.274l-.06.12a950.88 950.88 0 01-.316.65 87.21 87.21 0 01-.69 1.383c-.233.457-.46.916-.682 1.378a62.16 62.16 0 01-.591 1.184c-.223.437-.442.874-.654 1.316-.308.64-.63 1.274-.954 1.906a14.74 14.74 0 00-.138.28c-.087.179-.163.318-.323.442l-.09.07c-.244.172-.548.13-.834.106-.484-.204-.67-.817-.89-1.257a100.386 100.386 0 00-.337-.666l-.062-.124-.368-.726-.246-.485-.104-.205-.053-.104-2.569-5.07v.133c0 1.062-.002 2.124-.006 3.186a527.78 527.78 0 00-.003 1.541c0 .448-.002.896-.004 1.344v.71a71.213 71.213 0 01-.003.916c.004.8.004.8-.285 1.105a.91.91 0 01-.632.273c-.314-.02-.537-.116-.745-.35-.134-.164-.189-.263-.19-.474v-.426l-.002-.507v-.362a660.18 660.18 0 01-.003-1.09v-.514a1616.343 1616.343 0 01-.003-2.148v-.111c0-.594-.001-1.189-.003-1.783a744.04 744.04 0 01-.005-2.857 183.152 183.152 0 01-.002-1.322v-.484L54 9.721c.003-.278.039-.438.227-.658.303-.269.552-.357.956-.298zm25.901 0c.263.109.441.265.604.496.05.127.093.248.132.379l.037.12.132.444.028.094c.244.825.48 1.652.703 2.483.106.39.22.776.343 1.161.11.35.213.702.314 1.055.093.322.187.643.282.964.543 1.845.543 1.845.745 2.617a74.496 74.496 0 01.067.257c.035.109.08.204.134.304.172-.628.344-1.256.51-1.886.152-.579.313-1.154.479-1.729.164-.57.32-1.143.464-1.72.082-.328.17-.654.263-.979.086-.302.167-.607.246-.911.097-.369.198-.735.31-1.099.059-.19.11-.381.157-.575l.033-.135a21 21 0 00.06-.26c.086-.362.23-.615.547-.832a1.3 1.3 0 01.927.031c.223.111.342.303.42.53a151.386 151.386 0 00.184.72l.04.158c.056.216.12.431.183.646.139.47.262.943.385 1.416.103.399.209.795.326 1.19.127.428.24.858.352 1.29.123.478.251.953.391 1.426.12.406.226.816.332 1.227.135.517.282 1.03.434 1.542h.05l.027-.1a73.21 73.21 0 01.545-1.937c.12-.399.234-.8.346-1.2.083-.295.168-.588.255-.88.18-.603.355-1.207.528-1.812l.23-.8a832.34 832.34 0 00.615-2.143l.125-.434.036-.128c.096-.328.189-.645.466-.863.276-.145.547-.176.854-.102.216.08.303.17.4.372.1.632-.086 1.178-.295 1.768-.101.296-.191.595-.282.894l-.1.324c-.124.408-.247.817-.368 1.226l-.198.654-.039.13c-.174.571-.35 1.142-.528 1.713a172.73 172.73 0 00-.699 2.306l-.037.123-.341 1.108a148.463 148.463 0 00-.497 1.641c-.257.879-.257.879-.653 1.146a1.11 1.11 0 01-.692.071c-.329-.122-.502-.34-.654-.645-.07-.2-.12-.405-.17-.611l-.09-.361-.046-.186c-.071-.284-.147-.568-.222-.852l-.088-.336-.174-.662a1329.202 1329.202 0 01-.935-3.565l-.17-.649c-.236-.903-.478-1.804-.72-2.705l-.02.083a42.63 42.63 0 01-.49 1.899c-.15.526-.287 1.055-.42 1.586-.09.357-.182.714-.28 1.07l-.139.517c-.08.306-.163.612-.25.916-.122.426-.233.854-.341 1.284-.245.973-.245.973-.345 1.325l-.069.247a78.208 78.208 0 01-.18.638c-.123.424-.27.695-.636.958-.277.088-.555.098-.817-.031-.34-.29-.456-.546-.591-.962l-.082-.247a29.4 29.4 0 01-.426-1.397c-.108-.392-.23-.78-.35-1.167a163.6 163.6 0 01-.318-1.04l-.058-.188-.263-.868a85.32 85.32 0 00-.553-1.782 23.396 23.396 0 01-.32-1.062 28.61 28.61 0 00-.252-.852 182.53 182.53 0 01-.488-1.598l-.037-.122-.105-.35-.032-.106-.087-.29a185.39 185.39 0 01-.056-.19c-.084-.3-.099-.59.038-.874.278-.297.52-.398.924-.326zm71.541.045c.391.224.533.58.697.976l.059.142.192.46.135.323.278.662c.195.466.392.932.59 1.397l.111.263c.289.68.579 1.358.87 2.036.355.828.706 1.658 1.056 2.488l.125.296.062.147c.283.672.568 1.344.854 2.015l.101.24a47.038 47.038 0 00.287.667l.058.133a.87.87 0 01.001.673 1.129 1.129 0 01-.611.538 1.126 1.126 0 01-.805-.149c-.309-.266-.43-.622-.572-.992l-.117-.297-.083-.212c-.156-.397-.322-.79-.487-1.185a94.213 94.213 0 01-.724-1.772c-.251-.634-.51-1.266-.769-1.897-.22-.534-.438-1.067-.656-1.601l-.13-.32-.043-.106-.087-.213-.216-.53-.204-.5a32.22 32.22 0 00-.113-.278l-.068-.166-.059-.146c-.039-.106-.039-.106-.098-.159a8921.88 8921.88 0 00-2.091 4.995l-.12.286-.297.71-.556 1.325-.26.62-.123.293a35.316 35.316 0 00-.613 1.533c-.131.332-.245.534-.561.716a1.022 1.022 0 01-.715.01 1.066 1.066 0 01-.512-.551c-.092-.384-.022-.649.136-.999l.056-.129.185-.42.13-.298.203-.467c.224-.51.441-1.025.657-1.539a221.656 221.656 0 01.378-.898l.588-1.38.842-1.98.114-.267.526-1.242.677-1.597.132-.31.208-.486.056-.133c.128-.295.269-.526.541-.714.265-.089.52-.115.785-.01zm-35.083.01c.217.124.352.267.465.491.006.096.008.193.008.289l.002.186.001.206.001.216a114.669 114.669 0 01.007 1.2l.007 1.16.008 1.321.017 2.719.065-.061.298-.275.104-.096c.195-.18.392-.357.595-.53.117-.1.231-.202.346-.304.149-.133.298-.264.45-.394.162-.14.322-.282.481-.425.19-.172.383-.34.577-.508.117-.1.232-.203.347-.305l.128-.114.26-.233c.774-.697.774-.697 1.209-.69.269.03.45.169.62.37.136.206.143.397.103.636-.133.403-.532.682-.848.95-.121.104-.24.21-.359.316-.15.133-.3.266-.453.397-.237.204-.47.412-.704.62-.241.215-.482.43-.726.643l-.094.082c-.085.07-.085.07-.236.169.084.19.209.345.339.505l.074.092c.251.312.508.619.766.926l.522.63c.178.217.357.435.537.651l.227.273.078.094.258.313.082.098c.665.806.665.806.654 1.175a.908.908 0 01-.371.625 1.116 1.116 0 01-.541.143l-.127.006c-.312-.05-.507-.28-.697-.512l-.072-.085a33.14 33.14 0 01-.555-.689 36.712 36.712 0 00-.672-.818 49.48 49.48 0 01-.547-.665c-.142-.176-.286-.35-.43-.525l-.085-.104a36.113 36.113 0 00-.512-.613l-.11-.128c-.076-.102-.076-.102-.076-.2a23.7 23.7 0 00-.251.148l-.166.093c-.258.17-.451.346-.524.652-.046.409-.034.819-.021 1.229.007.235.01.47.012.705.001.125.004.25.008.375.007.336-.004.548-.215.818-.25.196-.454.23-.772.217-.275-.039-.431-.15-.605-.366a1.052 1.052 0 01-.139-.56v-.27l-.001-.15-.001-.5-.001-.358-.002-1.074-.001-.506-.002-1.682v-.547l-.003-1.756c-.002-.602-.003-1.203-.003-1.805l-.002-1.013-.001-.953-.001-.35v-.477l-.001-.14c.003-.335.077-.612.319-.858.329-.196.587-.207.952-.1zm-46.764 4.015c.49.211.697.868.923 1.318l.107.212.28.557.5.99a54.985 54.985 0 00.736 1.421c.204.38.4.762.595 1.146l.183.36.117.23.055.108c.126.249.126.249.126.36h.1l.013-.097c.052-.213.143-.403.234-.602l.06-.134.2-.437a750.295 750.295 0 00.91-2.012l.144-.32c.162-.357.322-.716.48-1.077.08-.187.163-.374.245-.561.04-.09.078-.18.117-.271a63.213 63.213 0 01.212-.49c.119-.267.28-.565.554-.7.401-.049.725.015 1.057.247.178.195.176.346.168.6-.028.233-.113.425-.215.635l-.061.136-.13.279c-.08.173-.159.347-.236.522a95.3 95.3 0 01-.297.658l-.13.29-.272.6a1398.388 1398.388 0 00-.902 2.004l-.122.27-1.067 2.37-.097.215-.246.546-.509 1.13-.267.594-.13.286-.06.137-.061.134-.12.264c-.1.223-.2.446-.296.67l-.06.138-.11.256c-.115.26-.225.409-.465.57-.288.064-.573.04-.83-.11a3.338 3.338 0 01-.176-.139l-.126-.106c-.131-.249-.115-.543-.04-.812.048-.122.101-.24.159-.359l.061-.134.2-.429.138-.297.278-.602c.178-.382.355-.764.529-1.148l.148-.32.088-.194.077-.167c.086-.266-.013-.434-.139-.676l-.056-.107-.06-.114-.191-.364-.133-.254a54.79 54.79 0 00-.753-1.392c-.237-.424-.46-.855-.683-1.286a49.47 49.47 0 00-.76-1.427c-.253-.45-.494-.905-.733-1.362l-.055-.104-.153-.294-.09-.172a1.007 1.007 0 01-.12-.637c.27-.486.61-.61 1.157-.546zm90.699-3.989a.978.978 0 01.49.564c.005.07.007.139.007.208l.001.13v.141l.001.15.001.503.001.359.003 1.079v.305a597.497 597.497 0 01.004 2.332v.11l.004 1.765c.003.604.004 1.208.004 1.813l.002 1.017a152.77 152.77 0 01.003 1.309v.48l.002.14a1.097 1.097 0 01-.284.767c-.261.24-.473.266-.819.262-.267-.027-.413-.177-.58-.367-.13-.169-.167-.24-.167-.446l-.001-.13v-.144l-.001-.152-.001-.507-.001-.362-.002-1.09v-.514l-.002-1.705-.001-.443v-.111c0-.594-.001-1.189-.003-1.783l-.003-1.83-.001-1.027a103.9 103.9 0 01-.001-.967l-.001-.355a39.074 39.074 0 010-.484l-.002-.142c.003-.332.071-.5.308-.74.318-.25.663-.305 1.039-.135zm-49.035 3.871l.173-.001c.604.002 1.184.09 1.67.467.148.164.195.251.223.468a1.191 1.191 0 01-.242.614c-.215.155-.398.168-.657.143l-.167-.015c-.163-.019-.163-.019-.3-.045-.983-.139-2.059-.049-2.882.538-.37.309-.617.728-.667 1.208a9.283 9.283 0 00-.004.441l-.001.169.001.36v.57c-.002.506-.002 1.012-.001 1.518.001.366 0 .73-.001 1.096v.906l.002.157c-.004.33-.065.552-.284.806-.238.188-.509.174-.802.167-.212-.024-.3-.075-.456-.216a29.725 29.725 0 00-.088-.069c-.166-.212-.176-.463-.177-.722l-.001-.101v-.334l-.001-.24-.001-.652-.001-.407-.001-1.422-.003-1.324c-.001-.379-.002-.758-.001-1.138l-.002-.679a67.99 67.99 0 010-.638l-.001-.234c-.005-.733-.005-.733.227-1.074.243-.233.537-.213.859-.21.258.02.394.1.565.287.129.184.147.302.163.525a8.113 8.113 0 01.023.291l.132-.146c.719-.708 1.701-1.074 2.703-1.064zm28.523-.003l.187-.003c.607 0 1.185.123 1.655.521.127.148.149.224.17.416a1.145 1.145 0 01-.239.617c-.221.16-.416.175-.685.159a23.685 23.685 0 01-.273-.05c-1.008-.168-2.022-.127-2.9.425-.099.069-.099.069-.179.155-.069.065-.069.065-.169.065l-.038.08c-.063.119-.063.119-.161.252-.24.381-.276.742-.272 1.184v2.617c0 .366 0 .73-.002 1.096l.001.378c.001.176 0 .352-.001.528l.002.157c-.003.33-.065.552-.284.806-.238.188-.508.174-.801.167-.213-.024-.301-.075-.457-.216a49.496 49.496 0 00-.088-.072c-.164-.203-.176-.413-.177-.665v-.102l-.001-.337-.001-.241-.001-.656-.001-.41-.001-1.432-.002-1.333c-.002-.381-.002-.763-.002-1.145l-.001-.684-.001-.643v-.236c-.006-.743-.006-.743.226-1.078.266-.224.511-.226.854-.215.261.028.396.102.57.292.129.184.147.302.164.525l.013.164.009.127.132-.146c.738-.726 1.729-1.073 2.754-1.067zm2.487 7.505c.351.176.585.382.714.757.044.33.07.674-.104.97-.201.258-.435.469-.752.569-.368.04-.716.057-1.022-.171-.268-.246-.468-.466-.502-.84v-.178l-.003-.178c.031-.289.17-.51.37-.718.409-.29.815-.415 1.299-.211z" fill="#2D2929"/><path fill-rule="evenodd" clip-rule="evenodd" d="M132.596 13.778a14.041 14.041 0 00-.223-.195c-1.146-.879-2.596-1.008-3.992-.774-1.138.291-2.066.96-2.74 1.9-.766 1.193-.954 2.67-.657 4.045.338 1.222 1.025 2.195 2.117 2.875 1.076.606 2.431.899 3.656.622l.128-.034c.774-.192 1.863-.48 2.37-1.146a.833.833 0 00.045-.592 1.029 1.029 0 00-.604-.496c-.283-.048-.49-.025-.735.127-.089.059-.18.115-.271.17-.78.401-1.699.666-2.576.45l-.19-.052a3.292 3.292 0 01-.673-.228c-.741-.38-1.298-.962-1.562-1.754l-.039-.121-.141-.428a4250.423 4250.423 0 004.83.004h.569l.545.001h.565c.29 0 .498-.03.735-.204.182-.25.224-.428.221-.734l-.004-.138a18.037 18.037 0 00-.009-.403c-.061-.99-.517-2.141-1.272-2.817l-.093-.078zm-.252 2.78a3.044 3.044 0 00-1.106-1.886c-.728-.5-1.69-.578-2.544-.391-.835.25-1.44.722-1.851 1.48l-.054.102c-.168.31-.192.52-.23.894h5.785v-.199zm-29.108-3.513l-.175-.061c-1.774-.633-3.965-.246-5.28 1.127l-.103.114a4.526 4.526 0 00-.674.976c-.61 1.258-.684 2.764-.236 4.088a4.603 4.603 0 002.39 2.611c1.258.53 2.684.6 3.977.135l.177-.067a4.074 4.074 0 001.531-1.001l.079-.09c.389-.44.683-.91.918-1.446.48-1.21.453-2.73-.058-3.922-.52-1.13-1.357-2.007-2.546-2.464zm-.726 1.43l-.153-.051c-.565-.193-1.272-.25-1.855-.087l-.107.037c-.41.142-.773.318-1.107.595a3.14 3.14 0 00-1.063 2.203c-.034 1.058.168 1.968.909 2.767a2.98 2.98 0 002.026.813l.175-.003c.359.002.685 0 1.023-.128l.099-.043c.388-.162.75-.342 1.056-.634.667-.721.911-1.507.922-2.465-.005-.852-.245-1.69-.865-2.313l-.107-.097a2.771 2.771 0 00-.953-.594z" fill="#2D2929"/></svg>